{
.appVersion = "3343";
.formatVersion = 3;
axes = (
{
name = Open;
}
);
date = "2024-04-05 01:30:51 +0000";
familyName = Eyeguy;
fontMaster = (
{
axesValues = (
0
);
id = m01;
metricValues = (
{
over = 16;
pos = 800;
},
{
over = 16;
pos = 700;
},
{
over = 16;
pos = 500;
},
{
over = -16;
},
{
over = -16;
pos = -200;
}
);
name = Regular;
},
{
axesValues = (
100
);
customParameters = (
{
name = weight;
value = "100";
}
);
iconName = SemiExtended;
id = "45082C4A-550E-4DA0-B494-F7E76CD90BF9";
metricValues = (
{
pos = 800;
},
{
pos = 700;
},
{
pos = 500;
},
{
},
{
pos = -200;
}
);
name = Unusual;
}
);
glyphs = (
{
glyphname = A;
lastChange = "2025-10-03 19:49:08 +0000";
layers = (
{
backgroundImage = {
imagePath = "New Folder With Items/Images/A_-Regular.tif";
locked = 1;
scale = (3.5714,3.3333);
};
layerId = m01;
shapes = (
{
closed = 1;
nodes = (
(387,704,o),
(413,611,o),
(440,520,cs),
(559,125,ls),
(576,66,o),
(523,-39,o),
(409,11,cs),
(357,34,o),
(294,52,o),
(198,12,cs),
(124,-19,o),
(-5,5,o),
(30,125,cs),
(145,516,ls),
(170,603,o),
(207,702,o),
(282,703,cs)
);
},
{
closed = 1;
nodes = (
(227,663,o),
(200,567,o),
(185,516,cs),
(70,125,ls),
(36,10,o),
(153,40,o),
(198,52,cs),
(236,62,o),
(291,117,o),
(409,51,cs),
(480,12,o),
(535,70,o),
(519,125,cs),
(400,520,ls),
(381,584,o),
(362,663,o),
(282,663,cs)
);
},
{
closed = 1;
nodes = (
(291,252,o),
(291,252,o),
(291,252,cs),
(291,252,o),
(291,252,o),
(292,252,cs),
(292,252,o),
(292,252,o),
(292,252,cs),
(292,252,o),
(292,252,o),
(292,252,cs)
);
},
{
closed = 1;
nodes = (
(291,252,o),
(291,252,o),
(291,252,cs),
(291,252,o),
(291,252,o),
(292,252,cs),
(292,252,o),
(292,252,o),
(292,252,cs),
(292,252,o),
(292,252,o),
(292,252,cs)
);
},
{
closed = 1;
nodes = (
(370,248,o),
(427,246,o),
(427,252,cs),
(427,258,o),
(370,258,o),
(298,258,cs),
(226,258,o),
(167,258,o),
(167,252,cs),
(167,246,o),
(226,248,o),
(298,248,cs)
);
},
{
closed = 1;
nodes = (
(230,252,l),
(218,252,l),
(216,252,l),
(228,252,l)
);
},
{
closed = 1;
nodes = (
(298,252,l),
(298,252,l),
(296,252,l),
(296,252,l)
);
},
{
closed = 1;
nodes = (
(298,255,l),
(298,255,l),
(296,255,l),
(296,255,l)
);
},
{
closed = 1;
nodes = (
(367,253,l),
(381,253,l),
(379,253,l),
(365,253,l)
);
},
{
closed = 1;
nodes = (
(379,251,l),
(365,251,l),
(363,251,l),
(377,251,l)
);
},
{
closed = 1;
nodes = (
(219,250,l),
(233,250,l),
(231,250,l),
(217,250,l)
);
},
{
closed = 1;
nodes = (
(291,252,o),
(291,252,o),
(291,252,cs),
(291,252,o),
(291,252,o),
(291,252,cs),
(291,252,o),
(291,252,o),
(291,252,cs),
(291,252,o),
(291,252,o),
(291,252,cs)
);
}
);
width = 600;
},
{
layerId = "45082C4A-550E-4DA0-B494-F7E76CD90BF9";
shapes = (
{
closed = 1;
nodes = (
(387,704,o),
(413,611,o),
(440,520,cs),
(559,125,ls),
(576,66,o),
(523,-39,o),
(409,11,cs),
(357,34,o),
(294,52,o),
(198,12,cs),
(124,-19,o),
(-5,5,o),
(30,125,cs),
(145,516,ls),
(170,603,o),
(207,702,o),
(282,703,cs)
);
},
{
closed = 1;
nodes = (
(227,663,o),
(200,567,o),
(185,516,cs),
(70,125,ls),
(36,10,o),
(155,35,o),
(198,52,cs),
(255,75,o),
(319,85,o),
(409,51,cs),
(482,23,o),
(535,70,o),
(519,125,cs),
(400,520,ls),
(381,584,o),
(362,663,o),
(282,663,cs)
);
},
{
closed = 1;
nodes = (
(227,175,o),
(169,207,o),
(169,250,cs),
(169,292,o),
(227,330,o),
(298,330,cs),
(368,330,o),
(424,292,o),
(424,250,cs),
(424,207,o),
(368,175,o),
(298,175,cs)
);
},
{
closed = 1;
nodes = (
(279,208,o),
(260,229,o),
(260,250,cs),
(260,271,o),
(277,285,o),
(298,285,cs),
(319,285,o),
(336,271,o),
(336,250,cs),
(336,229,o),
(321,208,o),
(300,208,cs)
);
},
{
closed = 1;
nodes = (
(370,173,o),
(427,207,o),
(427,250,cs),
(427,293,o),
(370,332,o),
(298,332,cs),
(226,332,o),
(167,293,o),
(167,250,cs),
(167,207,o),
(226,173,o),
(298,173,cs)
);
},
{
closed = 1;
nodes = (
(223,315,l),
(211,340,l),
(209,339,l),
(221,314,l)
);
},
{
closed = 1;
nodes = (
(299,332,l),
(299,360,l),
(297,360,l),
(297,332,l)
);
},
{
closed = 1;
nodes = (
(299,145,l),
(299,173,l),
(297,173,l),
(297,145,l)
);
},
{
closed = 1;
nodes = (
(368,318,l),
(382,343,l),
(380,344,l),
(366,319,l)
);
},
{
closed = 1;
nodes = (
(381,161,l),
(367,185,l),
(365,184,l),
(379,160,l)
);
},
{
closed = 1;
nodes = (
(204,165,l),
(218,189,l),
(216,190,l),
(202,166,l)
);
},
{
closed = 1;
nodes = (
(294,256,o),
(294,256,o),
(294,256,cs),
(294,256,o),
(294,256,o),
(294,256,cs),
(294,256,o),
(294,256,o),
(294,256,cs),
(294,256,o),
(294,256,o),
(294,256,cs)
);
}
);
width = 600;
}
);
unicode = (65,97);
},
{
glyphname = B;
lastChange = "2025-10-03 19:49:08 +0000";
layers = (
{
backgroundImage = {
imagePath = "New Folder With Items/Images/B_-Regular.tif";
locked = 1;
pos = (19,-28);
scale = (11.2334,11.2334);
};
layerId = m01;
shapes = (
{
closed = 1;
nodes = (
(352,702,o),
(405,623,o),
(411,559,cs),
(416,522,o),
(405,458,o),
(359,439,c),
(458,436,o),
(549,384,o),
(543,248,cs),
(539,158,o),
(475,12,o),
(282,3,cs),
(158,-3,o),
(93,46,o),
(92,101,cs),
(92,597,ls),
(91,652,o),
(136,689,o),
(237,695,cs)
);
},
{
closed = 1;
nodes = (
(172,648,o),
(132,643,o),
(133,597,cs),
(133,101,ls),
(133,63,o),
(191,39,o),
(282,43,cs),
(434,50,o),
(502,188,o),
(503,248,cs),
(504,331,o),
(445,398,o),
(298,424,c),
(354,471,o),
(375,521,o),
(372,559,cs),
(365,617,o),
(304,662,o),
(237,655,cs)
);
},
{
closed = 1;
nodes = (
(233,525,o),
(233,525,o),
(233,525,cs),
(233,525,o),
(233,525,o),
(233,525,cs),
(233,525,o),
(233,525,o),
(233,525,cs),
(233,525,o),
(233,525,o),
(233,525,cs)
);
},
{
closed = 1;
nodes = (
(233,525,o),
(233,525,o),
(233,525,cs),
(233,525,o),
(233,525,o),
(233,525,cs),
(233,525,o),
(233,525,o),
(233,525,cs),
(233,525,o),
(233,525,o),
(233,525,cs)
);
},
{
closed = 1;
nodes = (
(240,507,o),
(254,505,o),
(262,511,cs),
(268,517,o),
(262,527,o),
(248,536,cs),
(234,544,o),
(220,547,o),
(214,541,cs),
(208,536,o),
(214,526,o),
(228,516,cs)
);
},
{
closed = 1;
nodes = (
(227,539,l),
(227,539,l),
(227,539,l),
(227,539,l)
);
},
{
closed = 1;
nodes = (
(241,528,l),
(241,528,l),
(241,528,l),
(241,528,l)
);
},
{
closed = 1;
nodes = (
(241,518,l),
(241,518,l),
(241,518,l),
(241,518,l)
);
},
{
closed = 1;
nodes = (
(253,521,l),
(253,521,l),
(253,521,l),
(253,521,l)
);
},
{
closed = 1;
nodes = (
(248,513,l),
(248,513,l),
(248,513,l),
(248,513,l)
);
},
{
closed = 1;
nodes = (
(226,527,l),
(226,527,l),
(226,527,l),
(226,527,l)
);
},
{
closed = 1;
nodes = (
(233,525,o),
(233,525,o),
(233,525,cs),
(233,525,o),
(233,525,o),
(233,525,cs),
(233,525,o),
(233,525,o),
(233,525,cs),
(233,525,o),
(233,525,o),
(233,525,cs)
);
},
{
closed = 1;
nodes = (
(293,218,o),
(293,218,o),
(293,218,cs),
(293,218,o),
(293,218,o),
(293,218,cs),
(293,218,o),
(293,218,o),
(293,218,cs),
(293,218,o),
(293,218,o),
(293,218,cs)
);
},
{
closed = 1;
nodes = (
(293,218,o),
(293,218,o),
(293,218,cs),
(293,218,o),
(293,218,o),
(293,218,cs),
(293,218,o),
(293,218,o),
(293,218,cs),
(293,218,o),
(293,218,o),
(293,218,cs)
);
},
{
closed = 1;
nodes = (
(281,179,o),
(323,187,o),
(331,193,cs),
(337,199,o),
(342,245,o),
(328,254,cs),
(314,262,o),
(272,253,o),
(266,247,cs),
(260,242,o),
(255,198,o),
(269,188,cs)
);
},
{
closed = 1;
nodes = (
(287,232,l),
(287,232,l),
(287,232,l),
(287,232,l)
);
},
{
closed = 1;
nodes = (
(301,221,l),
(301,221,l),
(301,221,l),
(301,221,l)
);
},
{
closed = 1;
nodes = (
(301,211,l),
(301,211,l),
(301,211,l),
(301,211,l)
);
},
{
closed = 1;
nodes = (
(313,214,l),
(313,214,l),
(313,214,l),
(313,214,l)
);
},
{
closed = 1;
nodes = (
(308,206,l),
(308,206,l),
(308,206,l),
(308,206,l)
);
},
{
closed = 1;
nodes = (
(286,220,l),
(286,220,l),
(286,220,l),
(286,220,l)
);
},
{
closed = 1;
nodes = (
(293,218,o),
(293,218,o),
(293,218,cs),
(293,218,o),
(293,218,o),
(293,218,cs),
(293,218,o),
(293,218,o),
(293,218,cs),
(293,218,o),
(293,218,o),
(293,218,cs)
);
}
);
width = 600;
},
{
layerId = "45082C4A-550E-4DA0-B494-F7E76CD90BF9";
shapes = (
{
closed = 1;
nodes = (
(352,702,o),
(405,623,o),
(411,559,cs),
(416,522,o),
(405,458,o),
(359,439,c),
(458,436,o),
(549,384,o),
(543,248,cs),
(539,158,o),
(475,12,o),
(282,3,cs),
(158,-3,o),
(93,46,o),
(92,101,cs),
(92,597,ls),
(91,652,o),
(136,689,o),
(237,695,cs)
);
},
{
closed = 1;
nodes = (
(172,648,o),
(132,643,o),
(133,597,cs),
(133,101,ls),
(133,63,o),
(191,39,o),
(282,43,cs),
(434,50,o),
(502,188,o),
(503,248,cs),
(504,331,o),
(445,398,o),
(298,424,c),
(354,471,o),
(375,521,o),
(372,559,cs),
(365,617,o),
(304,662,o),
(237,655,cs)
);
},
{
closed = 1;
nodes = (
(173,517,o),
(157,557,o),
(175,579,cs),
(193,600,o),
(237,594,o),
(272,565,cs),
(307,536,o),
(319,494,o),
(301,473,cs),
(283,451,o),
(242,459,o),
(207,488,cs)
);
},
{
closed = 1;
nodes = (
(219,521,o),
(211,531,o),
(220,541,cs),
(229,552,o),
(233,548,o),
(247,538,cs),
(257,531,o),
(267,520,o),
(258,509,cs),
(249,499,o),
(240,504,o),
(230,512,cs)
);
},
{
closed = 1;
nodes = (
(243,457,o),
(285,450,o),
(303,472,cs),
(321,493,o),
(308,536,o),
(273,566,cs),
(237,596,o),
(192,601,o),
(174,580,cs),
(156,558,o),
(171,517,o),
(207,487,cs)
);
},
{
closed = 1;
nodes = (
(229,589,l),
(233,606,l),
(232,606,l),
(228,589,l)
);
},
{
closed = 1;
nodes = (
(273,565,l),
(285,579,l),
(284,580,l),
(272,566,l)
);
},
{
closed = 1;
nodes = (
(196,473,l),
(208,487,l),
(206,488,l),
(195,474,l)
);
},
{
closed = 1;
nodes = (
(302,530,l),
(319,536,l),
(318,538,l),
(301,531,l)
);
},
{
closed = 1;
nodes = (
(243,447,l),
(246,464,l),
(245,465,l),
(242,447,l)
);
},
{
closed = 1;
nodes = (
(157,522,l),
(174,529,l),
(173,529,l),
(156,524,l)
);
},
{
closed = 1;
nodes = (
(240,530,o),
(240,530,o),
(240,530,cs),
(240,530,o),
(240,530,o),
(240,530,cs),
(240,530,o),
(240,530,o),
(240,530,cs),
(240,530,o),
(240,530,o),
(240,530,cs)
);
},
{
closed = 1;
nodes = (
(273,158,o),
(230,157,o),
(216,181,cs),
(202,205,o),
(223,245,o),
(262,268,cs),
(301,291,o),
(345,288,o),
(358,263,cs),
(373,239,o),
(351,203,o),
(312,180,cs)
);
},
{
closed = 1;
nodes = (
(291,198,o),
(273,199,o),
(267,211,cs),
(260,223,o),
(265,231,o),
(279,241,cs),
(289,248,o),
(303,248,o),
(310,235,cs),
(316,223,o),
(314,212,o),
(304,205,cs)
);
},
{
closed = 1;
nodes = (
(354,203,o),
(375,241,o),
(360,265,cs),
(347,289,o),
(302,292,o),
(261,269,cs),
(221,245,o),
(201,205,o),
(214,181,cs),
(229,156,o),
(273,156,o),
(313,180,cs)
);
},
{
closed = 1;
nodes = (
(225,235,l),
(210,245,l),
(210,244,l),
(224,235,l)
);
},
{
closed = 1;
nodes = (
(262,269,l),
(253,285,l),
(252,284,l),
(261,268,l)
);
},
{
closed = 1;
nodes = (
(323,165,l),
(314,181,l),
(312,179,l),
(321,164,l)
);
},
{
closed = 1;
nodes = (
(305,284,l),
(305,302,l),
(303,302,l),
(304,283,l)
);
},
{
closed = 1;
nodes = (
(363,200,l),
(348,209,l),
(347,208,l),
(363,199,l)
);
},
{
closed = 1;
nodes = (
(263,145,l),
(262,163,l),
(260,163,l),
(261,145,l)
);
},
{
closed = 1;
nodes = (
(284,226,o),
(284,226,o),
(284,226,cs),
(284,226,o),
(284,226,o),
(284,226,cs),
(284,226,o),
(284,226,o),
(284,226,cs),
(284,226,o),
(284,226,o),
(284,226,cs)
);
}
);
width = 600;
}
);
unicode = (66,98);
},
{
glyphname = C;
lastChange = "2025-10-03 19:49:08 +0000";
layers = (
{
backgroundImage = {
imagePath = "New Folder With Items/Images/C_-Regular.tif";
locked = 1;
pos = (-40,-64);
scale = (9.287,9.7255);
};
layerId = m01;
shapes = (
{
closed = 1;
nodes = (
(399,711,o),
(576,637,o),
(575,527,cs),
(576,417,o),
(484,396,o),
(484,390,cs),
(484,384,o),
(591,338,o),
(591,241,cs),
(591,82,o),
(429,-12,o),
(307,-12,cs),
(185,-12,o),
(90,73,o),
(50,160,cs),
(-10,288,o),
(-21,414,o),
(62,554,cs),
(99,618,o),
(158,697,o),
(308,706,cs)
);
},
{
closed = 1;
nodes = (
(213,662,o),
(137,604,o),
(102,542,cs),
(22,402,o),
(30,277,o),
(90,160,cs),
(126,89,o),
(207,28,o),
(307,28,cs),
(407,28,o),
(551,112,o),
(551,241,cs),
(551,330,o),
(445,382,o),
(445,390,cs),
(445,398,o),
(535,454,o),
(535,527,cs),
(535,600,o),
(399,669,o),
(308,666,cs)
);
},
{
closed = 1;
nodes = (
(248,382,o),
(248,382,o),
(248,382,cs),
(248,382,o),
(248,382,o),
(249,382,cs),
(249,382,o),
(249,382,o),
(249,382,cs),
(249,382,o),
(249,382,o),
(249,382,cs)
);
},
{
closed = 1;
nodes = (
(248,382,o),
(248,382,o),
(248,382,cs),
(248,382,o),
(248,382,o),
(249,382,cs),
(249,382,o),
(249,382,o),
(249,382,cs),
(249,382,o),
(249,382,o),
(249,382,cs)
);
},
{
closed = 1;
nodes = (
(276,378,o),
(289,376,o),
(289,382,cs),
(289,388,o),
(276,388,o),
(260,388,cs),
(246,388,o),
(239,388,o),
(239,382,cs),
(239,376,o),
(243,378,o),
(260,378,cs)
);
},
{
closed = 1;
nodes = (
(269,384,l),
(257,384,l),
(255,384,l),
(267,384,l)
);
},
{
closed = 1;
nodes = (
(245,382,l),
(245,382,l),
(243,382,l),
(243,382,l)
);
},
{
closed = 1;
nodes = (
(245,385,l),
(245,385,l),
(243,385,l),
(243,385,l)
);
},
{
closed = 1;
nodes = (
(254,383,l),
(268,383,l),
(266,383,l),
(252,383,l)
);
},
{
closed = 1;
nodes = (
(266,381,l),
(252,381,l),
(250,381,l),
(264,381,l)
);
},
{
closed = 1;
nodes = (
(258,382,l),
(272,382,l),
(270,382,l),
(256,382,l)
);
},
{
closed = 1;
nodes = (
(248,382,o),
(248,382,o),
(248,382,cs),
(248,382,o),
(248,382,o),
(248,382,cs),
(248,382,o),
(248,382,o),
(248,382,cs),
(248,382,o),
(248,382,o),
(248,382,cs)
);
}
);
width = 600;
},
{
layerId = "45082C4A-550E-4DA0-B494-F7E76CD90BF9";
shapes = (
{
closed = 1;
nodes = (
(399,711,o),
(576,637,o),
(575,527,cs),
(576,417,o),
(484,396,o),
(484,390,cs),
(484,384,o),
(591,338,o),
(591,241,cs),
(591,82,o),
(429,-12,o),
(307,-12,cs),
(185,-12,o),
(90,73,o),
(50,160,cs),
(-10,288,o),
(-21,414,o),
(62,554,cs),
(99,618,o),
(158,697,o),
(308,706,cs)
);
},
{
closed = 1;
nodes = (
(213,662,o),
(137,604,o),
(102,542,cs),
(22,402,o),
(30,277,o),
(90,160,cs),
(126,89,o),
(207,28,o),
(307,28,cs),
(407,28,o),
(551,112,o),
(551,241,cs),
(551,330,o),
(445,382,o),
(445,390,cs),
(445,398,o),
(535,454,o),
(535,527,cs),
(535,600,o),
(399,669,o),
(308,666,cs)
);
},
{
closed = 1;
nodes = (
(186,295,o),
(128,327,o),
(128,370,cs),
(128,412,o),
(186,450,o),
(257,450,cs),
(327,450,o),
(383,412,o),
(383,370,cs),
(383,327,o),
(327,295,o),
(257,295,cs)
);
},
{
closed = 1;
nodes = (
(238,328,o),
(219,349,o),
(219,370,cs),
(219,391,o),
(236,405,o),
(257,405,cs),
(278,405,o),
(295,391,o),
(295,370,cs),
(295,349,o),
(280,328,o),
(259,328,cs)
);
},
{
closed = 1;
nodes = (
(329,293,o),
(386,327,o),
(386,370,cs),
(386,413,o),
(329,452,o),
(257,452,cs),
(185,452,o),
(126,413,o),
(126,370,cs),
(126,327,o),
(185,293,o),
(257,293,cs)
);
},
{
closed = 1;
nodes = (
(182,435,l),
(170,460,l),
(168,459,l),
(180,434,l)
);
},
{
closed = 1;
nodes = (
(258,452,l),
(258,480,l),
(256,480,l),
(256,452,l)
);
},
{
closed = 1;
nodes = (
(258,265,l),
(258,293,l),
(256,293,l),
(256,265,l)
);
},
{
closed = 1;
nodes = (
(327,438,l),
(341,463,l),
(339,464,l),
(325,439,l)
);
},
{
closed = 1;
nodes = (
(340,281,l),
(326,305,l),
(324,304,l),
(338,280,l)
);
},
{
closed = 1;
nodes = (
(163,285,l),
(177,309,l),
(175,310,l),
(161,286,l)
);
},
{
closed = 1;
nodes = (
(253,376,o),
(253,376,o),
(253,376,cs),
(253,376,o),
(253,376,o),
(253,376,cs),
(253,376,o),
(253,376,o),
(253,376,cs),
(253,376,o),
(253,376,o),
(253,376,cs)
);
}
);
width = 600;
}
);
unicode = (67,99);
},
{
glyphname = D;
lastChange = "2025-10-03 19:49:08 +0000";
layers = (
{
backgroundImage = {
imagePath = "New Folder With Items/Images/D_-Regular.tif";
locked = 1;
scale = (4.3974,4.3974);
};
layerId = m01;
shapes = (
{
closed = 1;
nodes = (
(53,721,o),
(256,746,o),
(403,606,cs),
(587,430,o),
(594,256,o),
(424,94,cs),
(309,-15,o),
(53,-23,o),
(53,83,cs),
(53,598,ls)
);
},
{
closed = 1;
nodes = (
(92,83,ls),
(92,24,o),
(294,44,o),
(384,124,cs),
(568,288,o),
(511,429,o),
(361,572,cs),
(257,670,o),
(92,666,o),
(92,603,cs)
);
},
{
closed = 1;
nodes = (
(249,346,o),
(249,346,o),
(249,346,cs),
(249,346,o),
(249,346,o),
(250,346,cs),
(250,346,o),
(250,346,o),
(250,346,cs),
(250,346,o),
(250,346,o),
(250,346,cs)
);
},
{
closed = 1;
nodes = (
(249,346,o),
(249,346,o),
(249,346,cs),
(249,346,o),
(249,346,o),
(250,346,cs),
(250,346,o),
(250,346,o),
(250,346,cs),
(250,346,o),
(250,346,o),
(250,346,cs)
);
},
{
closed = 1;
nodes = (
(264,341,o),
(275,339,o),
(275,345,cs),
(275,351,o),
(264,351,o),
(250,351,cs),
(235,351,o),
(225,351,o),
(225,345,cs),
(225,339,o),
(235,341,o),
(250,341,cs)
);
},
{
closed = 1;
nodes = (
(237,348,l),
(236,348,l),
(236,348,l),
(237,348,l)
);
},
{
closed = 1;
nodes = (
(251,345,l),
(251,345,l),
(249,345,l),
(249,345,l)
);
},
{
closed = 1;
nodes = (
(251,348,l),
(251,348,l),
(249,348,l),
(249,348,l)
);
},
{
closed = 1;
nodes = (
(262,346,l),
(263,346,l),
(262,346,l),
(262,346,l)
);
},
{
closed = 1;
nodes = (
(262,344,l),
(262,344,l),
(262,344,l),
(262,344,l)
);
},
{
closed = 1;
nodes = (
(236,346,l),
(237,346,l),
(237,346,l),
(236,346,l)
);
},
{
closed = 1;
nodes = (
(249,346,o),
(249,346,o),
(249,346,cs),
(249,346,o),
(249,346,o),
(249,346,cs),
(249,346,o),
(249,346,o),
(249,346,cs),
(249,346,o),
(249,346,o),
(249,346,cs)
);
}
);
width = 600;
},
{
layerId = "45082C4A-550E-4DA0-B494-F7E76CD90BF9";
shapes = (
{
closed = 1;
nodes = (
(53,721,o),
(256,746,o),
(403,606,cs),
(587,430,o),
(594,256,o),
(424,94,cs),
(309,-15,o),
(53,-23,o),
(53,83,cs),
(53,598,ls)
);
},
{
closed = 1;
nodes = (
(92,83,ls),
(92,24,o),
(294,44,o),
(384,124,cs),
(568,288,o),
(511,429,o),
(361,572,cs),
(257,670,o),
(92,666,o),
(92,603,cs)
);
},
{
closed = 1;
nodes = (
(216,251,o),
(172,283,o),
(172,326,cs),
(172,368,o),
(216,406,o),
(271,406,cs),
(325,406,o),
(368,368,o),
(368,326,cs),
(368,283,o),
(325,251,o),
(271,251,cs)
);
},
{
closed = 1;
nodes = (
(256,284,o),
(242,305,o),
(242,326,cs),
(242,347,o),
(255,361,o),
(271,361,cs),
(287,361,o),
(300,347,o),
(300,326,cs),
(300,305,o),
(288,284,o),
(272,284,cs)
);
},
{
closed = 1;
nodes = (
(326,249,o),
(370,283,o),
(370,326,cs),
(370,369,o),
(326,408,o),
(271,408,cs),
(215,408,o),
(170,369,o),
(170,326,cs),
(170,283,o),
(215,249,o),
(271,249,cs)
);
},
{
closed = 1;
nodes = (
(213,391,l),
(204,416,l),
(202,415,l),
(212,390,l)
);
},
{
closed = 1;
nodes = (
(272,408,l),
(272,436,l),
(270,436,l),
(270,408,l)
);
},
{
closed = 1;
nodes = (
(272,221,l),
(272,249,l),
(270,249,l),
(270,221,l)
);
},
{
closed = 1;
nodes = (
(325,394,l),
(335,419,l),
(334,420,l),
(323,395,l)
);
},
{
closed = 1;
nodes = (
(335,237,l),
(324,261,l),
(322,260,l),
(333,236,l)
);
},
{
closed = 1;
nodes = (
(198,241,l),
(209,265,l),
(208,266,l),
(197,242,l)
);
},
{
closed = 1;
nodes = (
(268,332,o),
(268,332,o),
(268,332,cs),
(268,332,o),
(268,332,o),
(268,332,cs),
(268,332,o),
(268,332,o),
(268,332,cs),
(268,332,o),
(268,332,o),
(268,332,cs)
);
}
);
width = 600;
}
);
unicode = (68,100);
},
{
glyphname = E;
lastChange = "2025-10-03 19:49:08 +0000";
layers = (
{
backgroundImage = {
imagePath = "New Folder With Items/Images/E_-Regular.tif";
locked = 1;
pos = (0,-17);
scale = (12.4683,12.4683);
};
layerId = m01;
shapes = (
{
closed = 1;
nodes = (
(53,663,o),
(131,706,o),
(280,706,cs),
(450,706,o),
(521,659,o),
(521,570,cs),
(521,423,o),
(382,456,o),
(391,451,cs),
(450,418,o),
(468,344,o),
(383,312,cs),
(362,304,o),
(553,340,o),
(553,188,cs),
(553,85,o),
(468,-3,o),
(271,-3,cs),
(116,-3,o),
(42,51,o),
(42,108,c),
(53,576,l)
);
},
{
closed = 1;
nodes = (
(82,138,ls),
(82,94,o),
(148,37,o),
(271,37,cs),
(423,37,o),
(513,104,o),
(513,188,cs),
(513,287,o),
(288,285,o),
(343,312,cs),
(409,344,o),
(405,415,o),
(351,451,cs),
(317,474,o),
(481,476,o),
(481,570,cs),
(481,635,o),
(405,666,o),
(280,666,cs),
(153,666,o),
(93,626,o),
(93,546,cs)
);
},
{
closed = 1;
nodes = (
(224,237,o),
(224,237,o),
(224,237,cs),
(224,237,o),
(224,237,o),
(225,237,cs),
(225,237,o),
(225,237,o),
(225,237,cs),
(225,237,o),
(225,237,o),
(225,237,cs)
);
},
{
closed = 1;
nodes = (
(224,237,o),
(224,237,o),
(224,237,cs),
(224,237,o),
(224,237,o),
(225,237,cs),
(225,237,o),
(225,237,o),
(225,237,cs),
(225,237,o),
(225,237,o),
(225,237,cs)
);
},
{
closed = 1;
nodes = (
(239,232,o),
(250,230,o),
(250,236,cs),
(250,242,o),
(239,242,o),
(225,242,cs),
(210,242,o),
(200,242,o),
(200,236,cs),
(200,230,o),
(210,232,o),
(225,232,cs)
);
},
{
closed = 1;
nodes = (
(212,239,l),
(211,239,l),
(211,239,l),
(212,239,l)
);
},
{
closed = 1;
nodes = (
(226,236,l),
(226,236,l),
(224,236,l),
(224,236,l)
);
},
{
closed = 1;
nodes = (
(226,239,l),
(226,239,l),
(224,239,l),
(224,239,l)
);
},
{
closed = 1;
nodes = (
(237,237,l),
(238,237,l),
(237,237,l),
(237,237,l)
);
},
{
closed = 1;
nodes = (
(237,235,l),
(237,235,l),
(237,235,l),
(237,235,l)
);
},
{
closed = 1;
nodes = (
(211,237,l),
(212,237,l),
(212,237,l),
(211,237,l)
);
},
{
closed = 1;
nodes = (
(224,237,o),
(224,237,o),
(224,237,cs),
(224,237,o),
(224,237,o),
(224,237,cs),
(224,237,o),
(224,237,o),
(224,237,cs),
(224,237,o),
(224,237,o),
(224,237,cs)
);
},
{
closed = 1;
nodes = (
(232,496,o),
(232,496,o),
(232,496,cs),
(232,496,o),
(232,496,o),
(233,496,cs),
(233,496,o),
(233,496,o),
(233,496,cs),
(233,496,o),
(233,496,o),
(233,496,cs)
);
},
{
closed = 1;
nodes = (
(232,496,o),
(232,496,o),
(232,496,cs),
(232,496,o),
(232,496,o),
(233,496,cs),
(233,496,o),
(233,496,o),
(233,496,cs),
(233,496,o),
(233,496,o),
(233,496,cs)
);
},
{
closed = 1;
nodes = (
(246,491,o),
(257,489,o),
(257,495,cs),
(257,501,o),
(246,501,o),
(232,501,cs),
(217,501,o),
(207,501,o),
(207,495,cs),
(207,489,o),
(217,491,o),
(232,491,cs)
);
},
{
closed = 1;
nodes = (
(219,498,l),
(218,498,l),
(218,498,l),
(219,498,l)
);
},
{
closed = 1;
nodes = (
(233,495,l),
(233,495,l),
(231,495,l),
(231,495,l)
);
},
{
closed = 1;
nodes = (
(233,498,l),
(233,498,l),
(231,498,l),
(231,498,l)
);
},
{
closed = 1;
nodes = (
(244,496,l),
(245,496,l),
(244,496,l),
(244,496,l)
);
},
{
closed = 1;
nodes = (
(244,494,l),
(244,494,l),
(244,494,l),
(244,494,l)
);
},
{
closed = 1;
nodes = (
(218,496,l),
(219,496,l),
(219,496,l),
(218,496,l)
);
},
{
closed = 1;
nodes = (
(232,496,o),
(232,496,o),
(232,496,cs),
(232,496,o),
(232,496,o),
(232,496,cs),
(232,496,o),
(232,496,o),
(232,496,cs),
(232,496,o),
(232,496,o),
(232,496,cs)
);
}
);
width = 600;
},
{
layerId = "45082C4A-550E-4DA0-B494-F7E76CD90BF9";
shapes = (
{
closed = 1;
nodes = (
(53,663,o),
(131,706,o),
(280,706,cs),
(450,706,o),
(521,659,o),
(521,570,cs),
(521,423,o),
(382,456,o),
(391,451,cs),
(450,418,o),
(468,344,o),
(383,312,cs),
(362,304,o),
(553,340,o),
(553,188,cs),
(553,85,o),
(468,-3,o),
(271,-3,cs),
(116,-3,o),
(42,51,o),
(42,108,c),
(53,576,l)
);
},
{
closed = 1;
nodes = (
(82,138,ls),
(82,94,o),
(148,37,o),
(271,37,cs),
(423,37,o),
(513,104,o),
(513,188,cs),
(513,287,o),
(288,285,o),
(343,312,cs),
(409,344,o),
(405,415,o),
(351,451,cs),
(317,474,o),
(481,476,o),
(481,570,cs),
(481,635,o),
(405,666,o),
(280,666,cs),
(153,666,o),
(93,626,o),
(93,546,cs)
);
},
{
closed = 1;
nodes = (
(193,182,o),
(168,204,o),
(168,233,cs),
(168,261,o),
(193,287,o),
(230,287,cs),
(266,287,o),
(289,261,o),
(289,233,cs),
(289,204,o),
(266,182,o),
(230,182,cs)
);
},
{
closed = 1;
nodes = (
(220,204,o),
(210,219,o),
(210,233,cs),
(210,247,o),
(219,256,o),
(230,256,cs),
(241,256,o),
(249,247,o),
(249,233,cs),
(249,219,o),
(241,204,o),
(231,204,cs)
);
},
{
closed = 1;
nodes = (
(267,181,o),
(297,204,o),
(297,233,cs),
(297,262,o),
(267,288,o),
(230,288,cs),
(192,288,o),
(162,262,o),
(162,233,cs),
(162,204,o),
(192,181,o),
(230,181,cs)
);
},
{
closed = 1;
nodes = (
(191,276,l),
(185,293,l),
(184,293,l),
(190,276,l)
);
},
{
closed = 1;
nodes = (
(231,288,l),
(231,307,l),
(229,307,l),
(229,288,l)
);
},
{
closed = 1;
nodes = (
(231,162,l),
(231,181,l),
(229,181,l),
(229,162,l)
);
},
{
closed = 1;
nodes = (
(266,278,l),
(273,295,l),
(272,296,l),
(265,279,l)
);
},
{
closed = 1;
nodes = (
(273,173,l),
(266,189,l),
(264,188,l),
(272,172,l)
);
},
{
closed = 1;
nodes = (
(181,175,l),
(188,192,l),
(188,192,l),
(180,176,l)
);
},
{
closed = 1;
nodes = (
(228,237,o),
(228,237,o),
(228,237,cs),
(228,237,o),
(228,237,o),
(228,237,cs),
(228,237,o),
(228,237,o),
(228,237,cs),
(228,237,o),
(228,237,o),
(228,237,cs)
);
},
{
closed = 1;
nodes = (
(197,454,o),
(169,469,o),
(169,496,cs),
(169,523,o),
(197,540,o),
(233,540,cs),
(267,540,o),
(295,523,o),
(295,496,cs),
(295,469,o),
(267,454,o),
(233,454,cs)
);
},
{
closed = 1;
nodes = (
(223,469,o),
(214,483,o),
(214,496,cs),
(214,510,o),
(222,519,o),
(233,519,cs),
(243,519,o),
(251,510,o),
(251,496,cs),
(251,483,o),
(244,469,o),
(233,469,cs)
);
},
{
closed = 1;
nodes = (
(268,447,o),
(296,469,o),
(296,496,cs),
(296,524,o),
(268,549,o),
(233,549,cs),
(197,549,o),
(168,524,o),
(168,496,cs),
(168,469,o),
(197,447,o),
(233,447,cs)
);
},
{
closed = 1;
nodes = (
(196,538,l),
(190,554,l),
(188,553,l),
(195,537,l)
);
},
{
closed = 1;
nodes = (
(233,549,l),
(233,567,l),
(232,567,l),
(232,549,l)
);
},
{
closed = 1;
nodes = (
(233,429,l),
(233,447,l),
(232,447,l),
(232,429,l)
);
},
{
closed = 1;
nodes = (
(267,540,l),
(274,556,l),
(273,556,l),
(266,540,l)
);
},
{
closed = 1;
nodes = (
(274,439,l),
(267,455,l),
(265,454,l),
(272,439,l)
);
},
{
closed = 1;
nodes = (
(186,442,l),
(193,457,l),
(192,458,l),
(185,442,l)
);
},
{
closed = 1;
nodes = (
(231,500,o),
(231,500,o),
(231,500,cs),
(231,500,o),
(231,500,o),
(231,500,cs),
(231,500,o),
(231,500,o),
(231,500,cs),
(231,500,o),
(231,500,o),
(231,500,cs)
);
}
);
width = 600;
}
);
unicode = (69,101);
},
{
glyphname = F;
lastChange = "2025-10-03 19:49:08 +0000";
layers = (
{
backgroundImage = {
imagePath = "New Folder With Items/Images/F_-Regular.tif";
locked = 1;
pos = (-13,-58);
scale = (10.4476,10.8097);
};
layerId = m01;
shapes = (
{
closed = 1;
nodes = (
(94,676,o),
(48,637,o),
(48,558,c),
(31,201,l),
(31,112,o),
(31,189,o),
(31,100,cs),
(31,31,o),
(57,14,o),
(167,14,cs),
(209,14,o),
(289,11,o),
(289,86,cs),
(289,183,ls),
(289,211,o),
(306,210,o),
(391,210,cs),
(426,210,o),
(488,282,o),
(488,328,cs),
(488,386,o),
(455,411,o),
(455,411,cs),
(465,410,o),
(565,470,o),
(565,531,cs),
(565,624,o),
(476,676,o),
(429,676,cs),
(187,676,l)
);
},
{
closed = 1;
nodes = (
(423,644,ls),
(454,644,o),
(520,592,o),
(520,537,cs),
(520,483,o),
(394,417,o),
(388,417,cs),
(387,417,o),
(442,391,o),
(442,328,cs),
(442,301,o),
(400,244,o),
(368,244,cs),
(258,244,o),
(253,224,o),
(253,183,cs),
(253,86,ls),
(253,31,o),
(169,39,o),
(167,39,cs),
(84,39,o),
(61,49,o),
(61,94,cs),
(61,171,o),
(61,133,o),
(61,210,c),
(80,556,l),
(80,615,o),
(119,645,o),
(196,645,c)
);
},
{
closed = 1;
nodes = (
(250,412,o),
(250,412,o),
(250,412,cs),
(250,412,o),
(250,412,o),
(251,412,cs),
(251,412,o),
(251,412,o),
(251,412,cs),
(251,412,o),
(251,412,o),
(251,412,cs)
);
},
{
closed = 1;
nodes = (
(250,412,o),
(250,412,o),
(250,412,cs),
(250,412,o),
(250,412,o),
(251,412,cs),
(251,412,o),
(251,412,o),
(251,412,cs),
(251,412,o),
(251,412,o),
(251,412,cs)
);
},
{
closed = 1;
nodes = (
(266,407,o),
(279,405,o),
(279,411,cs),
(279,417,o),
(266,417,o),
(250,417,cs),
(236,417,o),
(229,417,o),
(229,411,cs),
(229,405,o),
(233,407,o),
(250,407,cs)
);
},
{
closed = 1;
nodes = (
(259,413,l),
(247,413,l),
(245,413,l),
(257,413,l)
);
},
{
closed = 1;
nodes = (
(235,411,l),
(235,411,l),
(233,411,l),
(233,411,l)
);
},
{
closed = 1;
nodes = (
(235,414,l),
(235,414,l),
(233,414,l),
(233,414,l)
);
},
{
closed = 1;
nodes = (
(244,412,l),
(258,412,l),
(256,412,l),
(242,412,l)
);
},
{
closed = 1;
nodes = (
(256,410,l),
(242,410,l),
(240,410,l),
(254,410,l)
);
},
{
closed = 1;
nodes = (
(248,411,l),
(262,411,l),
(260,411,l),
(246,411,l)
);
},
{
closed = 1;
nodes = (
(250,412,o),
(250,412,o),
(250,412,cs),
(250,412,o),
(250,412,o),
(250,412,cs),
(250,412,o),
(250,412,o),
(250,412,cs),
(250,412,o),
(250,412,o),
(250,412,cs)
);
}
);
width = 600;
},
{
layerId = "45082C4A-550E-4DA0-B494-F7E76CD90BF9";
shapes = (
{
closed = 1;
nodes = (
(94,676,o),
(48,637,o),
(48,558,c),
(31,201,l),
(31,112,o),
(31,189,o),
(31,100,cs),
(31,31,o),
(57,14,o),
(167,14,cs),
(209,14,o),
(289,11,o),
(289,86,cs),
(289,183,ls),
(289,211,o),
(306,210,o),
(391,210,cs),
(426,210,o),
(488,282,o),
(488,328,cs),
(488,386,o),
(455,411,o),
(455,411,cs),
(465,410,o),
(565,470,o),
(565,531,cs),
(565,624,o),
(476,676,o),
(429,676,cs),
(187,676,l)
);
},
{
closed = 1;
nodes = (
(423,644,ls),
(454,644,o),
(520,592,o),
(520,537,cs),
(520,483,o),
(394,417,o),
(388,417,cs),
(387,417,o),
(442,391,o),
(442,328,cs),
(442,301,o),
(400,244,o),
(368,244,cs),
(258,244,o),
(253,224,o),
(253,183,cs),
(253,86,ls),
(253,31,o),
(169,39,o),
(167,39,cs),
(84,39,o),
(61,49,o),
(61,94,cs),
(61,171,o),
(61,133,o),
(61,210,c),
(80,556,l),
(80,615,o),
(119,645,o),
(196,645,c)
);
},
{
closed = 1;
nodes = (
(169,335,o),
(111,367,o),
(111,410,cs),
(111,452,o),
(170,471,o),
(241,471,cs),
(311,471,o),
(366,452,o),
(366,410,cs),
(366,367,o),
(310,335,o),
(240,335,cs)
);
},
{
closed = 1;
nodes = (
(221,368,o),
(202,389,o),
(202,410,cs),
(202,431,o),
(219,423,o),
(240,423,cs),
(261,423,o),
(278,431,o),
(278,410,cs),
(278,389,o),
(263,368,o),
(242,368,cs)
);
},
{
closed = 1;
nodes = (
(312,333,o),
(369,367,o),
(369,410,cs),
(369,453,o),
(312,492,o),
(240,492,cs),
(168,492,o),
(109,453,o),
(109,410,cs),
(109,367,o),
(168,333,o),
(240,333,cs)
);
},
{
closed = 1;
nodes = (
(165,475,l),
(153,500,l),
(151,499,l),
(163,474,l)
);
},
{
closed = 1;
nodes = (
(241,492,l),
(241,520,l),
(239,520,l),
(239,492,l)
);
},
{
closed = 1;
nodes = (
(241,305,l),
(241,333,l),
(239,333,l),
(239,305,l)
);
},
{
closed = 1;
nodes = (
(310,478,l),
(324,503,l),
(322,504,l),
(308,479,l)
);
},
{
closed = 1;
nodes = (
(323,321,l),
(309,345,l),
(307,344,l),
(321,320,l)
);
},
{
closed = 1;
nodes = (
(146,325,l),
(160,349,l),
(158,350,l),
(144,326,l)
);
},
{
closed = 1;
nodes = (
(236,416,o),
(236,416,o),
(236,416,cs),
(236,416,o),
(236,416,o),
(236,416,cs),
(236,416,o),
(236,416,o),
(236,416,cs),
(236,416,o),
(236,416,o),
(236,416,cs)
);
}
);
width = 600;
}
);
unicode = (70,102);
},
{
glyphname = G;
lastChange = "2025-10-03 19:49:08 +0000";
layers = (
{
backgroundImage = {
imagePath = "New Folder With Items/Images/G_-Regular.tif";
locked = 1;
pos = (-11,-51);
scale = (10.9292,10.9292);
};
layerId = m01;
shapes = (
{
closed = 1;
nodes = (
(418,691,o),
(487,623,o),
(507,556,cs),
(524,498,o),
(486,431,o),
(476,426,cs),
(464,420,o),
(560,402,o),
(581,351,cs),
(597,312,o),
(595,270,o),
(587,231,cs),
(576,176,o),
(520,100,o),
(492,77,cs),
(460,50,o),
(380,0,o),
(257,0,cs),
(176,0,o),
(92,64,o),
(47,128,cs),
(-19,222,o),
(15,363,o),
(27,413,cs),
(63,563,o),
(155,676,o),
(248,681,cs)
);
},
{
closed = 1;
nodes = (
(166,634,o),
(92,528,o),
(63,385,cs),
(44,290,o),
(40,205,o),
(82,142,cs),
(113,95,o),
(183,35,o),
(257,34,cs),
(395,33,o),
(451,90,o),
(473,106,cs),
(487,116,o),
(529,157,o),
(549,226,cs),
(558,257,o),
(568,312,o),
(549,341,cs),
(526,377,o),
(477,395,o),
(423,417,cs),
(418,419,o),
(496,496,o),
(460,557,cs),
(414,636,o),
(360,643,o),
(275,639,cs)
);
},
{
closed = 1;
nodes = (
(250,346,o),
(250,346,o),
(250,346,cs),
(250,346,o),
(250,346,o),
(251,346,cs),
(251,346,o),
(251,346,o),
(251,346,cs),
(251,346,o),
(251,346,o),
(251,346,cs)
);
},
{
closed = 1;
nodes = (
(250,346,o),
(250,346,o),
(250,346,cs),
(250,346,o),
(250,346,o),
(251,346,cs),
(251,346,o),
(251,346,o),
(251,346,cs),
(251,346,o),
(251,346,o),
(251,346,cs)
);
},
{
closed = 1;
nodes = (
(264,341,o),
(275,339,o),
(275,345,cs),
(275,351,o),
(264,351,o),
(250,351,cs),
(235,351,o),
(225,351,o),
(225,345,cs),
(225,339,o),
(235,341,o),
(250,341,cs)
);
},
{
closed = 1;
nodes = (
(237,348,l),
(236,348,l),
(236,348,l),
(237,348,l)
);
},
{
closed = 1;
nodes = (
(251,345,l),
(251,345,l),
(249,345,l),
(249,345,l)
);
},
{
closed = 1;
nodes = (
(251,348,l),
(251,348,l),
(249,348,l),
(249,348,l)
);
},
{
closed = 1;
nodes = (
(262,346,l),
(263,346,l),
(262,346,l),
(262,346,l)
);
},
{
closed = 1;
nodes = (
(262,344,l),
(262,344,l),
(262,344,l),
(262,344,l)
);
},
{
closed = 1;
nodes = (
(236,346,l),
(237,346,l),
(237,346,l),
(236,346,l)
);
},
{
closed = 1;
nodes = (
(250,346,o),
(250,346,o),
(250,346,cs),
(250,346,o),
(250,346,o),
(250,346,cs),
(250,346,o),
(250,346,o),
(250,346,cs),
(250,346,o),
(250,346,o),
(250,346,cs)
);
}
);
width = 600;
},
{
layerId = "45082C4A-550E-4DA0-B494-F7E76CD90BF9";
shapes = (
{
closed = 1;
nodes = (
(418,691,o),
(487,623,o),
(507,556,cs),
(524,498,o),
(486,431,o),
(476,426,cs),
(464,420,o),
(560,402,o),
(581,351,cs),
(597,312,o),
(595,270,o),
(587,231,cs),
(576,176,o),
(520,100,o),
(492,77,cs),
(460,50,o),
(380,0,o),
(257,0,cs),
(176,0,o),
(92,64,o),
(47,128,cs),
(-19,222,o),
(15,363,o),
(27,413,cs),
(63,563,o),
(155,676,o),
(248,681,cs)
);
},
{
closed = 1;
nodes = (
(166,634,o),
(92,528,o),
(63,385,cs),
(44,290,o),
(40,205,o),
(82,142,cs),
(113,95,o),
(183,35,o),
(257,34,cs),
(395,33,o),
(451,90,o),
(473,106,cs),
(487,116,o),
(529,157,o),
(549,226,cs),
(558,257,o),
(568,312,o),
(549,341,cs),
(526,377,o),
(477,395,o),
(423,417,cs),
(418,419,o),
(496,496,o),
(460,557,cs),
(414,636,o),
(360,643,o),
(275,639,cs)
);
},
{
closed = 1;
nodes = (
(246,237,o),
(194,252,o),
(179,293,cs),
(164,332,o),
(193,383,o),
(245,402,cs),
(295,420,o),
(349,399,o),
(363,360,cs),
(378,319,o),
(348,274,o),
(298,256,cs)
);
},
{
closed = 1;
nodes = (
(272,282,o),
(252,297,o),
(245,317,cs),
(237,336,o),
(245,354,o),
(260,359,cs),
(275,365,o),
(292,356,o),
(299,336,cs),
(306,317,o),
(302,293,o),
(287,287,cs)
);
},
{
closed = 1;
nodes = (
(350,273,o),
(380,320,o),
(365,360,cs),
(350,401,o),
(296,422,o),
(244,404,cs),
(191,384,o),
(162,332,o),
(177,292,cs),
(192,252,o),
(246,235,o),
(298,254,cs)
);
},
{
closed = 1;
nodes = (
(195,368,l),
(178,388,l),
(177,387,l),
(195,366,l)
);
},
{
closed = 1;
nodes = (
(245,404,l),
(235,430,l),
(233,430,l),
(243,403,l)
);
},
{
closed = 1;
nodes = (
(309,228,l),
(299,254,l),
(297,254,l),
(307,227,l)
);
},
{
closed = 1;
nodes = (
(299,409,l),
(300,436,l),
(299,436,l),
(297,409,l)
);
},
{
closed = 1;
nodes = (
(362,265,l),
(344,284,l),
(342,282,l),
(361,263,l)
);
},
{
closed = 1;
nodes = (
(232,222,l),
(234,248,l),
(233,249,l),
(231,222,l)
);
},
{
closed = 1;
nodes = (
(267,331,o),
(267,331,o),
(267,331,cs),
(267,331,o),
(267,331,o),
(267,331,cs),
(267,331,o),
(267,331,o),
(267,331,cs),
(267,331,o),
(267,331,o),
(267,331,cs)
);
}
);
width = 600;
}
);
unicode = (71,103);
},
{
glyphname = H;
lastChange = "2025-10-03 19:49:08 +0000";
layers = (
{
backgroundImage = {
angle = -7.12302;
imagePath = "New Folder With Items/Images/H_-Regular.tif";
locked = 1;
pos = (-46,15);
scale = (3.0708,3.3626);
};
layerId = m01;
shapes = (
{
closed = 1;
nodes = (
(158,721,o),
(229,721,o),
(319,678,cs),
(344,666,l),
(380,681,ls),
(433,703,o),
(514,677,o),
(530,636,cs),
(626,394,o),
(575,127,o),
(500,57,cs),
(430,-8,o),
(364,11,o),
(341,28,cs),
(319,45,o),
(324,71,o),
(293,71,c),
(264,71,o),
(276,45,o),
(230,19,cs),
(195,-1,o),
(138,3,o),
(100,30,cs),
(-17,115,o),
(-17,433,o),
(115,651,cs)
);
},
{
closed = 1;
nodes = (
(56,464,o),
(31,159,o),
(122,77,cs),
(151,51,o),
(179,41,o),
(214,56,cs),
(239,67,o),
(244,109,o),
(294,109,c),
(341,109,o),
(344,79,o),
(362,59,cs),
(394,23,o),
(438,60,o),
(473,97,cs),
(485,110,o),
(609,357,o),
(485,602,cs),
(465,641,o),
(415,643,o),
(377,635,cs),
(341,628,l),
(289,649,ls),
(220,677,o),
(179,677,o),
(139,608,cs)
);
},
{
closed = 1;
nodes = (
(295,312,o),
(295,312,o),
(295,312,cs),
(295,312,o),
(295,312,o),
(296,312,cs),
(296,312,o),
(296,312,o),
(296,312,cs),
(296,312,o),
(296,312,o),
(296,312,cs)
);
},
{
closed = 1;
nodes = (
(295,312,o),
(295,312,o),
(295,312,cs),
(295,312,o),
(295,312,o),
(296,312,cs),
(296,312,o),
(296,312,o),
(296,312,cs),
(296,312,o),
(296,312,o),
(296,312,cs)
);
},
{
closed = 1;
nodes = (
(310,307,o),
(323,305,o),
(323,311,cs),
(323,317,o),
(310,317,o),
(294,317,cs),
(280,317,o),
(273,317,o),
(273,311,cs),
(273,305,o),
(277,307,o),
(294,307,cs)
);
},
{
closed = 1;
nodes = (
(303,313,l),
(291,313,l),
(289,313,l),
(301,313,l)
);
},
{
closed = 1;
nodes = (
(279,311,l),
(279,311,l),
(277,311,l),
(277,311,l)
);
},
{
closed = 1;
nodes = (
(279,314,l),
(279,314,l),
(277,314,l),
(277,314,l)
);
},
{
closed = 1;
nodes = (
(288,312,l),
(302,312,l),
(300,312,l),
(286,312,l)
);
},
{
closed = 1;
nodes = (
(300,310,l),
(286,310,l),
(284,310,l),
(298,310,l)
);
},
{
closed = 1;
nodes = (
(292,311,l),
(306,311,l),
(304,311,l),
(290,311,l)
);
},
{
closed = 1;
nodes = (
(295,312,o),
(295,312,o),
(295,312,cs),
(295,312,o),
(295,312,o),
(295,312,cs),
(295,312,o),
(295,312,o),
(295,312,cs),
(295,312,o),
(295,312,o),
(295,312,cs)
);
}
);
width = 600;
},
{
layerId = "45082C4A-550E-4DA0-B494-F7E76CD90BF9";
shapes = (
{
closed = 1;
nodes = (
(158,721,o),
(229,721,o),
(319,678,cs),
(344,666,l),
(380,681,ls),
(433,703,o),
(514,677,o),
(530,636,cs),
(626,394,o),
(575,127,o),
(500,57,cs),
(430,-8,o),
(364,11,o),
(341,28,cs),
(319,45,o),
(324,71,o),
(293,71,c),
(264,71,o),
(276,45,o),
(230,19,cs),
(195,-1,o),
(138,3,o),
(100,30,cs),
(-17,115,o),
(-17,433,o),
(115,651,cs)
);
},
{
closed = 1;
nodes = (
(56,464,o),
(31,159,o),
(122,77,cs),
(151,51,o),
(179,41,o),
(214,56,cs),
(239,67,o),
(244,109,o),
(294,109,c),
(341,109,o),
(344,79,o),
(362,59,cs),
(394,23,o),
(438,60,o),
(473,97,cs),
(485,110,o),
(609,357,o),
(485,602,cs),
(465,641,o),
(415,643,o),
(377,635,cs),
(341,628,l),
(289,649,ls),
(220,677,o),
(179,677,o),
(139,608,cs)
);
},
{
closed = 1;
nodes = (
(235,212,o),
(209,244,o),
(209,287,cs),
(209,329,o),
(235,367,o),
(306,367,cs),
(376,367,o),
(410,329,o),
(410,287,cs),
(410,244,o),
(376,212,o),
(306,212,cs)
);
},
{
closed = 1;
nodes = (
(287,245,o),
(251,266,o),
(251,287,cs),
(251,308,o),
(285,322,o),
(306,322,cs),
(327,322,o),
(367,308,o),
(367,287,cs),
(367,266,o),
(329,245,o),
(308,245,cs)
);
},
{
closed = 1;
nodes = (
(378,210,o),
(435,244,o),
(435,287,cs),
(435,330,o),
(378,369,o),
(306,369,cs),
(234,369,o),
(175,330,o),
(175,287,cs),
(175,244,o),
(234,210,o),
(306,210,cs)
);
},
{
closed = 1;
nodes = (
(231,352,l),
(219,377,l),
(217,376,l),
(229,351,l)
);
},
{
closed = 1;
nodes = (
(307,369,l),
(307,397,l),
(305,397,l),
(305,369,l)
);
},
{
closed = 1;
nodes = (
(307,182,l),
(307,210,l),
(305,210,l),
(305,182,l)
);
},
{
closed = 1;
nodes = (
(376,355,l),
(390,380,l),
(388,381,l),
(374,356,l)
);
},
{
closed = 1;
nodes = (
(389,198,l),
(375,222,l),
(373,221,l),
(387,197,l)
);
},
{
closed = 1;
nodes = (
(212,202,l),
(226,226,l),
(224,227,l),
(210,203,l)
);
},
{
closed = 1;
nodes = (
(302,293,o),
(302,293,o),
(302,293,cs),
(302,293,o),
(302,293,o),
(302,293,cs),
(302,293,o),
(302,293,o),
(302,293,cs),
(302,293,o),
(302,293,o),
(302,293,cs)
);
}
);
width = 600;
}
);
unicode = (72,104);
},
{
glyphname = I;
lastChange = "2025-10-03 19:49:08 +0000";
layers = (
{
backgroundImage = {
imagePath = "New Folder With Items/Images/I_-Regular.tif";
locked = 1;
pos = (13,-32);
scale = (5.6954,5.9471);
};
layerId = m01;
shapes = (
{
closed = 1;
nodes = (
(235,721,o),
(352,709,o),
(400,700,cs),
(536,675,o),
(549,579,o),
(549,556,cs),
(549,460,o),
(519,444,o),
(463,430,cs),
(438,424,o),
(423,416,o),
(429,407,cs),
(448,379,o),
(445,306,o),
(418,288,cs),
(414,285,o),
(554,281,o),
(554,150,cs),
(554,59,o),
(490,0,o),
(393,0,cs),
(184,0,ls),
(111,0,o),
(24,57,o),
(24,133,cs),
(24,240,o),
(158,274,o),
(153,279,cs),
(118,311,o),
(135,385,o),
(147,407,cs),
(154,420,o),
(119,422,o),
(105,427,cs),
(56,444,o),
(17,516,o),
(17,561,cs),
(17,611,o),
(66,679,o),
(142,698,cs)
);
},
{
closed = 1;
nodes = (
(106,664,o),
(55,606,o),
(55,553,cs),
(55,492,o),
(94,468,o),
(117,458,cs),
(135,450,o),
(200,438,o),
(184,407,cs),
(166,373,o),
(150,324,o),
(184,275,cs),
(200,252,o),
(59,231,o),
(59,141,cs),
(59,74,o),
(132,25,o),
(185,25,cs),
(395,25,ls),
(415,25,o),
(529,51,o),
(529,150,cs),
(529,265,o),
(374,266,o),
(368,277,cs),
(364,284,o),
(435,323,o),
(395,410,cs),
(384,434,o),
(425,450,o),
(447,458,cs),
(482,471,o),
(517,465,o),
(521,555,cs),
(522,588,o),
(497,642,o),
(394,671,cs),
(311,694,o),
(215,687,o),
(154,674,cs)
);
},
{
closed = 1;
nodes = (
(270,419,o),
(270,419,o),
(270,419,cs),
(270,419,o),
(270,419,o),
(271,419,cs),
(271,419,o),
(271,419,o),
(271,419,cs),
(271,419,o),
(271,419,o),
(271,419,cs)
);
},
{
closed = 1;
nodes = (
(270,419,o),
(270,419,o),
(270,419,cs),
(270,419,o),
(270,419,o),
(271,419,cs),
(271,419,o),
(271,419,o),
(271,419,cs),
(271,419,o),
(271,419,o),
(271,419,cs)
);
},
{
closed = 1;
nodes = (
(297,415,o),
(310,413,o),
(310,419,cs),
(310,425,o),
(297,425,o),
(281,425,cs),
(267,425,o),
(260,425,o),
(260,419,cs),
(260,413,o),
(264,415,o),
(281,415,cs)
);
},
{
closed = 1;
nodes = (
(290,421,l),
(278,421,l),
(276,421,l),
(288,421,l)
);
},
{
closed = 1;
nodes = (
(266,419,l),
(266,419,l),
(264,419,l),
(264,419,l)
);
},
{
closed = 1;
nodes = (
(266,422,l),
(266,422,l),
(264,422,l),
(264,422,l)
);
},
{
closed = 1;
nodes = (
(275,420,l),
(289,420,l),
(287,420,l),
(273,420,l)
);
},
{
closed = 1;
nodes = (
(287,418,l),
(273,418,l),
(271,418,l),
(285,418,l)
);
},
{
closed = 1;
nodes = (
(279,419,l),
(293,419,l),
(291,419,l),
(277,419,l)
);
},
{
closed = 1;
nodes = (
(270,419,o),
(270,419,o),
(270,419,cs),
(270,419,o),
(270,419,o),
(270,419,cs),
(270,419,o),
(270,419,o),
(270,419,cs),
(270,419,o),
(270,419,o),
(270,419,cs)
);
},
{
closed = 1;
nodes = (
(273,241,o),
(273,241,o),
(273,241,cs),
(273,241,o),
(273,241,o),
(274,241,cs),
(274,241,o),
(274,241,o),
(274,241,cs),
(274,241,o),
(274,241,o),
(274,241,cs)
);
},
{
closed = 1;
nodes = (
(273,241,o),
(273,241,o),
(273,241,cs),
(273,241,o),
(273,241,o),
(274,241,cs),
(274,241,o),
(274,241,o),
(274,241,cs),
(274,241,o),
(274,241,o),
(274,241,cs)
);
},
{
closed = 1;
nodes = (
(300,237,o),
(313,235,o),
(313,241,cs),
(313,247,o),
(300,247,o),
(284,247,cs),
(270,247,o),
(263,247,o),
(263,241,cs),
(263,235,o),
(267,237,o),
(284,237,cs)
);
},
{
closed = 1;
nodes = (
(293,243,l),
(281,243,l),
(279,243,l),
(291,243,l)
);
},
{
closed = 1;
nodes = (
(269,241,l),
(269,241,l),
(267,241,l),
(267,241,l)
);
},
{
closed = 1;
nodes = (
(269,244,l),
(269,244,l),
(267,244,l),
(267,244,l)
);
},
{
closed = 1;
nodes = (
(278,242,l),
(292,242,l),
(290,242,l),
(276,242,l)
);
},
{
closed = 1;
nodes = (
(290,240,l),
(276,240,l),
(274,240,l),
(288,240,l)
);
},
{
closed = 1;
nodes = (
(282,241,l),
(296,241,l),
(294,241,l),
(280,241,l)
);
},
{
closed = 1;
nodes = (
(273,241,o),
(273,241,o),
(273,241,cs),
(273,241,o),
(273,241,o),
(273,241,cs),
(273,241,o),
(273,241,o),
(273,241,cs),
(273,241,o),
(273,241,o),
(273,241,cs)
);
}
);
width = 600;
},
{
layerId = "45082C4A-550E-4DA0-B494-F7E76CD90BF9";
shapes = (
{
closed = 1;
nodes = (
(235,721,o),
(352,709,o),
(400,700,cs),
(536,675,o),
(549,579,o),
(549,556,cs),
(549,460,o),
(519,444,o),
(463,430,cs),
(438,424,o),
(423,416,o),
(429,407,cs),
(448,379,o),
(445,306,o),
(418,288,cs),
(414,285,o),
(554,281,o),
(554,150,cs),
(554,59,o),
(490,0,o),
(393,0,cs),
(184,0,ls),
(111,0,o),
(24,57,o),
(24,133,cs),
(24,240,o),
(158,274,o),
(153,279,cs),
(118,311,o),
(135,385,o),
(147,407,cs),
(154,420,o),
(119,422,o),
(105,427,cs),
(56,444,o),
(17,516,o),
(17,561,cs),
(17,611,o),
(66,679,o),
(142,698,cs)
);
},
{
closed = 1;
nodes = (
(106,664,o),
(55,606,o),
(55,553,cs),
(55,492,o),
(94,468,o),
(117,458,cs),
(135,450,o),
(200,438,o),
(184,407,cs),
(166,373,o),
(150,324,o),
(184,275,cs),
(200,252,o),
(59,231,o),
(59,141,cs),
(59,74,o),
(132,25,o),
(185,25,cs),
(395,25,ls),
(415,25,o),
(529,51,o),
(529,150,cs),
(529,265,o),
(374,266,o),
(368,277,cs),
(364,284,o),
(435,323,o),
(395,410,cs),
(384,434,o),
(425,450,o),
(447,458,cs),
(482,471,o),
(517,465,o),
(521,555,cs),
(522,588,o),
(497,642,o),
(394,671,cs),
(311,694,o),
(215,687,o),
(154,674,cs)
);
},
{
closed = 1;
nodes = (
(253,401,o),
(223,418,o),
(223,440,cs),
(223,462,o),
(253,482,o),
(289,482,cs),
(326,482,o),
(354,462,o),
(354,440,cs),
(354,418,o),
(326,401,o),
(289,401,cs)
);
},
{
closed = 1;
nodes = (
(279,430,o),
(270,429,o),
(270,440,cs),
(270,451,o),
(279,452,o),
(289,452,cs),
(300,452,o),
(309,451,o),
(309,440,cs),
(309,429,o),
(300,430,o),
(289,430,cs)
);
},
{
closed = 1;
nodes = (
(327,400,o),
(356,418,o),
(356,440,cs),
(356,462,o),
(327,483,o),
(289,483,cs),
(252,483,o),
(222,462,o),
(222,440,cs),
(222,418,o),
(252,400,o),
(289,400,cs)
);
},
{
closed = 1;
nodes = (
(251,474,l),
(244,487,l),
(243,486,l),
(250,473,l)
);
},
{
closed = 1;
nodes = (
(290,483,l),
(290,497,l),
(289,497,l),
(289,483,l)
);
},
{
closed = 1;
nodes = (
(290,386,l),
(290,400,l),
(289,400,l),
(289,386,l)
);
},
{
closed = 1;
nodes = (
(326,475,l),
(333,488,l),
(332,489,l),
(325,476,l)
);
},
{
closed = 1;
nodes = (
(332,394,l),
(325,407,l),
(324,406,l),
(331,394,l)
);
},
{
closed = 1;
nodes = (
(241,396,l),
(248,409,l),
(247,409,l),
(240,397,l)
);
},
{
closed = 1;
nodes = (
(287,443,o),
(287,443,o),
(287,443,cs),
(287,443,o),
(287,443,o),
(287,443,cs),
(287,443,o),
(287,443,o),
(287,443,cs),
(287,443,o),
(287,443,o),
(287,443,cs)
);
},
{
closed = 1;
nodes = (
(253,209,o),
(223,226,o),
(223,248,cs),
(223,270,o),
(253,290,o),
(289,290,cs),
(326,290,o),
(354,270,o),
(354,248,cs),
(354,226,o),
(326,209,o),
(289,209,cs)
);
},
{
closed = 1;
nodes = (
(280,238,o),
(270,237,o),
(270,248,cs),
(270,259,o),
(279,260,o),
(289,260,cs),
(300,260,o),
(309,259,o),
(309,248,cs),
(309,237,o),
(301,238,o),
(290,238,cs)
);
},
{
closed = 1;
nodes = (
(327,208,o),
(356,226,o),
(356,248,cs),
(356,270,o),
(327,291,o),
(289,291,cs),
(252,291,o),
(222,270,o),
(222,248,cs),
(222,226,o),
(252,208,o),
(289,208,cs)
);
},
{
closed = 1;
nodes = (
(251,282,l),
(244,295,l),
(243,294,l),
(250,281,l)
);
},
{
closed = 1;
nodes = (
(290,291,l),
(290,305,l),
(289,305,l),
(289,291,l)
);
},
{
closed = 1;
nodes = (
(290,194,l),
(290,208,l),
(289,208,l),
(289,194,l)
);
},
{
closed = 1;
nodes = (
(326,283,l),
(333,296,l),
(332,297,l),
(325,284,l)
);
},
{
closed = 1;
nodes = (
(332,202,l),
(325,215,l),
(324,214,l),
(331,202,l)
);
},
{
closed = 1;
nodes = (
(241,204,l),
(248,217,l),
(247,217,l),
(240,205,l)
);
},
{
closed = 1;
nodes = (
(287,251,o),
(287,251,o),
(287,251,cs),
(287,251,o),
(287,251,o),
(287,251,cs),
(287,251,o),
(287,251,o),
(287,251,cs),
(287,251,o),
(287,251,o),
(287,251,cs)
);
}
);
width = 600;
}
);
unicode = (73,105);
},
{
glyphname = J;
lastChange = "2025-10-03 19:49:08 +0000";
layers = (
{
backgroundImage = {
imagePath = "New Folder With Items/Images/J_-Regular.tif";
locked = 1;
pos = (1,-19);
scale = (4.8581,4.9677);
};
layerId = m01;
shapes = (
{
closed = 1;
nodes = (
(102,660,o),
(128,680,o),
(189,689,cs),
(254,699,o),
(366,709,o),
(447,683,cs),
(504,665,o),
(531,640,o),
(551,595,cs),
(578,535,o),
(557,466,o),
(547,451,cs),
(536,434,o),
(492,410,o),
(501,402,cs),
(518,388,o),
(533,354,o),
(539,301,cs),
(549,209,o),
(517,138,o),
(506,119,cs),
(491,93,o),
(437,31,o),
(362,12,cs),
(305,-2,o),
(254,-7,o),
(191,12,cs),
(168,19,o),
(115,43,o),
(68,98,cs),
(24,149,o),
(15,238,o),
(50,310,cs),
(87,386,o),
(152,398,o),
(143,407,cs),
(132,418,o),
(112,419,o),
(80,449,cs),
(9,515,o),
(49,591,o),
(69,617,cs)
);
},
{
closed = 1;
nodes = (
(76,553,o),
(93,483,o),
(128,464,cs),
(169,442,o),
(201,419,o),
(201,407,cs),
(201,376,o),
(129,358,o),
(94,307,cs),
(46,236,o),
(73,150,o),
(104,119,cs),
(131,92,o),
(160,55,o),
(218,41,cs),
(272,28,o),
(330,41,o),
(346,46,cs),
(410,66,o),
(449,117,o),
(459,134,cs),
(489,188,o),
(507,269,o),
(485,330,cs),
(465,386,o),
(449,391,o),
(448,407,cs),
(447,424,o),
(490,439,o),
(509,474,cs),
(523,500,o),
(534,544,o),
(508,587,cs),
(489,616,o),
(463,633,o),
(426,641,cs),
(358,656,o),
(272,659,o),
(196,648,cs),
(153,642,o),
(128,617,o),
(108,592,cs)
);
},
{
closed = 1;
nodes = (
(232,266,o),
(232,266,o),
(232,266,cs),
(232,266,o),
(232,266,o),
(232,266,cs),
(232,266,o),
(232,266,o),
(232,266,cs),
(232,266,o),
(232,266,o),
(232,266,cs)
);
},
{
closed = 1;
nodes = (
(232,266,o),
(232,266,o),
(232,266,cs),
(232,266,o),
(232,266,o),
(232,266,cs),
(232,266,o),
(232,266,o),
(232,266,cs),
(232,266,o),
(232,266,o),
(232,266,cs)
);
},
{
closed = 1;
nodes = (
(220,227,o),
(262,235,o),
(270,241,cs),
(276,247,o),
(281,293,o),
(267,302,cs),
(253,310,o),
(211,301,o),
(205,295,cs),
(199,290,o),
(194,246,o),
(208,236,cs)
);
},
{
closed = 1;
nodes = (
(226,280,l),
(226,280,l),
(226,280,l),
(226,280,l)
);
},
{
closed = 1;
nodes = (
(240,269,l),
(240,269,l),
(240,269,l),
(240,269,l)
);
},
{
closed = 1;
nodes = (
(240,259,l),
(240,259,l),
(240,259,l),
(240,259,l)
);
},
{
closed = 1;
nodes = (
(252,262,l),
(252,262,l),
(252,262,l),
(252,262,l)
);
},
{
closed = 1;
nodes = (
(247,254,l),
(247,254,l),
(247,254,l),
(247,254,l)
);
},
{
closed = 1;
nodes = (
(225,268,l),
(225,268,l),
(225,268,l),
(225,268,l)
);
},
{
closed = 1;
nodes = (
(232,266,o),
(232,266,o),
(232,266,cs),
(232,266,o),
(232,266,o),
(232,266,cs),
(232,266,o),
(232,266,o),
(232,266,cs),
(232,266,o),
(232,266,o),
(232,266,cs)
);
}
);
width = 600;
},
{
layerId = "45082C4A-550E-4DA0-B494-F7E76CD90BF9";
shapes = (
{
closed = 1;
nodes = (
(102,660,o),
(128,680,o),
(189,689,cs),
(254,699,o),
(366,709,o),
(447,683,cs),
(504,665,o),
(531,640,o),
(551,595,cs),
(578,535,o),
(557,466,o),
(547,451,cs),
(536,434,o),
(492,410,o),
(501,402,cs),
(518,388,o),
(533,354,o),
(539,301,cs),
(549,209,o),
(517,138,o),
(506,119,cs),
(491,93,o),
(437,31,o),
(362,12,cs),
(305,-2,o),
(254,-7,o),
(191,12,cs),
(168,19,o),
(115,43,o),
(68,98,cs),
(24,149,o),
(15,238,o),
(50,310,cs),
(87,386,o),
(152,398,o),
(143,407,cs),
(132,418,o),
(112,419,o),
(80,449,cs),
(9,515,o),
(49,591,o),
(69,617,cs)
);
},
{
closed = 1;
nodes = (
(76,553,o),
(93,483,o),
(128,464,cs),
(169,442,o),
(201,419,o),
(201,407,cs),
(201,376,o),
(129,358,o),
(94,307,cs),
(46,236,o),
(73,150,o),
(104,119,cs),
(131,92,o),
(160,55,o),
(218,41,cs),
(272,28,o),
(330,41,o),
(346,46,cs),
(410,66,o),
(449,117,o),
(459,134,cs),
(489,188,o),
(507,269,o),
(485,330,cs),
(465,386,o),
(449,391,o),
(448,407,cs),
(447,424,o),
(490,439,o),
(509,474,cs),
(523,500,o),
(534,544,o),
(508,587,cs),
(489,616,o),
(463,633,o),
(426,641,cs),
(358,656,o),
(272,659,o),
(196,648,cs),
(153,642,o),
(128,617,o),
(108,592,cs)
);
},
{
closed = 1;
nodes = (
(264,184,o),
(221,183,o),
(207,207,cs),
(193,231,o),
(214,271,o),
(253,294,cs),
(292,317,o),
(336,314,o),
(349,289,cs),
(364,265,o),
(342,229,o),
(303,206,cs)
);
},
{
closed = 1;
nodes = (
(282,224,o),
(264,225,o),
(258,237,cs),
(251,249,o),
(256,257,o),
(270,267,cs),
(280,274,o),
(294,274,o),
(301,261,cs),
(307,249,o),
(305,238,o),
(295,231,cs)
);
},
{
closed = 1;
nodes = (
(345,229,o),
(366,267,o),
(351,291,cs),
(338,315,o),
(293,318,o),
(252,295,cs),
(212,271,o),
(192,231,o),
(205,207,cs),
(220,182,o),
(264,182,o),
(304,206,cs)
);
},
{
closed = 1;
nodes = (
(216,261,l),
(201,271,l),
(201,270,l),
(215,261,l)
);
},
{
closed = 1;
nodes = (
(253,295,l),
(244,311,l),
(243,310,l),
(252,294,l)
);
},
{
closed = 1;
nodes = (
(314,191,l),
(305,207,l),
(303,205,l),
(312,190,l)
);
},
{
closed = 1;
nodes = (
(296,310,l),
(296,328,l),
(294,328,l),
(295,309,l)
);
},
{
closed = 1;
nodes = (
(354,226,l),
(339,235,l),
(338,234,l),
(354,225,l)
);
},
{
closed = 1;
nodes = (
(254,171,l),
(253,189,l),
(251,189,l),
(252,171,l)
);
},
{
closed = 1;
nodes = (
(275,252,o),
(275,252,o),
(275,252,cs),
(275,252,o),
(275,252,o),
(275,252,cs),
(275,252,o),
(275,252,o),
(275,252,cs),
(275,252,o),
(275,252,o),
(275,252,cs)
);
}
);
width = 600;
}
);
unicode = (74,106);
},
{
glyphname = K;
lastChange = "2025-10-03 19:49:08 +0000";
layers = (
{
backgroundImage = {
imagePath = "New Folder With Items/Images/K_-Regular.tif";
locked = 1;
pos = (-18,-36);
scale = (5.9644,5.9644);
};
layerId = m01;
shapes = (
{
closed = 1;
nodes = (
(21,641,o),
(86,688,o),
(135,693,cs),
(173,697,o),
(206,700,o),
(250,658,cs),
(284,626,o),
(280,574,o),
(286,576,cs),
(310,584,o),
(318,628,o),
(418,628,cs),
(474,628,o),
(537,619,o),
(549,524,cs),
(551,505,o),
(549,449,o),
(524,404,cs),
(503,365,o),
(469,334,o),
(449,329,cs),
(462,332,o),
(552,290,o),
(570,198,cs),
(584,128,o),
(569,87,o),
(531,51,cs),
(515,36,o),
(462,10,o),
(380,14,cs),
(305,17,o),
(275,108,o),
(268,108,cs),
(259,108,o),
(221,44,o),
(184,19,cs),
(172,11,o),
(131,-3,o),
(79,34,cs),
(39,62,o),
(27,124,o),
(26,174,cs),
(22,570,ls)
);
},
{
closed = 1;
nodes = (
(63,170,ls),
(64,125,o),
(70,77,o),
(106,53,cs),
(146,27,o),
(173,51,o),
(185,61,cs),
(223,93,o),
(247,161,o),
(268,161,cs),
(290,161,o),
(313,46,o),
(392,46,cs),
(458,46,o),
(473,53,o),
(500,70,cs),
(512,77,o),
(542,120,o),
(537,183,cs),
(530,271,o),
(392,319,o),
(403,328,cs),
(434,352,o),
(459,385,o),
(484,417,cs),
(507,448,o),
(515,492,o),
(509,521,cs),
(503,548,o),
(479,589,o),
(416,589,cs),
(329,589,o),
(307,529,o),
(285,529,cs),
(267,529,o),
(247,585,o),
(220,617,cs),
(211,628,o),
(195,652,o),
(144,650,cs),
(115,649,o),
(56,607,o),
(57,568,cs)
);
},
{
closed = 1;
nodes = (
(310,315,o),
(310,315,o),
(310,315,cs),
(310,315,o),
(310,315,o),
(311,315,cs),
(311,315,o),
(311,315,o),
(311,315,cs),
(311,315,o),
(311,315,o),
(311,315,cs)
);
},
{
closed = 1;
nodes = (
(310,315,o),
(310,315,o),
(310,315,cs),
(310,315,o),
(310,315,o),
(311,315,cs),
(311,315,o),
(311,315,o),
(311,315,cs),
(311,315,o),
(311,315,o),
(311,315,cs)
);
},
{
closed = 1;
nodes = (
(327,311,o),
(340,309,o),
(340,315,cs),
(340,321,o),
(327,321,o),
(311,321,cs),
(297,321,o),
(290,321,o),
(290,315,cs),
(290,309,o),
(294,311,o),
(311,311,cs)
);
},
{
closed = 1;
nodes = (
(320,317,l),
(308,317,l),
(306,317,l),
(318,317,l)
);
},
{
closed = 1;
nodes = (
(296,315,l),
(296,315,l),
(294,315,l),
(294,315,l)
);
},
{
closed = 1;
nodes = (
(296,318,l),
(296,318,l),
(294,318,l),
(294,318,l)
);
},
{
closed = 1;
nodes = (
(305,316,l),
(319,316,l),
(317,316,l),
(303,316,l)
);
},
{
closed = 1;
nodes = (
(317,314,l),
(303,314,l),
(301,314,l),
(315,314,l)
);
},
{
closed = 1;
nodes = (
(309,315,l),
(323,315,l),
(321,315,l),
(307,315,l)
);
},
{
closed = 1;
nodes = (
(310,315,o),
(310,315,o),
(310,315,cs),
(310,315,o),
(310,315,o),
(310,315,cs),
(310,315,o),
(310,315,o),
(310,315,cs),
(310,315,o),
(310,315,o),
(310,315,cs)
);
}
);
width = 600;
},
{
layerId = "45082C4A-550E-4DA0-B494-F7E76CD90BF9";
shapes = (
{
closed = 1;
nodes = (
(21,641,o),
(86,688,o),
(135,693,cs),
(173,697,o),
(206,700,o),
(250,658,cs),
(284,626,o),
(280,574,o),
(286,576,cs),
(310,584,o),
(318,628,o),
(418,628,cs),
(474,628,o),
(537,619,o),
(549,524,cs),
(551,505,o),
(549,449,o),
(524,404,cs),
(503,365,o),
(469,334,o),
(449,329,cs),
(462,332,o),
(552,290,o),
(570,198,cs),
(584,128,o),
(569,87,o),
(531,51,cs),
(515,36,o),
(462,10,o),
(380,14,cs),
(305,17,o),
(275,108,o),
(268,108,cs),
(259,108,o),
(221,44,o),
(184,19,cs),
(172,11,o),
(131,-3,o),
(79,34,cs),
(39,62,o),
(27,124,o),
(26,174,cs),
(22,570,ls)
);
},
{
closed = 1;
nodes = (
(63,170,ls),
(64,125,o),
(70,77,o),
(106,53,cs),
(146,27,o),
(173,51,o),
(185,61,cs),
(223,93,o),
(247,161,o),
(268,161,cs),
(290,161,o),
(313,46,o),
(392,46,cs),
(458,46,o),
(473,53,o),
(500,70,cs),
(512,77,o),
(542,120,o),
(537,183,cs),
(530,271,o),
(392,319,o),
(403,328,cs),
(434,352,o),
(459,385,o),
(484,417,cs),
(507,448,o),
(515,492,o),
(509,521,cs),
(503,548,o),
(479,589,o),
(416,589,cs),
(329,589,o),
(307,529,o),
(285,529,cs),
(267,529,o),
(247,585,o),
(220,617,cs),
(211,628,o),
(195,652,o),
(144,650,cs),
(115,649,o),
(56,607,o),
(57,568,cs)
);
},
{
closed = 1;
nodes = (
(213,260,o),
(166,286,o),
(166,321,cs),
(166,355,o),
(213,386,o),
(270,386,cs),
(327,386,o),
(372,355,o),
(372,321,cs),
(372,286,o),
(327,260,o),
(270,260,cs)
);
},
{
closed = 1;
nodes = (
(255,287,o),
(239,304,o),
(239,321,cs),
(239,338,o),
(253,349,o),
(270,349,cs),
(287,349,o),
(301,338,o),
(301,321,cs),
(301,304,o),
(289,287,o),
(272,287,cs)
);
},
{
closed = 1;
nodes = (
(328,259,o),
(374,286,o),
(374,321,cs),
(374,356,o),
(328,387,o),
(270,387,cs),
(212,387,o),
(164,356,o),
(164,321,cs),
(164,286,o),
(212,259,o),
(270,259,cs)
);
},
{
closed = 1;
nodes = (
(209,374,l),
(200,394,l),
(198,393,l),
(208,373,l)
);
},
{
closed = 1;
nodes = (
(271,387,l),
(271,410,l),
(269,410,l),
(269,387,l)
);
},
{
closed = 1;
nodes = (
(271,236,l),
(271,259,l),
(269,259,l),
(269,236,l)
);
},
{
closed = 1;
nodes = (
(327,376,l),
(338,396,l),
(336,397,l),
(325,377,l)
);
},
{
closed = 1;
nodes = (
(337,249,l),
(326,268,l),
(324,268,l),
(336,248,l)
);
},
{
closed = 1;
nodes = (
(194,252,l),
(205,272,l),
(204,272,l),
(192,253,l)
);
},
{
closed = 1;
nodes = (
(267,326,o),
(267,326,o),
(267,326,cs),
(267,326,o),
(267,326,o),
(267,326,cs),
(267,326,o),
(267,326,o),
(267,326,cs),
(267,326,o),
(267,326,o),
(267,326,cs)
);
}
);
width = 600;
}
);
unicode = (75,107);
},
{
glyphname = L;
lastChange = "2025-10-03 19:49:08 +0000";
layers = (
{
backgroundImage = {
imagePath = "New Folder With Items/Images/L_-Regular.tif";
locked = 1;
pos = (-1,-24);
scale = (5.8374,5.8374);
};
layerId = m01;
shapes = (
{
closed = 1;
nodes = (
(273,693,o),
(308,610,o),
(324,517,cs),
(334,460,o),
(341,389,o),
(327,336,cs),
(330,349,o),
(554,387,o),
(586,214,cs),
(611,80,o),
(458,0,o),
(272,0,cs),
(130,0,o),
(72,58,o),
(39,143,cs),
(-36,336,o),
(18,693,o),
(162,693,cs)
);
},
{
closed = 1;
nodes = (
(64,647,o),
(-4,344,o),
(64,170,cs),
(93,97,o),
(150,36,o),
(273,36,cs),
(446,36,o),
(572,109,o),
(549,217,cs),
(523,341,o),
(273,276,o),
(273,276,cs),
(289,354,o),
(291,441,o),
(275,520,cs),
(257,610,o),
(212,647,o),
(155,647,cs)
);
},
{
closed = 1;
nodes = (
(200,213,o),
(200,213,o),
(200,213,cs),
(200,213,o),
(200,213,o),
(201,214,cs),
(201,214,o),
(201,214,o),
(201,214,cs),
(201,214,o),
(201,214,o),
(201,214,cs)
);
},
{
closed = 1;
nodes = (
(200,213,o),
(200,213,o),
(200,213,cs),
(200,213,o),
(200,213,o),
(201,214,cs),
(201,214,o),
(201,214,o),
(201,214,cs),
(201,214,o),
(201,214,o),
(201,214,cs)
);
},
{
closed = 1;
nodes = (
(215,217,o),
(227,221,o),
(224,226,cs),
(221,232,o),
(210,225,o),
(196,217,cs),
(184,210,o),
(178,207,o),
(181,201,cs),
(184,196,o),
(186,200,o),
(201,209,cs)
);
},
{
closed = 1;
nodes = (
(206,218,l),
(196,212,l),
(194,211,l),
(204,217,l)
);
},
{
closed = 1;
nodes = (
(186,204,l),
(186,204,l),
(184,203,l),
(184,203,l)
);
},
{
closed = 1;
nodes = (
(185,207,l),
(185,207,l),
(183,206,l),
(183,206,l)
);
},
{
closed = 1;
nodes = (
(193,210,l),
(206,217,l),
(204,216,l),
(192,209,l)
);
},
{
closed = 1;
nodes = (
(205,214,l),
(193,207,l),
(191,206,l),
(203,213,l)
);
},
{
closed = 1;
nodes = (
(197,211,l),
(210,218,l),
(208,217,l),
(196,210,l)
);
},
{
closed = 1;
nodes = (
(200,213,o),
(200,213,o),
(200,213,cs),
(200,213,o),
(200,213,o),
(200,213,cs),
(200,213,o),
(200,213,o),
(200,213,cs),
(200,213,o),
(200,213,o),
(200,213,cs)
);
}
);
width = 600;
},
{
layerId = "45082C4A-550E-4DA0-B494-F7E76CD90BF9";
shapes = (
{
closed = 1;
nodes = (
(273,693,o),
(308,610,o),
(324,517,cs),
(334,460,o),
(341,389,o),
(327,336,cs),
(330,349,o),
(554,387,o),
(586,214,cs),
(611,80,o),
(458,0,o),
(272,0,cs),
(130,0,o),
(72,58,o),
(39,143,cs),
(-36,336,o),
(18,693,o),
(162,693,cs)
);
},
{
closed = 1;
nodes = (
(64,647,o),
(-4,344,o),
(64,170,cs),
(93,97,o),
(150,36,o),
(273,36,cs),
(446,36,o),
(572,109,o),
(549,217,cs),
(523,341,o),
(273,276,o),
(273,276,cs),
(289,354,o),
(291,441,o),
(275,520,cs),
(257,610,o),
(212,647,o),
(155,647,cs)
);
},
{
closed = 1;
nodes = (
(183,134,o),
(146,132,o),
(133,154,cs),
(121,174,o),
(139,209,o),
(175,230,cs),
(209,249,o),
(247,247,o),
(259,226,cs),
(271,204,o),
(253,174,o),
(219,154,cs)
);
},
{
closed = 1;
nodes = (
(200,164,o),
(197,171,o),
(191,182,cs),
(185,192,o),
(177,202,o),
(187,208,cs),
(198,214,o),
(198,203,o),
(204,192,cs),
(210,182,o),
(221,176,o),
(210,170,cs)
);
},
{
closed = 1;
nodes = (
(255,173,o),
(273,205,o),
(261,227,cs),
(249,248,o),
(209,252,o),
(174,231,cs),
(138,211,o),
(121,174,o),
(133,153,cs),
(145,131,o),
(184,132,o),
(219,153,cs)
);
},
{
closed = 1;
nodes = (
(142,201,l),
(129,210,l),
(128,208,l),
(141,200,l)
);
},
{
closed = 1;
nodes = (
(174,231,l),
(166,244,l),
(166,244,l),
(173,231,l)
);
},
{
closed = 1;
nodes = (
(228,139,l),
(220,154,l),
(218,153,l),
(227,138,l)
);
},
{
closed = 1;
nodes = (
(212,244,l),
(212,260,l),
(211,260,l),
(211,243,l)
);
},
{
closed = 1;
nodes = (
(264,170,l),
(250,178,l),
(249,177,l),
(263,169,l)
);
},
{
closed = 1;
nodes = (
(175,121,l),
(175,137,l),
(174,138,l),
(174,122,l)
);
},
{
closed = 1;
nodes = (
(193,192,o),
(193,192,o),
(193,192,cs),
(193,192,o),
(193,192,o),
(193,192,cs),
(193,192,o),
(193,192,o),
(193,192,cs),
(193,192,o),
(193,192,o),
(193,192,cs)
);
}
);
width = 600;
}
);
unicode = (76,108);
},
{
glyphname = M;
lastChange = "2025-10-03 19:49:08 +0000";
layers = (
{
backgroundImage = {
imagePath = "New Folder With Items/Images/M_-Regular.tif";
locked = 1;
pos = (0,-17);
scale = (5.651,6.6241);
};
layerId = m01;
shapes = (
{
closed = 1;
nodes = (
(266,588,o),
(268,712,o),
(165,712,c),
(103,712,o),
(65,655,o),
(52,576,c),
(14,430,o),
(-6,276,o),
(14,135,cs),
(26,46,o),
(68,4,o),
(110,2,cs),
(231,-3,o),
(205,169,o),
(231,169,cs),
(255,169,o),
(249,115,o),
(289,114,cs),
(333,114,o),
(354,181,o),
(352,166,cs),
(347,116,o),
(390,3,o),
(456,2,cs),
(510,1,o),
(548,59,o),
(572,142,c),
(597,261,o),
(595,389,o),
(565,529,cs),
(539,638,o),
(524,692,o),
(442,692,cs),
(351,692,o),
(345,588,o),
(309,588,cs)
);
},
{
closed = 1;
nodes = (
(221,673,o),
(239,527,o),
(302,527,cs),
(362,527,o),
(373,647,o),
(443,651,cs),
(496,651,o),
(498,610,o),
(523,529,c),
(555,393,o),
(558,269,o),
(539,154,c),
(522,103,o),
(497,66,o),
(463,66,cs),
(367,66,o),
(398,240,o),
(364,240,cs),
(329,240,o),
(320,160,o),
(289,160,cs),
(264,160,o),
(269,235,o),
(225,235,cs),
(185,235,o),
(191,44,o),
(114,44,cs),
(81,44,o),
(48,74,o),
(44,149,cs),
(36,289,o),
(50,429,o),
(83,569,c),
(103,630,o),
(111,673,o),
(161,673,cs)
);
},
{
closed = 1;
nodes = (
(393,416,o),
(393,416,o),
(393,416,cs),
(393,416,o),
(393,416,o),
(393,415,cs),
(393,415,o),
(393,415,o),
(393,415,cs),
(393,415,o),
(393,415,o),
(393,415,cs)
);
},
{
closed = 1;
nodes = (
(393,416,o),
(393,416,o),
(393,416,cs),
(393,416,o),
(393,416,o),
(393,415,cs),
(393,415,o),
(393,415,o),
(393,415,cs),
(393,415,o),
(393,415,o),
(393,415,cs)
);
},
{
closed = 1;
nodes = (
(389,389,o),
(387,376,o),
(393,376,cs),
(399,376,o),
(399,389,o),
(399,405,cs),
(399,419,o),
(399,426,o),
(393,426,cs),
(387,426,o),
(389,422,o),
(389,405,cs)
);
},
{
closed = 1;
nodes = (
(395,396,l),
(395,408,l),
(395,410,l),
(395,398,l)
);
},
{
closed = 1;
nodes = (
(393,420,l),
(393,420,l),
(393,422,l),
(393,422,l)
);
},
{
closed = 1;
nodes = (
(396,420,l),
(396,420,l),
(396,422,l),
(396,422,l)
);
},
{
closed = 1;
nodes = (
(394,411,l),
(394,397,l),
(394,399,l),
(394,413,l)
);
},
{
closed = 1;
nodes = (
(392,399,l),
(392,413,l),
(392,415,l),
(392,401,l)
);
},
{
closed = 1;
nodes = (
(393,407,l),
(393,393,l),
(393,395,l),
(393,409,l)
);
},
{
closed = 1;
nodes = (
(393,416,o),
(393,416,o),
(393,416,cs),
(393,416,o),
(393,416,o),
(393,416,cs),
(393,416,o),
(393,416,o),
(393,416,cs),
(393,416,o),
(393,416,o),
(393,416,cs)
);
},
{
closed = 1;
nodes = (
(216,414,o),
(216,414,o),
(216,414,cs),
(216,414,o),
(216,414,o),
(216,413,cs),
(216,413,o),
(216,413,o),
(216,413,cs),
(216,413,o),
(216,413,o),
(216,413,cs)
);
},
{
closed = 1;
nodes = (
(216,414,o),
(216,414,o),
(216,414,cs),
(216,414,o),
(216,414,o),
(216,413,cs),
(216,413,o),
(216,413,o),
(216,413,cs),
(216,413,o),
(216,413,o),
(216,413,cs)
);
},
{
closed = 1;
nodes = (
(211,386,o),
(209,373,o),
(215,373,cs),
(221,373,o),
(221,386,o),
(221,402,cs),
(221,416,o),
(221,423,o),
(215,423,cs),
(209,423,o),
(211,419,o),
(211,402,cs)
);
},
{
closed = 1;
nodes = (
(217,393,l),
(217,405,l),
(217,407,l),
(217,395,l)
);
},
{
closed = 1;
nodes = (
(215,417,l),
(215,417,l),
(215,419,l),
(215,419,l)
);
},
{
closed = 1;
nodes = (
(218,417,l),
(218,417,l),
(218,419,l),
(218,419,l)
);
},
{
closed = 1;
nodes = (
(216,408,l),
(216,394,l),
(216,396,l),
(216,410,l)
);
},
{
closed = 1;
nodes = (
(214,396,l),
(214,410,l),
(214,412,l),
(214,398,l)
);
},
{
closed = 1;
nodes = (
(215,404,l),
(215,390,l),
(215,392,l),
(215,406,l)
);
},
{
closed = 1;
nodes = (
(216,414,o),
(216,414,o),
(216,414,cs),
(216,414,o),
(216,414,o),
(216,414,cs),
(216,414,o),
(216,414,o),
(216,414,cs),
(216,414,o),
(216,414,o),
(216,414,cs)
);
}
);
width = 600;
},
{
layerId = "45082C4A-550E-4DA0-B494-F7E76CD90BF9";
shapes = (
{
closed = 1;
nodes = (
(266,588,o),
(268,712,o),
(165,712,c),
(103,712,o),
(65,655,o),
(52,576,c),
(14,430,o),
(-6,276,o),
(14,135,cs),
(26,46,o),
(68,4,o),
(110,2,cs),
(231,-3,o),
(205,169,o),
(231,169,cs),
(255,169,o),
(249,115,o),
(289,114,cs),
(333,114,o),
(354,181,o),
(352,166,cs),
(347,116,o),
(390,3,o),
(456,2,cs),
(510,1,o),
(548,59,o),
(572,142,c),
(597,261,o),
(595,389,o),
(565,529,cs),
(539,638,o),
(524,692,o),
(442,692,cs),
(351,692,o),
(345,588,o),
(309,588,cs)
);
},
{
closed = 1;
nodes = (
(221,673,o),
(239,527,o),
(302,527,cs),
(362,527,o),
(373,647,o),
(443,651,cs),
(496,651,o),
(498,610,o),
(523,529,c),
(555,393,o),
(558,269,o),
(539,154,c),
(522,103,o),
(497,66,o),
(463,66,cs),
(367,66,o),
(398,240,o),
(364,240,cs),
(329,240,o),
(320,160,o),
(289,160,cs),
(264,160,o),
(269,235,o),
(225,235,cs),
(185,235,o),
(191,44,o),
(114,44,cs),
(81,44,o),
(48,74,o),
(44,149,cs),
(36,289,o),
(50,429,o),
(83,569,c),
(103,630,o),
(111,673,o),
(161,673,cs)
);
},
{
closed = 1;
nodes = (
(353,421,o),
(370,451,o),
(392,451,cs),
(414,451,o),
(434,421,o),
(434,385,cs),
(434,348,o),
(414,320,o),
(392,320,cs),
(370,320,o),
(353,348,o),
(353,385,cs)
);
},
{
closed = 1;
nodes = (
(382,395,o),
(381,404,o),
(392,404,cs),
(403,404,o),
(404,395,o),
(404,385,cs),
(404,374,o),
(403,365,o),
(392,365,cs),
(381,365,o),
(382,374,o),
(382,385,cs)
);
},
{
closed = 1;
nodes = (
(352,347,o),
(370,318,o),
(392,318,cs),
(414,318,o),
(435,347,o),
(435,385,cs),
(435,422,o),
(414,452,o),
(392,452,cs),
(370,452,o),
(352,422,o),
(352,385,cs)
);
},
{
closed = 1;
nodes = (
(426,423,l),
(439,430,l),
(438,431,l),
(425,424,l)
);
},
{
closed = 1;
nodes = (
(435,384,l),
(449,384,l),
(449,385,l),
(435,385,l)
);
},
{
closed = 1;
nodes = (
(338,384,l),
(352,384,l),
(352,385,l),
(338,385,l)
);
},
{
closed = 1;
nodes = (
(427,348,l),
(440,341,l),
(441,342,l),
(428,349,l)
);
},
{
closed = 1;
nodes = (
(346,342,l),
(359,349,l),
(358,350,l),
(346,343,l)
);
},
{
closed = 1;
nodes = (
(348,433,l),
(361,426,l),
(361,427,l),
(349,434,l)
);
},
{
closed = 1;
nodes = (
(395,387,o),
(395,387,o),
(395,387,cs),
(395,387,o),
(395,387,o),
(395,387,cs),
(395,387,o),
(395,387,o),
(395,387,cs),
(395,387,o),
(395,387,o),
(395,387,cs)
);
},
{
closed = 1;
nodes = (
(161,421,o),
(178,451,o),
(200,451,cs),
(222,451,o),
(242,421,o),
(242,385,cs),
(242,348,o),
(222,320,o),
(200,320,cs),
(178,320,o),
(161,348,o),
(161,385,cs)
);
},
{
closed = 1;
nodes = (
(190,394,o),
(189,404,o),
(200,404,cs),
(211,404,o),
(212,395,o),
(212,385,cs),
(212,374,o),
(211,365,o),
(200,365,cs),
(189,365,o),
(190,373,o),
(190,384,cs)
);
},
{
closed = 1;
nodes = (
(160,347,o),
(178,318,o),
(200,318,cs),
(222,318,o),
(243,347,o),
(243,385,cs),
(243,422,o),
(222,452,o),
(200,452,cs),
(178,452,o),
(160,422,o),
(160,385,cs)
);
},
{
closed = 1;
nodes = (
(234,423,l),
(247,430,l),
(246,431,l),
(233,424,l)
);
},
{
closed = 1;
nodes = (
(243,384,l),
(257,384,l),
(257,385,l),
(243,385,l)
);
},
{
closed = 1;
nodes = (
(146,384,l),
(160,384,l),
(160,385,l),
(146,385,l)
);
},
{
closed = 1;
nodes = (
(235,348,l),
(248,341,l),
(249,342,l),
(236,349,l)
);
},
{
closed = 1;
nodes = (
(154,342,l),
(167,349,l),
(166,350,l),
(154,343,l)
);
},
{
closed = 1;
nodes = (
(156,433,l),
(169,426,l),
(169,427,l),
(157,434,l)
);
},
{
closed = 1;
nodes = (
(203,387,o),
(203,387,o),
(203,387,cs),
(203,387,o),
(203,387,o),
(203,387,cs),
(203,387,o),
(203,387,o),
(203,387,cs),
(203,387,o),
(203,387,o),
(203,387,cs)
);
}
);
width = 600;
}
);
unicode = (77,109);
},
{
glyphname = N;
lastChange = "2025-10-03 19:49:08 +0000";
layers = (
{
backgroundImage = {
imagePath = "New Folder With Items/Images/N_-Regular.tif";
locked = 1;
pos = (15,-12);
scale = (5.3489,6.4061);
};
layerId = m01;
shapes = (
{
closed = 1;
nodes = (
(316,694,o),
(250,596,o),
(328,596,cs),
(365,596,o),
(342,703,o),
(436,703,c),
(511,703,o),
(548,637,o),
(548,506,c),
(548,199,ls),
(548,83,o),
(468,27,o),
(411,8,c),
(239,3,o),
(276,153,o),
(227,153,cs),
(189,153,o),
(207,-9,o),
(97,0,c),
(45,0,o),
(-3,53,o),
(9,159,cs),
(46,496,ls),
(61,632,o),
(92,700,o),
(184,700,c)
);
},
{
closed = 1;
nodes = (
(117,639,o),
(93,591,o),
(82,498,cs),
(42,162,ls),
(32,76,o),
(60,41,o),
(99,41,c),
(183,30,o),
(151,196,o),
(223,196,cs),
(319,196,o),
(262,44,o),
(405,52,c),
(455,68,o),
(512,100,o),
(512,203,cs),
(511,504,l),
(511,600,o),
(484,648,o),
(431,648,c),
(364,648,o),
(398,550,o),
(330,550,cs),
(224,550,o),
(258,633,o),
(188,639,c)
);
},
{
closed = 1;
nodes = (
(283,385,o),
(283,385,o),
(283,385,cs),
(283,385,o),
(283,385,o),
(282,384,cs),
(282,384,o),
(282,384,o),
(282,384,cs),
(282,384,o),
(282,384,o),
(282,384,cs)
);
},
{
closed = 1;
nodes = (
(283,385,o),
(283,385,o),
(283,385,cs),
(283,385,o),
(283,385,o),
(282,384,cs),
(282,384,o),
(282,384,o),
(282,384,cs),
(282,384,o),
(282,384,o),
(282,384,cs)
);
},
{
closed = 1;
nodes = (
(275,368,o),
(271,357,o),
(277,356,cs),
(283,355,o),
(284,366,o),
(287,380,cs),
(290,395,o),
(291,405,o),
(285,406,cs),
(279,407,o),
(280,396,o),
(277,382,cs)
);
},
{
closed = 1;
nodes = (
(286,393,l),
(286,394,l),
(286,394,l),
(286,393,l)
);
},
{
closed = 1;
nodes = (
(281,380,l),
(281,380,l),
(281,382,l),
(281,382,l)
);
},
{
closed = 1;
nodes = (
(284,379,l),
(284,379,l),
(284,381,l),
(284,381,l)
);
},
{
closed = 1;
nodes = (
(280,369,l),
(280,368,l),
(280,369,l),
(280,369,l)
);
},
{
closed = 1;
nodes = (
(278,369,l),
(278,369,l),
(278,369,l),
(278,369,l)
);
},
{
closed = 1;
nodes = (
(284,395,l),
(284,394,l),
(284,394,l),
(284,395,l)
);
},
{
closed = 1;
nodes = (
(283,385,o),
(283,385,o),
(283,385,cs),
(283,385,o),
(283,385,o),
(283,385,cs),
(283,385,o),
(283,385,o),
(283,385,cs),
(283,385,o),
(283,385,o),
(283,385,cs)
);
}
);
width = 600;
},
{
layerId = "45082C4A-550E-4DA0-B494-F7E76CD90BF9";
shapes = (
{
closed = 1;
nodes = (
(316,694,o),
(250,596,o),
(328,596,cs),
(365,596,o),
(342,703,o),
(436,703,c),
(511,703,o),
(548,637,o),
(548,506,c),
(548,199,ls),
(548,83,o),
(468,27,o),
(411,8,c),
(239,3,o),
(276,153,o),
(227,153,cs),
(189,153,o),
(207,-9,o),
(97,0,c),
(45,0,o),
(-3,53,o),
(9,159,cs),
(46,496,ls),
(61,632,o),
(92,700,o),
(184,700,c)
);
},
{
closed = 1;
nodes = (
(117,639,o),
(93,591,o),
(82,498,cs),
(42,162,ls),
(32,76,o),
(60,41,o),
(99,41,c),
(183,30,o),
(151,196,o),
(223,196,cs),
(319,196,o),
(262,44,o),
(405,52,c),
(455,68,o),
(512,100,o),
(512,203,cs),
(511,504,l),
(511,600,o),
(484,648,o),
(431,648,c),
(364,648,o),
(398,550,o),
(330,550,cs),
(224,550,o),
(258,633,o),
(188,639,c)
);
},
{
closed = 1;
nodes = (
(254,290,o),
(202,305,o),
(187,346,cs),
(172,385,o),
(201,436,o),
(253,455,cs),
(303,473,o),
(357,452,o),
(371,413,cs),
(386,372,o),
(356,327,o),
(306,309,cs)
);
},
{
closed = 1;
nodes = (
(280,335,o),
(260,350,o),
(253,370,cs),
(245,389,o),
(260,425,o),
(268,412,cs),
(280,392,o),
(300,409,o),
(307,389,cs),
(314,370,o),
(310,346,o),
(295,340,cs)
);
},
{
closed = 1;
nodes = (
(358,326,o),
(388,373,o),
(373,413,cs),
(358,454,o),
(304,475,o),
(252,457,cs),
(199,437,o),
(170,385,o),
(185,345,cs),
(200,305,o),
(254,288,o),
(306,307,cs)
);
},
{
closed = 1;
nodes = (
(203,421,l),
(186,441,l),
(185,440,l),
(203,419,l)
);
},
{
closed = 1;
nodes = (
(253,457,l),
(243,483,l),
(241,483,l),
(251,456,l)
);
},
{
closed = 1;
nodes = (
(317,281,l),
(307,307,l),
(305,307,l),
(315,280,l)
);
},
{
closed = 1;
nodes = (
(307,462,l),
(308,489,l),
(307,489,l),
(305,462,l)
);
},
{
closed = 1;
nodes = (
(370,318,l),
(352,337,l),
(350,335,l),
(369,316,l)
);
},
{
closed = 1;
nodes = (
(240,275,l),
(242,301,l),
(241,302,l),
(239,275,l)
);
},
{
closed = 1;
nodes = (
(275,384,o),
(275,384,o),
(275,384,cs),
(275,384,o),
(275,384,o),
(275,384,cs),
(275,384,o),
(275,384,o),
(275,384,cs),
(275,384,o),
(275,384,o),
(275,384,cs)
);
}
);
width = 600;
}
);
unicode = (78,110);
},
{
glyphname = O;
lastChange = "2025-10-03 19:49:08 +0000";
layers = (
{
backgroundImage = {
imagePath = "New Folder With Items/Images/O_-Regular.tif";
locked = 1;
scale = (6.0237,6.0237);
};
layerId = m01;
shapes = (
{
closed = 1;
nodes = (
(462,5,o),
(582,156,o),
(582,351,cs),
(582,547,o),
(462,699,o),
(310,699,cs),
(143,699,o),
(24,547,o),
(24,351,cs),
(24,156,o),
(143,5,o),
(310,5,cs)
);
},
{
closed = 1;
nodes = (
(172,45,o),
(64,187,o),
(64,351,cs),
(64,517,o),
(172,659,o),
(310,659,cs),
(435,659,o),
(542,517,o),
(542,351,cs),
(542,187,o),
(435,45,o),
(310,45,cs)
);
},
{
closed = 1;
nodes = (
(279,357,o),
(279,357,o),
(279,357,cs),
(279,357,o),
(279,357,o),
(279,357,cs),
(279,357,o),
(279,357,o),
(279,357,cs),
(279,357,o),
(279,357,o),
(279,357,cs)
);
},
{
closed = 1;
nodes = (
(279,357,o),
(279,357,o),
(279,357,cs),
(279,357,o),
(279,357,o),
(279,357,cs),
(279,357,o),
(279,357,o),
(279,357,cs),
(279,357,o),
(279,357,o),
(279,357,cs)
);
},
{
closed = 1;
nodes = (
(286,339,o),
(300,337,o),
(308,343,cs),
(314,349,o),
(308,359,o),
(294,368,cs),
(280,376,o),
(266,379,o),
(260,373,cs),
(254,368,o),
(260,358,o),
(274,348,cs)
);
},
{
closed = 1;
nodes = (
(273,371,l),
(273,371,l),
(273,371,l),
(273,371,l)
);
},
{
closed = 1;
nodes = (
(287,360,l),
(287,360,l),
(287,360,l),
(287,360,l)
);
},
{
closed = 1;
nodes = (
(287,350,l),
(287,350,l),
(287,350,l),
(287,350,l)
);
},
{
closed = 1;
nodes = (
(299,353,l),
(299,353,l),
(299,353,l),
(299,353,l)
);
},
{
closed = 1;
nodes = (
(294,345,l),
(294,345,l),
(294,345,l),
(294,345,l)
);
},
{
closed = 1;
nodes = (
(272,359,l),
(272,359,l),
(272,359,l),
(272,359,l)
);
},
{
closed = 1;
nodes = (
(279,357,o),
(279,357,o),
(279,357,cs),
(279,357,o),
(279,357,o),
(279,357,cs),
(279,357,o),
(279,357,o),
(279,357,cs),
(279,357,o),
(279,357,o),
(279,357,cs)
);
}
);
width = 600;
},
{
layerId = "45082C4A-550E-4DA0-B494-F7E76CD90BF9";
shapes = (
{
closed = 1;
nodes = (
(462,5,o),
(582,156,o),
(582,351,cs),
(582,547,o),
(462,699,o),
(310,699,cs),
(143,699,o),
(24,547,o),
(24,351,cs),
(24,156,o),
(143,5,o),
(310,5,cs)
);
},
{
closed = 1;
nodes = (
(172,45,o),
(64,187,o),
(64,351,cs),
(64,517,o),
(172,659,o),
(310,659,cs),
(435,659,o),
(542,517,o),
(542,351,cs),
(542,187,o),
(435,45,o),
(310,45,cs)
);
},
{
closed = 1;
nodes = (
(230,338,o),
(214,378,o),
(232,400,cs),
(250,421,o),
(294,415,o),
(329,386,cs),
(364,357,o),
(376,315,o),
(358,294,cs),
(340,272,o),
(299,280,o),
(264,309,cs)
);
},
{
closed = 1;
nodes = (
(270,334,o),
(268,352,o),
(277,362,cs),
(286,373,o),
(297,375,o),
(311,365,cs),
(321,358,o),
(324,341,o),
(315,330,cs),
(306,320,o),
(291,317,o),
(281,325,cs)
);
},
{
closed = 1;
nodes = (
(300,278,o),
(342,271,o),
(360,293,cs),
(378,314,o),
(365,357,o),
(330,387,cs),
(294,417,o),
(249,422,o),
(231,401,cs),
(213,379,o),
(228,338,o),
(264,308,cs)
);
},
{
closed = 1;
nodes = (
(286,410,l),
(290,427,l),
(289,427,l),
(285,410,l)
);
},
{
closed = 1;
nodes = (
(330,386,l),
(342,400,l),
(341,401,l),
(329,387,l)
);
},
{
closed = 1;
nodes = (
(253,294,l),
(265,308,l),
(263,309,l),
(252,295,l)
);
},
{
closed = 1;
nodes = (
(359,351,l),
(376,357,l),
(375,359,l),
(358,352,l)
);
},
{
closed = 1;
nodes = (
(300,268,l),
(303,285,l),
(302,286,l),
(299,268,l)
);
},
{
closed = 1;
nodes = (
(214,343,l),
(231,350,l),
(230,350,l),
(213,345,l)
);
},
{
closed = 1;
nodes = (
(297,351,o),
(297,351,o),
(297,351,cs),
(297,351,o),
(297,351,o),
(297,351,cs),
(297,351,o),
(297,351,o),
(297,351,cs),
(297,351,o),
(297,351,o),
(297,351,cs)
);
}
);
width = 600;
}
);
unicode = (79,111);
},
{
glyphname = P;
lastChange = "2025-10-03 19:49:08 +0000";
layers = (
{
backgroundImage = {
imagePath = "New Folder With Items/Images/P_-Regular.tif";
locked = 1;
pos = (0,-27);
scale = (5.2922,6.0286);
};
layerId = m01;
shapes = (
{
closed = 1;
nodes = (
(234,658,o),
(240,700,o),
(365,700,cs),
(504,700,o),
(565,570,o),
(565,431,cs),
(565,326,o),
(465,208,o),
(418,194,cs),
(389,185,o),
(310,168,o),
(281,186,c),
(272,202,o),
(304,1,o),
(145,1,cs),
(69,1,o),
(21,59,o),
(31,175,cs),
(63,542,ls),
(72,640,o),
(92,685,o),
(149,685,cs),
(203,685,o),
(221,658,o),
(227,658,c)
);
},
{
closed = 1;
nodes = (
(215,628,o),
(205,658,o),
(149,658,cs),
(106,658,o),
(95,620,o),
(89,540,cs),
(62,181,ls),
(55,90,o),
(89,44,o),
(144,44,cs),
(281,44,o),
(246,239,o),
(257,229,c),
(287,202,o),
(360,204,o),
(402,220,cs),
(434,232,o),
(527,326,o),
(532,431,cs),
(537,537,o),
(465,668,o),
(359,668,cs),
(281,668,o),
(239,628,o),
(229,628,c)
);
},
{
closed = 1;
nodes = (
(331,433,o),
(331,433,o),
(331,433,cs),
(331,433,o),
(331,433,o),
(331,432,cs),
(331,432,o),
(331,432,o),
(331,432,cs),
(331,432,o),
(331,432,o),
(331,432,cs)
);
},
{
closed = 1;
nodes = (
(331,433,o),
(331,433,o),
(331,433,cs),
(331,433,o),
(331,433,o),
(331,432,cs),
(331,432,o),
(331,432,o),
(331,432,cs),
(331,432,o),
(331,432,o),
(331,432,cs)
);
},
{
closed = 1;
nodes = (
(338,423,o),
(347,416,o),
(350,421,cs),
(353,426,o),
(343,432,o),
(331,439,cs),
(318,446,o),
(310,451,o),
(307,446,cs),
(304,441,o),
(313,437,o),
(326,430,cs)
);
},
{
closed = 1;
nodes = (
(318,442,l),
(318,443,l),
(318,443,l),
(318,442,l)
);
},
{
closed = 1;
nodes = (
(329,433,l),
(329,433,l),
(327,434,l),
(327,434,l)
);
},
{
closed = 1;
nodes = (
(331,435,l),
(331,435,l),
(329,436,l),
(329,436,l)
);
},
{
closed = 1;
nodes = (
(339,428,l),
(340,428,l),
(339,428,l),
(339,428,l)
);
},
{
closed = 1;
nodes = (
(338,426,l),
(338,426,l),
(338,426,l),
(338,426,l)
);
},
{
closed = 1;
nodes = (
(317,441,l),
(317,441,l),
(317,441,l),
(317,441,l)
);
},
{
closed = 1;
nodes = (
(331,433,o),
(331,433,o),
(331,433,cs),
(331,433,o),
(331,433,o),
(331,433,cs),
(331,433,o),
(331,433,o),
(331,433,cs),
(331,433,o),
(331,433,o),
(331,433,cs)
);
}
);
width = 600;
},
{
layerId = "45082C4A-550E-4DA0-B494-F7E76CD90BF9";
shapes = (
{
closed = 1;
nodes = (
(234,658,o),
(240,700,o),
(365,700,cs),
(504,700,o),
(565,570,o),
(565,431,cs),
(565,326,o),
(465,208,o),
(418,194,cs),
(389,185,o),
(310,168,o),
(281,186,c),
(272,202,o),
(304,1,o),
(145,1,cs),
(69,1,o),
(21,59,o),
(31,175,cs),
(63,542,ls),
(72,640,o),
(92,685,o),
(149,685,cs),
(203,685,o),
(221,658,o),
(227,658,c)
);
},
{
closed = 1;
nodes = (
(215,628,o),
(205,658,o),
(149,658,cs),
(106,658,o),
(95,620,o),
(89,540,cs),
(62,181,ls),
(55,90,o),
(89,44,o),
(144,44,cs),
(281,44,o),
(246,239,o),
(257,229,c),
(287,202,o),
(360,204,o),
(402,220,cs),
(434,232,o),
(527,326,o),
(532,431,cs),
(537,537,o),
(465,668,o),
(359,668,cs),
(281,668,o),
(239,628,o),
(229,628,c)
);
},
{
closed = 1;
nodes = (
(266,397,o),
(244,447,o),
(265,484,cs),
(286,521,o),
(343,532,o),
(391,504,cs),
(438,477,o),
(456,423,o),
(435,386,cs),
(413,349,o),
(360,343,o),
(313,370,cs)
);
},
{
closed = 1;
nodes = (
(317,406,o),
(315,431,o),
(326,449,cs),
(336,468,o),
(354,473,o),
(368,465,cs),
(382,457,o),
(386,439,o),
(376,420,cs),
(365,402,o),
(345,390,o),
(331,398,cs)
);
},
{
closed = 1;
nodes = (
(360,341,o),
(415,348,o),
(437,385,cs),
(458,423,o),
(439,478,o),
(392,506,cs),
(343,534,o),
(285,523,o),
(263,485,cs),
(242,448,o),
(264,396,o),
(312,368,cs)
);
},
{
closed = 1;
nodes = (
(333,520,l),
(338,546,l),
(336,546,l),
(332,520,l)
);
},
{
closed = 1;
nodes = (
(393,505,l),
(407,530,l),
(405,531,l),
(391,506,l)
);
},
{
closed = 1;
nodes = (
(299,343,l),
(313,368,l),
(311,369,l),
(297,344,l)
);
},
{
closed = 1;
nodes = (
(432,467,l),
(453,483,l),
(452,485,l),
(430,469,l)
);
},
{
closed = 1;
nodes = (
(362,326,l),
(364,352,l),
(362,352,l),
(359,326,l)
);
},
{
closed = 1;
nodes = (
(245,398,l),
(267,413,l),
(266,414,l),
(245,399,l)
);
},
{
closed = 1;
nodes = (
(351,442,o),
(351,442,o),
(351,442,cs),
(351,442,o),
(351,442,o),
(351,442,cs),
(351,442,o),
(351,442,o),
(351,442,cs),
(351,442,o),
(351,442,o),
(351,442,cs)
);
}
);
width = 600;
}
);
unicode = (80,112);
},
{
glyphname = Q;
lastChange = "2025-10-03 19:49:08 +0000";
layers = (
{
backgroundImage = {
imagePath = "New Folder With Items/Images/Q_-Regular.tif";
locked = 1;
pos = (1,0);
scale = (5.7851,5.7851);
};
layerId = m01;
shapes = (
{
closed = 1;
nodes = (
(418,37,o),
(493,-6,o),
(540,52,cs),
(585,108,o),
(549,147,o),
(541,173,cs),
(523,230,o),
(582,286,o),
(582,351,cs),
(582,547,o),
(462,699,o),
(310,699,cs),
(143,699,o),
(24,547,o),
(24,351,cs),
(24,156,o),
(144,5,o),
(310,5,cs),
(404,5,o),
(398,60,o),
(416,39,cs)
);
},
{
closed = 1;
nodes = (
(372,100,o),
(389,39,o),
(310,39,cs),
(172,39,o),
(64,187,o),
(64,351,cs),
(64,517,o),
(172,659,o),
(310,659,cs),
(435,659,o),
(542,517,o),
(542,351,cs),
(542,285,o),
(478,234,o),
(501,173,cs),
(510,149,o),
(550,114,o),
(515,73,cs),
(478,30,o),
(436,69,o),
(416,79,cs)
);
},
{
closed = 1;
nodes = (
(293,358,o),
(293,358,o),
(293,358,cs),
(293,358,o),
(293,358,o),
(294,358,cs),
(294,358,o),
(294,358,o),
(294,358,cs),
(294,358,o),
(294,358,o),
(294,358,cs)
);
},
{
closed = 1;
nodes = (
(293,358,o),
(293,358,o),
(293,358,cs),
(293,358,o),
(293,358,o),
(294,358,cs),
(294,358,o),
(294,358,o),
(294,358,cs),
(294,358,o),
(294,358,o),
(294,358,cs)
);
},
{
closed = 1;
nodes = (
(306,350,o),
(319,348,o),
(319,354,cs),
(319,360,o),
(306,360,o),
(290,360,cs),
(276,360,o),
(269,360,o),
(269,354,cs),
(269,348,o),
(273,350,o),
(290,350,cs)
);
},
{
closed = 1;
nodes = (
(299,356,l),
(287,356,l),
(285,356,l),
(297,356,l)
);
},
{
closed = 1;
nodes = (
(275,354,l),
(275,354,l),
(273,354,l),
(273,354,l)
);
},
{
closed = 1;
nodes = (
(275,357,l),
(275,357,l),
(273,357,l),
(273,357,l)
);
},
{
closed = 1;
nodes = (
(284,355,l),
(298,355,l),
(296,355,l),
(282,355,l)
);
},
{
closed = 1;
nodes = (
(296,353,l),
(282,353,l),
(280,353,l),
(294,353,l)
);
},
{
closed = 1;
nodes = (
(288,354,l),
(302,354,l),
(300,354,l),
(286,354,l)
);
},
{
closed = 1;
nodes = (
(293,358,o),
(293,358,o),
(293,358,cs),
(293,358,o),
(293,358,o),
(293,358,cs),
(293,358,o),
(293,358,o),
(293,358,cs),
(293,358,o),
(293,358,o),
(293,358,cs)
);
}
);
width = 600;
},
{
layerId = "45082C4A-550E-4DA0-B494-F7E76CD90BF9";
shapes = (
{
closed = 1;
nodes = (
(418,37,o),
(493,-6,o),
(540,52,cs),
(585,108,o),
(549,147,o),
(541,173,cs),
(523,230,o),
(582,286,o),
(582,351,cs),
(582,547,o),
(462,699,o),
(310,699,cs),
(143,699,o),
(24,547,o),
(24,351,cs),
(24,156,o),
(144,5,o),
(310,5,cs),
(404,5,o),
(398,60,o),
(416,39,cs)
);
},
{
closed = 1;
nodes = (
(372,100,o),
(389,39,o),
(310,39,cs),
(172,39,o),
(64,187,o),
(64,351,cs),
(64,517,o),
(172,659,o),
(310,659,cs),
(435,659,o),
(542,517,o),
(542,351,cs),
(542,285,o),
(478,234,o),
(501,173,cs),
(510,149,o),
(550,114,o),
(515,73,cs),
(478,30,o),
(436,69,o),
(416,79,cs)
);
},
{
closed = 1;
nodes = (
(230,308,o),
(170,307,o),
(170,350,cs),
(170,392,o),
(229,398,o),
(300,398,cs),
(370,398,o),
(425,392,o),
(425,350,cs),
(425,307,o),
(371,308,o),
(301,308,cs)
);
},
{
closed = 1;
nodes = (
(280,308,o),
(261,329,o),
(261,350,cs),
(261,371,o),
(278,385,o),
(299,385,cs),
(320,385,o),
(337,371,o),
(337,350,cs),
(337,329,o),
(322,308,o),
(301,308,cs)
);
},
{
closed = 1;
nodes = (
(371,273,o),
(428,307,o),
(428,350,cs),
(428,393,o),
(371,432,o),
(299,432,cs),
(227,432,o),
(168,393,o),
(168,350,cs),
(168,307,o),
(227,273,o),
(299,273,cs)
);
},
{
closed = 1;
nodes = (
(224,415,l),
(212,440,l),
(210,439,l),
(222,414,l)
);
},
{
closed = 1;
nodes = (
(300,432,l),
(300,460,l),
(298,460,l),
(298,432,l)
);
},
{
closed = 1;
nodes = (
(300,245,l),
(300,273,l),
(298,273,l),
(298,245,l)
);
},
{
closed = 1;
nodes = (
(369,418,l),
(383,443,l),
(381,444,l),
(367,419,l)
);
},
{
closed = 1;
nodes = (
(382,261,l),
(368,285,l),
(366,284,l),
(380,260,l)
);
},
{
closed = 1;
nodes = (
(205,265,l),
(219,289,l),
(217,290,l),
(203,266,l)
);
},
{
closed = 1;
nodes = (
(295,356,o),
(295,356,o),
(295,356,cs),
(295,356,o),
(295,356,o),
(295,356,cs),
(295,356,o),
(295,356,o),
(295,356,cs),
(295,356,o),
(295,356,o),
(295,356,cs)
);
}
);
width = 600;
}
);
unicode = (81,113);
},
{
glyphname = R;
lastChange = "2025-10-03 19:49:08 +0000";
layers = (
{
backgroundImage = {
imagePath = "New Folder With Items/Images/R_-Regular.tif";
locked = 1;
pos = (0,-32);
scale = (5.8784,6.2157);
};
layerId = m01;
shapes = (
{
closed = 1;
nodes = (
(74,702,o),
(161,723,o),
(322,693,cs),
(471,665,o),
(564,594,o),
(564,493,cs),
(564,321,o),
(443,278,o),
(448,278,cs),
(463,278,o),
(522,240,o),
(512,152,cs),
(505,86,o),
(453,39,o),
(387,39,cs),
(331,39,o),
(321,99,o),
(283,99,cs),
(257,99,o),
(263,0,o),
(151,0,cs),
(78,0,o),
(34,91,o),
(30,173,cs),
(24,306,o),
(17,407,o),
(53,592,cs)
);
},
{
closed = 1;
nodes = (
(46,407,o),
(51,301,o),
(56,174,cs),
(59,94,o),
(91,21,o),
(151,21,cs),
(236,21,o),
(268,123,o),
(279,134,cs),
(309,164,o),
(320,71,o),
(379,71,cs),
(452,71,o),
(484,114,o),
(484,154,cs),
(484,240,o),
(431,266,o),
(409,278,cs),
(400,283,o),
(529,346,o),
(529,493,cs),
(529,583,o),
(441,629,o),
(322,664,cs),
(174,707,o),
(95,678,o),
(78,584,cs)
);
},
{
closed = 1;
nodes = (
(261,443,o),
(261,443,o),
(261,443,cs),
(261,443,o),
(261,443,o),
(262,443,cs),
(262,443,o),
(262,443,o),
(262,443,cs),
(262,443,o),
(262,443,o),
(262,443,cs)
);
},
{
closed = 1;
nodes = (
(261,443,o),
(261,443,o),
(261,443,cs),
(261,443,o),
(261,443,o),
(262,443,cs),
(262,443,o),
(262,443,o),
(262,443,cs),
(262,443,o),
(262,443,o),
(262,443,cs)
);
},
{
closed = 1;
nodes = (
(277,433,o),
(290,441,o),
(290,447,cs),
(290,453,o),
(277,460,o),
(261,460,cs),
(247,460,o),
(240,453,o),
(240,447,cs),
(240,441,o),
(244,433,o),
(261,433,cs)
);
},
{
closed = 1;
nodes = (
(270,449,l),
(258,449,l),
(256,449,l),
(268,449,l)
);
},
{
closed = 1;
nodes = (
(246,447,l),
(246,447,l),
(244,447,l),
(244,447,l)
);
},
{
closed = 1;
nodes = (
(246,450,l),
(246,450,l),
(244,450,l),
(244,450,l)
);
},
{
closed = 1;
nodes = (
(255,448,l),
(269,448,l),
(267,448,l),
(253,448,l)
);
},
{
closed = 1;
nodes = (
(267,446,l),
(253,446,l),
(251,446,l),
(265,446,l)
);
},
{
closed = 1;
nodes = (
(259,447,l),
(273,447,l),
(271,447,l),
(257,447,l)
);
},
{
closed = 1;
nodes = (
(261,443,o),
(261,443,o),
(261,443,cs),
(261,443,o),
(261,443,o),
(261,443,cs),
(261,443,o),
(261,443,o),
(261,443,cs),
(261,443,o),
(261,443,o),
(261,443,cs)
);
}
);
width = 600;
},
{
layerId = "45082C4A-550E-4DA0-B494-F7E76CD90BF9";
shapes = (
{
closed = 1;
nodes = (
(74,702,o),
(161,723,o),
(322,693,cs),
(471,665,o),
(564,594,o),
(564,493,cs),
(564,321,o),
(443,278,o),
(448,278,cs),
(463,278,o),
(522,240,o),
(512,152,cs),
(505,86,o),
(453,39,o),
(387,39,cs),
(331,39,o),
(321,99,o),
(283,99,cs),
(257,99,o),
(263,0,o),
(151,0,cs),
(78,0,o),
(34,91,o),
(30,173,cs),
(24,306,o),
(17,407,o),
(53,592,cs)
);
},
{
closed = 1;
nodes = (
(46,407,o),
(51,301,o),
(56,174,cs),
(59,94,o),
(91,21,o),
(151,21,cs),
(236,21,o),
(268,123,o),
(279,134,cs),
(309,164,o),
(320,71,o),
(379,71,cs),
(452,71,o),
(484,114,o),
(484,154,cs),
(484,240,o),
(431,266,o),
(409,278,cs),
(400,283,o),
(529,346,o),
(529,493,cs),
(529,583,o),
(441,629,o),
(322,664,cs),
(174,707,o),
(95,678,o),
(78,584,cs)
);
},
{
closed = 1;
nodes = (
(200,361,o),
(180,393,o),
(180,436,cs),
(180,478,o),
(200,516,o),
(271,516,cs),
(341,516,o),
(359,478,o),
(359,436,cs),
(359,393,o),
(341,361,o),
(271,361,cs)
);
},
{
closed = 1;
nodes = (
(252,394,o),
(233,415,o),
(233,436,cs),
(233,457,o),
(250,471,o),
(271,471,cs),
(292,471,o),
(309,457,o),
(309,436,cs),
(309,415,o),
(294,394,o),
(273,394,cs)
);
},
{
closed = 1;
nodes = (
(343,359,o),
(400,393,o),
(400,436,cs),
(400,479,o),
(343,518,o),
(271,518,cs),
(199,518,o),
(140,479,o),
(140,436,cs),
(140,393,o),
(199,359,o),
(271,359,cs)
);
},
{
closed = 1;
nodes = (
(196,501,l),
(184,526,l),
(182,525,l),
(194,500,l)
);
},
{
closed = 1;
nodes = (
(272,518,l),
(272,546,l),
(270,546,l),
(270,518,l)
);
},
{
closed = 1;
nodes = (
(272,331,l),
(272,359,l),
(270,359,l),
(270,331,l)
);
},
{
closed = 1;
nodes = (
(341,504,l),
(355,529,l),
(353,530,l),
(339,505,l)
);
},
{
closed = 1;
nodes = (
(354,347,l),
(340,371,l),
(338,370,l),
(352,346,l)
);
},
{
closed = 1;
nodes = (
(177,351,l),
(191,375,l),
(189,376,l),
(175,352,l)
);
},
{
closed = 1;
nodes = (
(267,442,o),
(267,442,o),
(267,442,cs),
(267,442,o),
(267,442,o),
(267,442,cs),
(267,442,o),
(267,442,o),
(267,442,cs),
(267,442,o),
(267,442,o),
(267,442,cs)
);
}
);
width = 600;
}
);
unicode = (82,114);
},
{
glyphname = S;
lastChange = "2025-10-03 19:49:08 +0000";
layers = (
{
backgroundImage = {
imagePath = "New Folder With Items/Images/S_-Regular.tif";
locked = 1;
pos = (-25,-20);
scale = (6.4057,6.4057);
};
layerId = m01;
shapes = (
{
closed = 1;
nodes = (
(469,704,o),
(597,631,o),
(597,500,cs),
(597,323,o),
(494,341,o),
(494,332,cs),
(494,326,o),
(585,300,o),
(585,164,cs),
(585,46,o),
(464,-5,o),
(279,-5,cs),
(96,-5,o),
(5,40,o),
(5,131,cs),
(5,284,o),
(113,256,o),
(113,273,cs),
(113,297,o),
(13,300,o),
(9,484,cs),
(6,618,o),
(154,704,o),
(297,704,cs)
);
},
{
closed = 1;
nodes = (
(162,684,o),
(38,599,o),
(38,482,cs),
(38,284,o),
(149,321,o),
(149,266,cs),
(149,210,o),
(40,255,o),
(40,132,cs),
(40,59,o),
(114,28,o),
(281,28,cs),
(446,28,o),
(546,68,o),
(546,164,cs),
(546,283,o),
(426,304,o),
(426,343,cs),
(426,358,o),
(546,344,o),
(546,500,cs),
(546,594,o),
(459,684,o),
(296,684,cs)
);
},
{
closed = 1;
nodes = (
(270,483,o),
(270,483,o),
(270,483,cs),
(270,483,o),
(270,483,o),
(271,483,cs),
(271,483,o),
(271,483,o),
(271,483,cs),
(271,483,o),
(271,483,o),
(271,483,cs)
);
},
{
closed = 1;
nodes = (
(270,483,o),
(270,483,o),
(270,483,cs),
(270,483,o),
(270,483,o),
(271,483,cs),
(271,483,o),
(271,483,o),
(271,483,cs),
(271,483,o),
(271,483,o),
(271,483,cs)
);
},
{
closed = 1;
nodes = (
(285,478,o),
(287,476,o),
(287,482,cs),
(287,488,o),
(285,488,o),
(269,488,cs),
(255,488,o),
(250,489,o),
(250,483,cs),
(250,477,o),
(252,478,o),
(269,478,cs)
);
},
{
closed = 1;
nodes = (
(278,484,l),
(266,484,l),
(264,484,l),
(276,484,l)
);
},
{
closed = 1;
nodes = (
(254,482,l),
(254,482,l),
(252,482,l),
(252,482,l)
);
},
{
closed = 1;
nodes = (
(254,485,l),
(254,485,l),
(252,485,l),
(252,485,l)
);
},
{
closed = 1;
nodes = (
(263,483,l),
(277,483,l),
(275,483,l),
(261,483,l)
);
},
{
closed = 1;
nodes = (
(275,481,l),
(261,481,l),
(259,481,l),
(273,481,l)
);
},
{
closed = 1;
nodes = (
(267,482,l),
(281,482,l),
(279,482,l),
(265,482,l)
);
},
{
closed = 1;
nodes = (
(270,483,o),
(270,483,o),
(270,483,cs),
(270,483,o),
(270,483,o),
(270,483,cs),
(270,483,o),
(270,483,o),
(270,483,cs),
(270,483,o),
(270,483,o),
(270,483,cs)
);
}
);
width = 600;
},
{
layerId = "45082C4A-550E-4DA0-B494-F7E76CD90BF9";
shapes = (
{
closed = 1;
nodes = (
(469,704,o),
(597,631,o),
(597,500,cs),
(597,323,o),
(494,341,o),
(494,332,cs),
(494,326,o),
(585,300,o),
(585,164,cs),
(585,46,o),
(464,-5,o),
(279,-5,cs),
(96,-5,o),
(5,40,o),
(5,131,cs),
(5,284,o),
(113,256,o),
(113,273,cs),
(113,297,o),
(13,300,o),
(9,484,cs),
(6,618,o),
(154,704,o),
(297,704,cs)
);
},
{
closed = 1;
nodes = (
(162,684,o),
(38,599,o),
(38,482,cs),
(38,284,o),
(149,321,o),
(149,266,cs),
(149,210,o),
(40,255,o),
(40,132,cs),
(40,59,o),
(114,28,o),
(281,28,cs),
(446,28,o),
(546,68,o),
(546,164,cs),
(546,283,o),
(426,304,o),
(426,343,cs),
(426,358,o),
(546,344,o),
(546,500,cs),
(546,594,o),
(459,684,o),
(296,684,cs)
);
},
{
closed = 1;
nodes = (
(251,402,o),
(196,384,o),
(175,421,cs),
(154,457,o),
(190,504,o),
(251,540,cs),
(312,575,o),
(374,585,o),
(395,548,cs),
(417,511,o),
(373,472,o),
(313,437,cs)
);
},
{
closed = 1;
nodes = (
(291,439,o),
(264,448,o),
(253,466,cs),
(243,484,o),
(251,505,o),
(269,516,cs),
(287,526,o),
(309,522,o),
(319,504,cs),
(330,486,o),
(327,460,o),
(309,450,cs)
);
},
{
closed = 1;
nodes = (
(387,455,o),
(419,513,o),
(398,550,cs),
(376,587,o),
(308,592,o),
(245,556,cs),
(183,520,o),
(151,457,o),
(173,420,cs),
(194,383,o),
(262,383,o),
(325,419,cs)
);
},
{
closed = 1;
nodes = (
(189,504,l),
(166,520,l),
(165,518,l),
(188,502,l)
);
},
{
closed = 1;
nodes = (
(246,557,l),
(232,581,l),
(230,580,l),
(244,556,l)
);
},
{
closed = 1;
nodes = (
(340,395,l),
(326,419,l),
(324,418,l),
(338,394,l)
);
},
{
closed = 1;
nodes = (
(313,579,l),
(312,608,l),
(310,608,l),
(311,579,l)
);
},
{
closed = 1;
nodes = (
(403,450,l),
(378,463,l),
(377,462,l),
(401,448,l)
);
},
{
closed = 1;
nodes = (
(247,365,l),
(247,392,l),
(245,392,l),
(245,365,l)
);
},
{
closed = 1;
nodes = (
(280,488,o),
(280,488,o),
(280,488,cs),
(280,488,o),
(280,488,o),
(280,488,cs),
(280,488,o),
(280,488,o),
(280,488,cs),
(280,488,o),
(280,488,o),
(280,488,cs)
);
}
);
width = 600;
}
);
unicode = (83,115);
},
{
glyphname = T;
lastChange = "2025-10-03 19:49:08 +0000";
layers = (
{
backgroundImage = {
imagePath = "New Folder With Items/Images/T_-Regular.tif";
locked = 1;
pos = (-14,-37);
scale = (5.8374,6.1023);
};
layerId = m01;
shapes = (
{
closed = 1;
nodes = (
(477,709,o),
(581,632,o),
(584,499,cs),
(588,312,o),
(393,293,o),
(394,283,cs),
(416,108,o),
(372,-4,o),
(256,-4,cs),
(143,-4,o),
(100,98,o),
(154,284,cs),
(158,297,o),
(12,282,o),
(20,497,cs),
(26,636,o),
(114,709,o),
(289,709,cs)
);
},
{
closed = 1;
nodes = (
(540,630,o),
(444,693,o),
(289,687,cs),
(134,681,o),
(52,603,o),
(41,497,cs),
(22,316,o),
(183,333,o),
(177,310,cs),
(134,152,o),
(171,20,o),
(254,20,cs),
(352,20,o),
(390,151,o),
(371,310,cs),
(369,329,o),
(540,315,o),
(540,500,cs)
);
},
{
closed = 1;
nodes = (
(285,492,o),
(285,492,o),
(285,492,cs),
(285,492,o),
(285,492,o),
(286,492,cs),
(286,492,o),
(286,492,o),
(286,492,cs),
(286,492,o),
(286,492,o),
(286,492,cs)
);
},
{
closed = 1;
nodes = (
(285,492,o),
(285,492,o),
(285,492,cs),
(285,492,o),
(285,492,o),
(286,492,cs),
(286,492,o),
(286,492,o),
(286,492,cs),
(286,492,o),
(286,492,o),
(286,492,cs)
);
},
{
closed = 1;
nodes = (
(301,487,o),
(314,485,o),
(314,491,cs),
(314,497,o),
(301,497,o),
(285,497,cs),
(271,497,o),
(264,497,o),
(264,491,cs),
(264,485,o),
(268,487,o),
(285,487,cs)
);
},
{
closed = 1;
nodes = (
(294,493,l),
(282,493,l),
(280,493,l),
(292,493,l)
);
},
{
closed = 1;
nodes = (
(270,491,l),
(270,491,l),
(268,491,l),
(268,491,l)
);
},
{
closed = 1;
nodes = (
(270,494,l),
(270,494,l),
(268,494,l),
(268,494,l)
);
},
{
closed = 1;
nodes = (
(279,492,l),
(293,492,l),
(291,492,l),
(277,492,l)
);
},
{
closed = 1;
nodes = (
(291,490,l),
(277,490,l),
(275,490,l),
(289,490,l)
);
},
{
closed = 1;
nodes = (
(283,491,l),
(297,491,l),
(295,491,l),
(281,491,l)
);
},
{
closed = 1;
nodes = (
(285,492,o),
(285,492,o),
(285,492,cs),
(285,492,o),
(285,492,o),
(285,492,cs),
(285,492,o),
(285,492,o),
(285,492,cs),
(285,492,o),
(285,492,o),
(285,492,cs)
);
}
);
width = 600;
},
{
layerId = "45082C4A-550E-4DA0-B494-F7E76CD90BF9";
shapes = (
{
closed = 1;
nodes = (
(477,709,o),
(581,632,o),
(584,499,cs),
(588,312,o),
(393,293,o),
(394,283,cs),
(416,108,o),
(372,-4,o),
(256,-4,cs),
(143,-4,o),
(100,98,o),
(154,284,cs),
(158,297,o),
(12,282,o),
(20,497,cs),
(26,636,o),
(114,709,o),
(289,709,cs)
);
},
{
closed = 1;
nodes = (
(540,630,o),
(444,693,o),
(289,687,cs),
(134,681,o),
(52,603,o),
(41,497,cs),
(22,316,o),
(183,333,o),
(177,310,cs),
(134,152,o),
(171,20,o),
(254,20,cs),
(352,20,o),
(390,151,o),
(371,310,cs),
(369,329,o),
(540,315,o),
(540,500,cs)
);
},
{
closed = 1;
nodes = (
(224,427,o),
(166,459,o),
(166,502,cs),
(166,544,o),
(224,582,o),
(295,582,cs),
(365,582,o),
(421,544,o),
(421,502,cs),
(421,459,o),
(365,427,o),
(295,427,cs)
);
},
{
closed = 1;
nodes = (
(276,460,o),
(257,481,o),
(257,502,cs),
(257,523,o),
(274,537,o),
(295,537,cs),
(316,537,o),
(333,523,o),
(333,502,cs),
(333,481,o),
(318,460,o),
(297,460,cs)
);
},
{
closed = 1;
nodes = (
(367,425,o),
(424,459,o),
(424,502,cs),
(424,545,o),
(367,584,o),
(295,584,cs),
(223,584,o),
(164,545,o),
(164,502,cs),
(164,459,o),
(223,425,o),
(295,425,cs)
);
},
{
closed = 1;
nodes = (
(220,567,l),
(208,592,l),
(206,591,l),
(218,566,l)
);
},
{
closed = 1;
nodes = (
(296,584,l),
(296,612,l),
(294,612,l),
(294,584,l)
);
},
{
closed = 1;
nodes = (
(296,397,l),
(296,425,l),
(294,425,l),
(294,397,l)
);
},
{
closed = 1;
nodes = (
(365,570,l),
(379,595,l),
(377,596,l),
(363,571,l)
);
},
{
closed = 1;
nodes = (
(378,413,l),
(364,437,l),
(362,436,l),
(376,412,l)
);
},
{
closed = 1;
nodes = (
(201,417,l),
(215,441,l),
(213,442,l),
(199,418,l)
);
},
{
closed = 1;
nodes = (
(291,508,o),
(291,508,o),
(291,508,cs),
(291,508,o),
(291,508,o),
(291,508,cs),
(291,508,o),
(291,508,o),
(291,508,cs),
(291,508,o),
(291,508,o),
(291,508,cs)
);
}
);
width = 600;
}
);
unicode = (84,116);
},
{
glyphname = U;
lastChange = "2025-10-03 19:49:08 +0000";
layers = (
{
backgroundImage = {
imagePath = "New Folder With Items/Images/U_-Regular.tif";
locked = 1;
pos = (0,-29);
scale = (5.7221,5.9028);
};
layerId = m01;
shapes = (
{
closed = 1;
nodes = (
(318,657,o),
(310,710,o),
(422,712,cs),
(525,714,o),
(577,593,o),
(577,355,cs),
(577,119,o),
(466,-3,o),
(309,-3,cs),
(144,-3,o),
(57,97,o),
(28,294,cs),
(-8,541,o),
(44,704,o),
(173,704,cs),
(252,704,o),
(273,657,o),
(300,657,cs)
);
},
{
closed = 1;
nodes = (
(287,604,o),
(239,670,o),
(173,670,cs),
(78,670,o),
(13,544,o),
(57,301,cs),
(92,108,o),
(164,21,o),
(311,24,cs),
(455,27,o),
(554,128,o),
(554,352,cs),
(554,559,o),
(508,667,o),
(422,667,cs),
(329,667,o),
(316,604,o),
(300,604,cs)
);
},
{
closed = 1;
nodes = (
(302,168,o),
(302,168,o),
(302,168,cs),
(302,168,o),
(302,168,o),
(302,168,cs),
(302,168,o),
(302,168,o),
(302,168,cs),
(302,168,o),
(302,168,o),
(302,168,cs)
);
},
{
closed = 1;
nodes = (
(302,168,o),
(302,168,o),
(302,168,cs),
(302,168,o),
(302,168,o),
(302,168,cs),
(302,168,o),
(302,168,o),
(302,168,cs),
(302,168,o),
(302,168,o),
(302,168,cs)
);
},
{
closed = 1;
nodes = (
(290,153,o),
(295,139,o),
(304,136,cs),
(312,133,o),
(318,144,o),
(319,160,cs),
(319,176,o),
(314,190,o),
(306,192,cs),
(299,195,o),
(293,185,o),
(291,167,cs)
);
},
{
closed = 1;
nodes = (
(311,180,l),
(311,180,l),
(311,180,l),
(311,180,l)
);
},
{
closed = 1;
nodes = (
(308,162,l),
(308,162,l),
(308,162,l),
(308,162,l)
);
},
{
closed = 1;
nodes = (
(300,157,l),
(300,157,l),
(300,157,l),
(300,157,l)
);
},
{
closed = 1;
nodes = (
(308,148,l),
(308,148,l),
(308,148,l),
(308,148,l)
);
},
{
closed = 1;
nodes = (
(299,149,l),
(299,149,l),
(299,149,l),
(299,149,l)
);
},
{
closed = 1;
nodes = (
(300,175,l),
(300,175,l),
(300,175,l),
(300,175,l)
);
},
{
closed = 1;
nodes = (
(302,168,o),
(302,168,o),
(302,168,cs),
(302,168,o),
(302,168,o),
(302,168,cs),
(302,168,o),
(302,168,o),
(302,168,cs),
(302,168,o),
(302,168,o),
(302,168,cs)
);
}
);
width = 600;
},
{
layerId = "45082C4A-550E-4DA0-B494-F7E76CD90BF9";
shapes = (
{
closed = 1;
nodes = (
(318,657,o),
(310,710,o),
(422,712,cs),
(525,714,o),
(577,593,o),
(577,355,cs),
(577,119,o),
(466,-3,o),
(309,-3,cs),
(144,-3,o),
(57,97,o),
(28,294,cs),
(-8,541,o),
(44,704,o),
(173,704,cs),
(252,704,o),
(273,657,o),
(300,657,cs)
);
},
{
closed = 1;
nodes = (
(287,604,o),
(239,670,o),
(173,670,cs),
(78,670,o),
(13,544,o),
(57,301,cs),
(92,108,o),
(164,21,o),
(311,24,cs),
(455,27,o),
(554,128,o),
(554,352,cs),
(554,559,o),
(508,667,o),
(422,667,cs),
(329,667,o),
(316,604,o),
(300,604,cs)
);
},
{
closed = 1;
nodes = (
(247,223,o),
(267,261,o),
(296,262,cs),
(323,261,o),
(347,224,o),
(347,178,cs),
(348,133,o),
(323,97,o),
(295,97,cs),
(267,97,o),
(247,133,o),
(247,179,cs)
);
},
{
closed = 1;
nodes = (
(270,190,o),
(282,203,o),
(296,203,cs),
(310,203,o),
(318,196,o),
(320,179,cs),
(321,166,o),
(310,153,o),
(295,153,cs),
(282,153,o),
(270,163,o),
(270,176,cs)
);
},
{
closed = 1;
nodes = (
(246,131,o),
(268,94,o),
(296,95,cs),
(324,94,o),
(348,132,o),
(349,178,cs),
(349,225,o),
(323,263,o),
(296,263,cs),
(267,263,o),
(246,225,o),
(246,178,cs)
);
},
{
closed = 1;
nodes = (
(338,227,l),
(354,234,l),
(353,235,l),
(337,227,l)
);
},
{
closed = 1;
nodes = (
(348,177,l),
(366,177,l),
(367,179,l),
(348,179,l)
);
},
{
closed = 1;
nodes = (
(228,177,l),
(246,177,l),
(246,179,l),
(228,179,l)
);
},
{
closed = 1;
nodes = (
(340,133,l),
(355,124,l),
(356,126,l),
(340,134,l)
);
},
{
closed = 1;
nodes = (
(238,125,l),
(253,133,l),
(253,135,l),
(238,125,l)
);
},
{
closed = 1;
nodes = (
(240,239,l),
(257,230,l),
(256,231,l),
(241,241,l)
);
},
{
closed = 1;
nodes = (
(300,180,o),
(300,180,o),
(300,180,cs),
(300,180,o),
(300,180,o),
(300,180,cs),
(300,180,o),
(300,180,o),
(300,180,cs),
(300,180,o),
(300,180,o),
(300,180,cs)
);
}
);
width = 600;
}
);
unicode = (85,117);
},
{
glyphname = V;
lastChange = "2025-10-03 19:49:08 +0000";
layers = (
{
backgroundImage = {
imagePath = "New Folder With Items/Images/V_-Regular.tif";
locked = 1;
pos = (0,-37);
scale = (5.3839,6.1941);
};
layerId = m01;
shapes = (
{
closed = 1;
nodes = (
(319,526,o),
(357,692,o),
(490,695,cs),
(730,700,o),
(479,0,o),
(295,-3,cs),
(111,-6,o),
(-142,663,o),
(105,715,cs),
(239,743,o),
(299,520,o),
(299,520,cs)
);
},
{
closed = 1;
nodes = (
(284,449,o),
(234,694,o),
(116,684,cs),
(-84,667,o),
(116,40,o),
(295,40,cs),
(462,40,o),
(682,642,o),
(469,660,cs),
(395,666,o),
(317,449,o),
(301,449,cs)
);
},
{
closed = 1;
nodes = (
(286,325,o),
(286,325,o),
(286,325,cs),
(286,325,o),
(286,325,o),
(286,324,cs),
(286,324,o),
(286,324,o),
(286,324,cs),
(286,324,o),
(286,324,o),
(286,324,cs)
);
},
{
closed = 1;
nodes = (
(286,325,o),
(286,325,o),
(286,325,cs),
(286,325,o),
(286,325,o),
(286,324,cs),
(286,324,o),
(286,324,o),
(286,324,cs),
(286,324,o),
(286,324,o),
(286,324,cs)
);
},
{
closed = 1;
nodes = (
(274,301,o),
(285,292,o),
(291,292,cs),
(297,292,o),
(310,301,o),
(310,317,cs),
(310,331,o),
(297,342,o),
(291,342,cs),
(285,342,o),
(274,334,o),
(274,317,cs)
);
},
{
closed = 1;
nodes = (
(293,312,l),
(293,324,l),
(293,326,l),
(293,314,l)
);
},
{
closed = 1;
nodes = (
(291,336,l),
(291,336,l),
(291,338,l),
(291,338,l)
);
},
{
closed = 1;
nodes = (
(294,336,l),
(294,336,l),
(294,338,l),
(294,338,l)
);
},
{
closed = 1;
nodes = (
(292,327,l),
(292,313,l),
(292,315,l),
(292,329,l)
);
},
{
closed = 1;
nodes = (
(290,315,l),
(290,329,l),
(290,331,l),
(290,317,l)
);
},
{
closed = 1;
nodes = (
(291,323,l),
(291,309,l),
(291,311,l),
(291,325,l)
);
},
{
closed = 1;
nodes = (
(286,325,o),
(286,325,o),
(286,325,cs),
(286,325,o),
(286,325,o),
(286,325,cs),
(286,325,o),
(286,325,o),
(286,325,cs),
(286,325,o),
(286,325,o),
(286,325,cs)
);
}
);
width = 600;
},
{
layerId = "45082C4A-550E-4DA0-B494-F7E76CD90BF9";
shapes = (
{
closed = 1;
nodes = (
(319,526,o),
(357,692,o),
(490,695,cs),
(730,700,o),
(479,0,o),
(295,-3,cs),
(111,-6,o),
(-142,663,o),
(105,715,cs),
(239,743,o),
(299,520,o),
(299,520,cs)
);
},
{
closed = 1;
nodes = (
(284,449,o),
(234,694,o),
(116,684,cs),
(-84,667,o),
(116,40,o),
(295,40,cs),
(462,40,o),
(682,642,o),
(469,660,cs),
(395,666,o),
(317,449,o),
(301,449,cs)
);
},
{
closed = 1;
nodes = (
(225,237,o),
(192,269,o),
(192,312,cs),
(192,354,o),
(225,392,o),
(296,392,cs),
(366,392,o),
(393,354,o),
(393,312,cs),
(393,269,o),
(366,237,o),
(296,237,cs)
);
},
{
closed = 1;
nodes = (
(277,270,o),
(258,291,o),
(258,312,cs),
(258,333,o),
(275,347,o),
(296,347,cs),
(317,347,o),
(334,333,o),
(334,312,cs),
(334,291,o),
(319,270,o),
(298,270,cs)
);
},
{
closed = 1;
nodes = (
(368,235,o),
(425,269,o),
(425,312,cs),
(425,355,o),
(368,394,o),
(296,394,cs),
(224,394,o),
(165,355,o),
(165,312,cs),
(165,269,o),
(224,235,o),
(296,235,cs)
);
},
{
closed = 1;
nodes = (
(221,377,l),
(209,402,l),
(207,401,l),
(219,376,l)
);
},
{
closed = 1;
nodes = (
(297,394,l),
(297,422,l),
(295,422,l),
(295,394,l)
);
},
{
closed = 1;
nodes = (
(297,207,l),
(297,235,l),
(295,235,l),
(295,207,l)
);
},
{
closed = 1;
nodes = (
(366,380,l),
(380,405,l),
(378,406,l),
(364,381,l)
);
},
{
closed = 1;
nodes = (
(379,223,l),
(365,247,l),
(363,246,l),
(377,222,l)
);
},
{
closed = 1;
nodes = (
(202,227,l),
(216,251,l),
(214,252,l),
(200,228,l)
);
},
{
closed = 1;
nodes = (
(292,318,o),
(292,318,o),
(292,318,cs),
(292,318,o),
(292,318,o),
(292,318,cs),
(292,318,o),
(292,318,o),
(292,318,cs),
(292,318,o),
(292,318,o),
(292,318,cs)
);
}
);
width = 600;
}
);
unicode = (86,118);
},
{
glyphname = W;
lastChange = "2025-10-03 19:49:08 +0000";
layers = (
{
backgroundImage = {
angle = -179.50854;
imagePath = "New Folder With Items/Images/W_-Regular.tif";
pos = (109,119);
};
layerId = m01;
shapes = (
{
closed = 1;
nodes = (
(325,121,o),
(323,-3,o),
(426,-3,c),
(488,-3,o),
(526,54,o),
(539,133,c),
(577,279,o),
(597,433,o),
(577,574,cs),
(565,663,o),
(523,705,o),
(481,707,cs),
(360,712,o),
(386,540,o),
(360,540,cs),
(336,540,o),
(342,594,o),
(302,595,cs),
(258,595,o),
(237,528,o),
(239,543,cs),
(244,593,o),
(201,706,o),
(135,707,cs),
(81,708,o),
(43,650,o),
(19,567,c),
(-6,448,o),
(-4,320,o),
(26,180,cs),
(52,71,o),
(67,17,o),
(149,17,cs),
(240,17,o),
(246,121,o),
(282,121,cs)
);
},
{
closed = 1;
nodes = (
(370,36,o),
(352,182,o),
(289,182,cs),
(229,182,o),
(218,62,o),
(148,58,cs),
(95,58,o),
(93,99,o),
(68,180,c),
(36,316,o),
(33,440,o),
(52,555,c),
(69,606,o),
(94,643,o),
(128,643,cs),
(224,643,o),
(193,469,o),
(227,469,cs),
(262,469,o),
(271,549,o),
(302,549,cs),
(327,549,o),
(322,474,o),
(366,474,cs),
(406,474,o),
(400,665,o),
(477,665,cs),
(510,665,o),
(543,635,o),
(547,560,cs),
(555,420,o),
(541,280,o),
(508,140,c),
(488,79,o),
(480,36,o),
(430,36,cs)
);
},
{
closed = 1;
nodes = (
(380,302,o),
(380,302,o),
(380,302,cs),
(380,302,o),
(380,302,o),
(380,301,cs),
(380,301,o),
(380,301,o),
(380,301,cs),
(380,301,o),
(380,301,o),
(380,301,cs)
);
},
{
closed = 1;
nodes = (
(380,302,o),
(380,302,o),
(380,302,cs),
(380,302,o),
(380,302,o),
(380,301,cs),
(380,301,o),
(380,301,o),
(380,301,cs),
(380,301,o),
(380,301,o),
(380,301,cs)
);
},
{
closed = 1;
nodes = (
(374,274,o),
(372,261,o),
(378,261,cs),
(384,261,o),
(384,274,o),
(384,290,cs),
(384,304,o),
(384,311,o),
(378,311,cs),
(372,311,o),
(374,307,o),
(374,290,cs)
);
},
{
closed = 1;
nodes = (
(380,281,l),
(380,293,l),
(380,295,l),
(380,283,l)
);
},
{
closed = 1;
nodes = (
(378,305,l),
(378,305,l),
(378,307,l),
(378,307,l)
);
},
{
closed = 1;
nodes = (
(381,305,l),
(381,305,l),
(381,307,l),
(381,307,l)
);
},
{
closed = 1;
nodes = (
(379,296,l),
(379,282,l),
(379,284,l),
(379,298,l)
);
},
{
closed = 1;
nodes = (
(377,284,l),
(377,298,l),
(377,300,l),
(377,286,l)
);
},
{
closed = 1;
nodes = (
(378,292,l),
(378,278,l),
(378,280,l),
(378,294,l)
);
},
{
closed = 1;
nodes = (
(380,302,o),
(380,302,o),
(380,302,cs),
(380,302,o),
(380,302,o),
(380,302,cs),
(380,302,o),
(380,302,o),
(380,302,cs),
(380,302,o),
(380,302,o),
(380,302,cs)
);
},
{
closed = 1;
nodes = (
(200,299,o),
(200,299,o),
(200,299,cs),
(200,299,o),
(200,299,o),
(200,298,cs),
(200,298,o),
(200,298,o),
(200,298,cs),
(200,298,o),
(200,298,o),
(200,298,cs)
);
},
{
closed = 1;
nodes = (
(200,299,o),
(200,299,o),
(200,299,cs),
(200,299,o),
(200,299,o),
(200,298,cs),
(200,298,o),
(200,298,o),
(200,298,cs),
(200,298,o),
(200,298,o),
(200,298,cs)
);
},
{
closed = 1;
nodes = (
(196,271,o),
(194,258,o),
(200,258,cs),
(206,258,o),
(206,271,o),
(206,287,cs),
(206,301,o),
(206,308,o),
(200,308,cs),
(194,308,o),
(196,304,o),
(196,287,cs)
);
},
{
closed = 1;
nodes = (
(202,278,l),
(202,290,l),
(202,292,l),
(202,280,l)
);
},
{
closed = 1;
nodes = (
(200,302,l),
(200,302,l),
(200,304,l),
(200,304,l)
);
},
{
closed = 1;
nodes = (
(203,302,l),
(203,302,l),
(203,304,l),
(203,304,l)
);
},
{
closed = 1;
nodes = (
(201,293,l),
(201,279,l),
(201,281,l),
(201,295,l)
);
},
{
closed = 1;
nodes = (
(199,281,l),
(199,295,l),
(199,297,l),
(199,283,l)
);
},
{
closed = 1;
nodes = (
(200,289,l),
(200,275,l),
(200,277,l),
(200,291,l)
);
},
{
closed = 1;
nodes = (
(200,299,o),
(200,299,o),
(200,299,cs),
(200,299,o),
(200,299,o),
(200,299,cs),
(200,299,o),
(200,299,o),
(200,299,cs),
(200,299,o),
(200,299,o),
(200,299,cs)
);
}
);
width = 600;
},
{
layerId = "45082C4A-550E-4DA0-B494-F7E76CD90BF9";
shapes = (
{
closed = 1;
nodes = (
(325,121,o),
(323,-3,o),
(426,-3,c),
(488,-3,o),
(526,54,o),
(539,133,c),
(577,279,o),
(597,433,o),
(577,574,cs),
(565,663,o),
(523,705,o),
(481,707,cs),
(360,712,o),
(386,540,o),
(360,540,cs),
(336,540,o),
(342,594,o),
(302,595,cs),
(258,595,o),
(237,528,o),
(239,543,cs),
(244,593,o),
(201,706,o),
(135,707,cs),
(81,708,o),
(43,650,o),
(19,567,c),
(-6,448,o),
(-4,320,o),
(26,180,cs),
(52,71,o),
(67,17,o),
(149,17,cs),
(240,17,o),
(246,121,o),
(282,121,cs)
);
},
{
closed = 1;
nodes = (
(370,36,o),
(352,182,o),
(289,182,cs),
(229,182,o),
(218,62,o),
(148,58,cs),
(95,58,o),
(93,99,o),
(68,180,c),
(36,316,o),
(33,440,o),
(52,555,c),
(69,606,o),
(94,643,o),
(128,643,cs),
(224,643,o),
(193,469,o),
(227,469,cs),
(262,469,o),
(271,549,o),
(302,549,cs),
(327,549,o),
(322,474,o),
(366,474,cs),
(406,474,o),
(400,665,o),
(477,665,cs),
(510,665,o),
(543,635,o),
(547,560,cs),
(555,420,o),
(541,280,o),
(508,140,c),
(488,79,o),
(480,36,o),
(430,36,cs)
);
},
{
closed = 1;
nodes = (
(350,352,o),
(367,382,o),
(389,382,cs),
(411,382,o),
(431,352,o),
(431,316,cs),
(431,279,o),
(411,251,o),
(389,251,cs),
(367,251,o),
(350,279,o),
(350,316,cs)
);
},
{
closed = 1;
nodes = (
(379,326,o),
(378,335,o),
(389,335,cs),
(400,335,o),
(401,326,o),
(401,316,cs),
(401,305,o),
(400,296,o),
(389,296,cs),
(378,296,o),
(379,305,o),
(379,316,cs)
);
},
{
closed = 1;
nodes = (
(349,278,o),
(367,249,o),
(389,249,cs),
(411,249,o),
(432,278,o),
(432,316,cs),
(432,353,o),
(411,383,o),
(389,383,cs),
(367,383,o),
(349,353,o),
(349,316,cs)
);
},
{
closed = 1;
nodes = (
(423,354,l),
(436,361,l),
(435,362,l),
(422,355,l)
);
},
{
closed = 1;
nodes = (
(432,315,l),
(446,315,l),
(446,316,l),
(432,316,l)
);
},
{
closed = 1;
nodes = (
(335,315,l),
(349,315,l),
(349,316,l),
(335,316,l)
);
},
{
closed = 1;
nodes = (
(424,279,l),
(437,272,l),
(438,273,l),
(425,280,l)
);
},
{
closed = 1;
nodes = (
(343,273,l),
(356,280,l),
(355,281,l),
(343,274,l)
);
},
{
closed = 1;
nodes = (
(345,364,l),
(358,357,l),
(358,358,l),
(346,365,l)
);
},
{
closed = 1;
nodes = (
(392,318,o),
(392,318,o),
(392,318,cs),
(392,318,o),
(392,318,o),
(392,318,cs),
(392,318,o),
(392,318,o),
(392,318,cs),
(392,318,o),
(392,318,o),
(392,318,cs)
);
},
{
closed = 1;
nodes = (
(158,352,o),
(175,382,o),
(197,382,cs),
(219,382,o),
(239,352,o),
(239,316,cs),
(239,279,o),
(219,251,o),
(197,251,cs),
(175,251,o),
(158,279,o),
(158,316,cs)
);
},
{
closed = 1;
nodes = (
(187,325,o),
(186,335,o),
(197,335,cs),
(208,335,o),
(209,326,o),
(209,316,cs),
(209,305,o),
(208,296,o),
(197,296,cs),
(186,296,o),
(187,304,o),
(187,315,cs)
);
},
{
closed = 1;
nodes = (
(157,278,o),
(175,249,o),
(197,249,cs),
(219,249,o),
(240,278,o),
(240,316,cs),
(240,353,o),
(219,383,o),
(197,383,cs),
(175,383,o),
(157,353,o),
(157,316,cs)
);
},
{
closed = 1;
nodes = (
(231,354,l),
(244,361,l),
(243,362,l),
(230,355,l)
);
},
{
closed = 1;
nodes = (
(240,315,l),
(254,315,l),
(254,316,l),
(240,316,l)
);
},
{
closed = 1;
nodes = (
(143,315,l),
(157,315,l),
(157,316,l),
(143,316,l)
);
},
{
closed = 1;
nodes = (
(232,279,l),
(245,272,l),
(246,273,l),
(233,280,l)
);
},
{
closed = 1;
nodes = (
(151,273,l),
(164,280,l),
(163,281,l),
(151,274,l)
);
},
{
closed = 1;
nodes = (
(153,364,l),
(166,357,l),
(166,358,l),
(154,365,l)
);
},
{
closed = 1;
nodes = (
(200,318,o),
(200,318,o),
(200,318,cs),
(200,318,o),
(200,318,o),
(200,318,cs),
(200,318,o),
(200,318,o),
(200,318,cs),
(200,318,o),
(200,318,o),
(200,318,cs)
);
}
);
width = 600;
}
);
unicode = (87,119);
},
{
glyphname = X;
lastChange = "2025-10-03 19:49:08 +0000";
layers = (
{
backgroundImage = {
imagePath = "New Folder With Items/Images/X_-Regular.tif";
locked = 1;
pos = (-7,-27);
scale = (5.8298,6.3439);
};
layerId = m01;
shapes = (
{
closed = 1;
nodes = (
(317,585,o),
(385,776,o),
(520,689,cs),
(664,596,o),
(547,414,o),
(474,342,c),
(635,186,o),
(593,61,o),
(519,19,cs),
(416,-39,o),
(334,32,o),
(283,86,c),
(249,32,o),
(163,-38,o),
(76,19,cs),
(-14,78,o),
(66,263,o),
(129,346,c),
(58,444,o),
(-75,636,o),
(94,710,cs),
(206,759,o),
(271,616,o),
(299,575,c)
);
},
{
closed = 1;
nodes = (
(214,568,o),
(189,718,o),
(102,680,cs),
(-34,621,o),
(94,438,o),
(169,343,c),
(129,277,o),
(16,98,o),
(90,53,cs),
(169,5,o),
(249,84,o),
(287,136,c),
(334,73,o),
(390,-15,o),
(501,37,cs),
(584,76,o),
(587,209,o),
(436,353,c),
(534,470,o),
(625,579,o),
(497,664,cs),
(420,715,o),
(367,584,o),
(296,521,c)
);
},
{
closed = 1;
nodes = (
(298,368,o),
(298,368,o),
(298,368,cs),
(298,368,o),
(298,368,o),
(298,367,cs),
(298,367,o),
(298,367,o),
(298,367,cs),
(298,367,o),
(298,367,o),
(298,367,cs)
);
},
{
closed = 1;
nodes = (
(298,368,o),
(298,368,o),
(298,368,cs),
(298,368,o),
(298,368,o),
(298,367,cs),
(298,367,o),
(298,367,o),
(298,367,cs),
(298,367,o),
(298,367,o),
(298,367,cs)
);
},
{
closed = 1;
nodes = (
(293,340,o),
(291,327,o),
(297,327,cs),
(303,327,o),
(303,340,o),
(303,356,cs),
(303,370,o),
(303,377,o),
(297,377,cs),
(291,377,o),
(293,373,o),
(293,356,cs)
);
},
{
closed = 1;
nodes = (
(299,347,l),
(299,359,l),
(299,361,l),
(299,349,l)
);
},
{
closed = 1;
nodes = (
(297,371,l),
(297,371,l),
(297,373,l),
(297,373,l)
);
},
{
closed = 1;
nodes = (
(300,371,l),
(300,371,l),
(300,373,l),
(300,373,l)
);
},
{
closed = 1;
nodes = (
(298,362,l),
(298,348,l),
(298,350,l),
(298,364,l)
);
},
{
closed = 1;
nodes = (
(296,350,l),
(296,364,l),
(296,366,l),
(296,352,l)
);
},
{
closed = 1;
nodes = (
(297,358,l),
(297,344,l),
(297,346,l),
(297,360,l)
);
},
{
closed = 1;
nodes = (
(298,368,o),
(298,368,o),
(298,368,cs),
(298,368,o),
(298,368,o),
(298,368,cs),
(298,368,o),
(298,368,o),
(298,368,cs),
(298,368,o),
(298,368,o),
(298,368,cs)
);
}
);
width = 600;
},
{
layerId = "45082C4A-550E-4DA0-B494-F7E76CD90BF9";
shapes = (
{
closed = 1;
nodes = (
(317,585,o),
(385,776,o),
(520,689,cs),
(664,596,o),
(547,414,o),
(474,342,c),
(635,186,o),
(593,61,o),
(519,19,cs),
(416,-39,o),
(334,32,o),
(283,86,c),
(249,32,o),
(163,-38,o),
(76,19,cs),
(-14,78,o),
(66,263,o),
(129,346,c),
(58,444,o),
(-75,636,o),
(94,710,cs),
(206,759,o),
(271,616,o),
(299,575,c)
);
},
{
closed = 1;
nodes = (
(214,568,o),
(189,718,o),
(102,680,cs),
(-34,621,o),
(94,438,o),
(169,343,c),
(129,277,o),
(16,98,o),
(90,53,cs),
(169,5,o),
(249,84,o),
(287,136,c),
(334,73,o),
(390,-15,o),
(501,37,cs),
(584,76,o),
(587,209,o),
(436,353,c),
(534,470,o),
(625,579,o),
(497,664,cs),
(420,715,o),
(367,584,o),
(296,521,c)
);
},
{
closed = 1;
nodes = (
(227,418,o),
(259,476,o),
(302,476,cs),
(344,476,o),
(382,418,o),
(382,347,cs),
(382,277,o),
(344,221,o),
(302,221,cs),
(259,221,o),
(227,277,o),
(227,347,cs)
);
},
{
closed = 1;
nodes = (
(260,366,o),
(281,360,o),
(302,360,cs),
(323,360,o),
(337,368,o),
(337,347,cs),
(337,326,o),
(323,336,o),
(302,336,cs),
(281,336,o),
(260,324,o),
(260,345,cs)
);
},
{
closed = 1;
nodes = (
(225,275,o),
(259,218,o),
(302,218,cs),
(345,218,o),
(384,275,o),
(384,347,cs),
(384,419,o),
(345,478,o),
(302,478,cs),
(259,478,o),
(225,419,o),
(225,347,cs)
);
},
{
closed = 1;
nodes = (
(367,422,l),
(392,434,l),
(391,436,l),
(366,424,l)
);
},
{
closed = 1;
nodes = (
(384,346,l),
(412,346,l),
(412,348,l),
(384,348,l)
);
},
{
closed = 1;
nodes = (
(197,346,l),
(225,346,l),
(225,348,l),
(197,348,l)
);
},
{
closed = 1;
nodes = (
(370,277,l),
(395,263,l),
(396,265,l),
(371,279,l)
);
},
{
closed = 1;
nodes = (
(213,264,l),
(237,278,l),
(236,280,l),
(212,266,l)
);
},
{
closed = 1;
nodes = (
(217,441,l),
(241,427,l),
(242,429,l),
(218,443,l)
);
},
{
closed = 1;
nodes = (
(308,351,o),
(308,351,o),
(308,351,cs),
(308,351,o),
(308,351,o),
(308,351,cs),
(308,351,o),
(308,351,o),
(308,351,cs),
(308,351,o),
(308,351,o),
(308,351,cs)
);
}
);
width = 600;
}
);
unicode = (88,120);
},
{
glyphname = Y;
lastChange = "2025-10-03 19:49:08 +0000";
layers = (
{
backgroundImage = {
imagePath = "New Folder With Items/Images/Y_-Regular.tif";
locked = 1;
pos = (14,-7);
scale = (5.7749,5.7749);
};
layerId = m01;
shapes = (
{
closed = 1;
nodes = (
(320,627,o),
(429,758,o),
(522,671,cs),
(598,600,o),
(597,516,o),
(531,429,cs),
(494,381,o),
(449,346,o),
(440,335,c),
(440,202,o),
(422,107,o),
(416,87,cs),
(404,47,o),
(392,-9,o),
(312,-9,cs),
(218,-9,o),
(171,39,o),
(171,135,cs),
(171,203,o),
(150,286,o),
(144,354,c),
(134,366,o),
(-62,532,o),
(42,645,cs),
(159,772,o),
(243,645,o),
(288,571,c)
);
},
{
closed = 1;
nodes = (
(227,610,o),
(166,765,o),
(55,635,cs),
(-26,540,o),
(166,364,o),
(175,352,c),
(196,335,o),
(188,175,o),
(201,140,cs),
(207,123,o),
(223,8,o),
(312,11,cs),
(362,13,o),
(369,57,o),
(380,90,cs),
(388,113,o),
(408,159,o),
(408,335,c),
(435,364,o),
(458,388,o),
(503,434,cs),
(577,510,o),
(577,598,o),
(508,662,cs),
(440,725,o),
(340,626,o),
(288,549,c)
);
},
{
closed = 1;
nodes = (
(290,455,o),
(290,455,o),
(290,455,cs),
(290,455,o),
(290,455,o),
(290,454,cs),
(290,454,o),
(290,454,o),
(290,454,cs),
(290,454,o),
(290,454,o),
(290,454,cs)
);
},
{
closed = 1;
nodes = (
(290,455,o),
(290,455,o),
(290,455,cs),
(290,455,o),
(290,455,o),
(290,454,cs),
(290,454,o),
(290,454,o),
(290,454,cs),
(290,454,o),
(290,454,o),
(290,454,cs)
);
},
{
closed = 1;
nodes = (
(284,427,o),
(282,414,o),
(288,414,cs),
(294,414,o),
(294,427,o),
(294,443,cs),
(294,457,o),
(294,464,o),
(288,464,cs),
(282,464,o),
(284,460,o),
(284,443,cs)
);
},
{
closed = 1;
nodes = (
(290,434,l),
(290,446,l),
(290,448,l),
(290,436,l)
);
},
{
closed = 1;
nodes = (
(288,458,l),
(288,458,l),
(288,460,l),
(288,460,l)
);
},
{
closed = 1;
nodes = (
(291,458,l),
(291,458,l),
(291,460,l),
(291,460,l)
);
},
{
closed = 1;
nodes = (
(289,449,l),
(289,435,l),
(289,437,l),
(289,451,l)
);
},
{
closed = 1;
nodes = (
(287,437,l),
(287,451,l),
(287,453,l),
(287,439,l)
);
},
{
closed = 1;
nodes = (
(288,445,l),
(288,431,l),
(288,433,l),
(288,447,l)
);
},
{
closed = 1;
nodes = (
(290,455,o),
(290,455,o),
(290,455,cs),
(290,455,o),
(290,455,o),
(290,455,cs),
(290,455,o),
(290,455,o),
(290,455,cs),
(290,455,o),
(290,455,o),
(290,455,cs)
);
}
);
width = 600;
},
{
layerId = "45082C4A-550E-4DA0-B494-F7E76CD90BF9";
shapes = (
{
closed = 1;
nodes = (
(320,627,o),
(429,758,o),
(522,671,cs),
(598,600,o),
(597,516,o),
(531,429,cs),
(494,381,o),
(449,346,o),
(440,335,c),
(440,202,o),
(422,107,o),
(416,87,cs),
(404,47,o),
(392,-9,o),
(312,-9,cs),
(218,-9,o),
(171,39,o),
(171,135,cs),
(171,203,o),
(150,286,o),
(144,354,c),
(134,366,o),
(-62,532,o),
(42,645,cs),
(159,772,o),
(243,645,o),
(288,571,c)
);
},
{
closed = 1;
nodes = (
(227,610,o),
(166,765,o),
(55,635,cs),
(-26,540,o),
(166,364,o),
(175,352,c),
(196,335,o),
(188,175,o),
(201,140,cs),
(207,123,o),
(223,8,o),
(312,11,cs),
(362,13,o),
(369,57,o),
(380,90,cs),
(388,113,o),
(408,159,o),
(408,335,c),
(435,364,o),
(458,388,o),
(503,434,cs),
(577,510,o),
(577,598,o),
(508,662,cs),
(440,725,o),
(340,626,o),
(288,549,c)
);
},
{
closed = 1;
nodes = (
(241,483,o),
(265,527,o),
(297,527,cs),
(328,527,o),
(356,483,o),
(356,431,cs),
(356,379,o),
(328,337,o),
(297,337,cs),
(265,337,o),
(241,379,o),
(241,431,cs)
);
},
{
closed = 1;
nodes = (
(266,445,o),
(281,459,o),
(297,459,cs),
(313,459,o),
(323,446,o),
(323,431,cs),
(323,415,o),
(313,403,o),
(297,403,cs),
(281,403,o),
(266,414,o),
(266,429,cs)
);
},
{
closed = 1;
nodes = (
(240,377,o),
(265,335,o),
(297,335,cs),
(329,335,o),
(358,377,o),
(358,431,cs),
(358,484,o),
(329,528,o),
(297,528,cs),
(265,528,o),
(240,484,o),
(240,431,cs)
);
},
{
closed = 1;
nodes = (
(345,486,l),
(364,495,l),
(363,497,l),
(344,488,l)
);
},
{
closed = 1;
nodes = (
(358,430,l),
(379,430,l),
(379,431,l),
(358,431,l)
);
},
{
closed = 1;
nodes = (
(219,430,l),
(240,430,l),
(240,431,l),
(219,431,l)
);
},
{
closed = 1;
nodes = (
(347,379,l),
(366,368,l),
(367,370,l),
(348,380,l)
);
},
{
closed = 1;
nodes = (
(231,369,l),
(249,380,l),
(248,381,l),
(230,371,l)
);
},
{
closed = 1;
nodes = (
(234,501,l),
(252,490,l),
(252,492,l),
(235,502,l)
);
},
{
closed = 1;
nodes = (
(301,434,o),
(301,434,o),
(301,434,cs),
(301,434,o),
(301,434,o),
(301,434,cs),
(301,434,o),
(301,434,o),
(301,434,cs),
(301,434,o),
(301,434,o),
(301,434,cs)
);
}
);
width = 600;
}
);
unicode = (89,121);
},
{
glyphname = Z;
lastChange = "2025-10-03 19:49:08 +0000";
layers = (
{
backgroundImage = {
imagePath = "New Folder With Items/Images/Z_-Regular.tif";
locked = 1;
pos = (0,-9);
scale = (5.7613,5.7613);
};
layerId = m01;
shapes = (
{
closed = 1;
nodes = (
(72,687,o),
(103,717,o),
(219,676,cs),
(307,644,o),
(412,582,o),
(484,533,cs),
(533,499,o),
(574,429,o),
(561,363,cs),
(549,304,o),
(507,280,o),
(461,274,c),
(518,233,o),
(567,204,o),
(567,95,cs),
(567,42,o),
(486,1,o),
(421,14,cs),
(262,46,o),
(117,114,o),
(52,194,c),
(32,233,o),
(33,269,o),
(37,303,cs),
(43,350,o),
(127,367,o),
(127,379,cs),
(127,397,o),
(-34,493,o),
(36,622,cs)
);
},
{
closed = 1;
nodes = (
(-18,497,o),
(164,378,o),
(164,375,cs),
(164,363,o),
(70,337,o),
(64,304,cs),
(56,259,o),
(68,219,o),
(74,209,c),
(118,162,o),
(237,89,o),
(416,46,cs),
(485,29,o),
(536,59,o),
(536,101,cs),
(536,199,o),
(468,228,o),
(411,277,c),
(435,300,o),
(522,313,o),
(528,373,cs),
(538,469,o),
(487,492,o),
(459,518,cs),
(389,583,o),
(280,629,o),
(214,655,cs),
(134,687,o),
(105,691,o),
(58,617,cs)
);
},
{
closed = 1;
nodes = (
(106,546,o),
(106,546,o),
(106,546,cs),
(106,546,o),
(106,546,o),
(106,545,cs),
(106,545,o),
(106,545,o),
(106,545,cs),
(106,545,o),
(106,545,o),
(106,545,cs)
);
},
{
closed = 1;
nodes = (
(106,546,o),
(106,546,o),
(106,546,cs),
(106,546,o),
(106,546,o),
(106,545,cs),
(106,545,o),
(106,545,o),
(106,545,cs),
(106,545,o),
(106,545,o),
(106,545,cs)
);
},
{
closed = 1;
nodes = (
(101,543,o),
(99,530,o),
(105,530,cs),
(111,530,o),
(111,543,o),
(111,559,cs),
(111,573,o),
(111,580,o),
(105,580,cs),
(99,580,o),
(101,576,o),
(101,559,cs)
);
},
{
closed = 1;
nodes = (
(107,550,l),
(107,562,l),
(107,564,l),
(107,552,l)
);
},
{
closed = 1;
nodes = (
(105,574,l),
(105,574,l),
(105,576,l),
(105,576,l)
);
},
{
closed = 1;
nodes = (
(108,574,l),
(108,574,l),
(108,576,l),
(108,576,l)
);
},
{
closed = 1;
nodes = (
(106,565,l),
(106,551,l),
(106,553,l),
(106,567,l)
);
},
{
closed = 1;
nodes = (
(104,553,l),
(104,567,l),
(104,569,l),
(104,555,l)
);
},
{
closed = 1;
nodes = (
(105,561,l),
(105,547,l),
(105,549,l),
(105,563,l)
);
},
{
closed = 1;
nodes = (
(106,546,o),
(106,546,o),
(106,546,cs),
(106,546,o),
(106,546,o),
(106,546,cs),
(106,546,o),
(106,546,o),
(106,546,cs),
(106,546,o),
(106,546,o),
(106,546,cs)
);
},
{
closed = 1;
nodes = (
(432,146,o),
(432,146,o),
(432,146,cs),
(432,146,o),
(432,146,o),
(432,145,cs),
(432,145,o),
(432,145,o),
(432,145,cs),
(432,145,o),
(432,145,o),
(432,145,cs)
);
},
{
closed = 1;
nodes = (
(432,146,o),
(432,146,o),
(432,146,cs),
(432,146,o),
(432,146,o),
(432,145,cs),
(432,145,o),
(432,145,o),
(432,145,cs),
(432,145,o),
(432,145,o),
(432,145,cs)
);
},
{
closed = 1;
nodes = (
(436,118,o),
(439,105,o),
(445,107,cs),
(450,110,o),
(446,122,o),
(440,137,cs),
(435,150,o),
(433,157,o),
(427,154,cs),
(422,152,o),
(425,149,o),
(431,133,cs)
);
},
{
closed = 1;
nodes = (
(440,127,l),
(435,138,l),
(435,140,l),
(439,129,l)
);
},
{
closed = 1;
nodes = (
(430,149,l),
(430,149,l),
(429,151,l),
(429,151,l)
);
},
{
closed = 1;
nodes = (
(432,150,l),
(432,150,l),
(432,152,l),
(432,152,l)
);
},
{
closed = 1;
nodes = (
(434,141,l),
(438,128,l),
(438,129,l),
(433,143,l)
);
},
{
closed = 1;
nodes = (
(436,129,l),
(431,142,l),
(430,144,l),
(435,131,l)
);
},
{
closed = 1;
nodes = (
(434,137,l),
(439,123,l),
(438,125,l),
(433,138,l)
);
},
{
closed = 1;
nodes = (
(432,146,o),
(432,146,o),
(432,146,cs),
(432,146,o),
(432,146,o),
(432,146,cs),
(432,146,o),
(432,146,o),
(432,146,cs),
(432,146,o),
(432,146,o),
(432,146,cs)
);
}
);
width = 600;
},
{
layerId = "45082C4A-550E-4DA0-B494-F7E76CD90BF9";
shapes = (
{
closed = 1;
nodes = (
(72,687,o),
(103,717,o),
(219,676,cs),
(307,644,o),
(412,582,o),
(484,533,cs),
(533,499,o),
(574,429,o),
(561,363,cs),
(549,304,o),
(507,280,o),
(461,274,c),
(518,233,o),
(567,204,o),
(567,95,cs),
(567,42,o),
(486,1,o),
(421,14,cs),
(262,46,o),
(117,114,o),
(52,194,c),
(32,233,o),
(33,269,o),
(37,303,cs),
(43,350,o),
(127,367,o),
(127,379,cs),
(127,397,o),
(-34,493,o),
(36,622,cs)
);
},
{
closed = 1;
nodes = (
(-18,497,o),
(164,378,o),
(164,375,cs),
(164,363,o),
(70,337,o),
(64,304,cs),
(56,259,o),
(68,219,o),
(74,209,c),
(118,162,o),
(237,89,o),
(416,46,cs),
(485,29,o),
(536,59,o),
(536,101,cs),
(536,199,o),
(468,228,o),
(411,277,c),
(435,300,o),
(522,313,o),
(528,373,cs),
(538,469,o),
(487,492,o),
(459,518,cs),
(389,583,o),
(280,629,o),
(214,655,cs),
(134,687,o),
(105,691,o),
(58,617,cs)
);
},
{
closed = 1;
nodes = (
(84,603,o),
(98,627,o),
(116,627,cs),
(133,627,o),
(149,603,o),
(149,574,cs),
(149,545,o),
(133,521,o),
(116,521,cs),
(98,521,o),
(84,545,o),
(84,574,cs)
);
},
{
closed = 1;
nodes = (
(98,581,o),
(107,589,o),
(116,589,cs),
(124,589,o),
(130,582,o),
(130,574,cs),
(130,565,o),
(124,558,o),
(116,558,cs),
(107,558,o),
(98,564,o),
(98,573,cs)
);
},
{
closed = 1;
nodes = (
(84,544,o),
(98,520,o),
(116,520,cs),
(133,520,o),
(150,544,o),
(150,574,cs),
(150,603,o),
(133,628,o),
(116,628,cs),
(98,628,o),
(84,603,o),
(84,574,cs)
);
},
{
closed = 1;
nodes = (
(143,605,l),
(153,610,l),
(153,611,l),
(142,606,l)
);
},
{
closed = 1;
nodes = (
(150,573,l),
(161,573,l),
(161,574,l),
(150,574,l)
);
},
{
closed = 1;
nodes = (
(72,573,l),
(84,573,l),
(84,574,l),
(72,574,l)
);
},
{
closed = 1;
nodes = (
(144,545,l),
(154,539,l),
(155,540,l),
(144,545,l)
);
},
{
closed = 1;
nodes = (
(79,539,l),
(89,545,l),
(88,546,l),
(78,540,l)
);
},
{
closed = 1;
nodes = (
(80,613,l),
(90,607,l),
(91,608,l),
(81,613,l)
);
},
{
closed = 1;
nodes = (
(118,575,o),
(118,575,o),
(118,575,cs),
(118,575,o),
(118,575,o),
(118,575,cs),
(118,575,o),
(118,575,o),
(118,575,cs),
(118,575,o),
(118,575,o),
(118,575,cs)
);
},
{
closed = 1;
nodes = (
(395,91,o),
(368,106,o),
(368,126,cs),
(368,146,o),
(395,163,o),
(428,163,cs),
(460,163,o),
(487,146,o),
(487,126,cs),
(487,106,o),
(460,91,o),
(428,91,cs)
);
},
{
closed = 1;
nodes = (
(419,106,o),
(410,116,o),
(410,126,cs),
(410,136,o),
(418,142,o),
(428,142,cs),
(438,142,o),
(446,136,o),
(446,126,cs),
(446,116,o),
(439,106,o),
(429,106,cs)
);
},
{
closed = 1;
nodes = (
(461,90,o),
(488,106,o),
(488,126,cs),
(488,146,o),
(461,164,o),
(428,164,cs),
(394,164,o),
(367,146,o),
(367,126,cs),
(367,106,o),
(394,90,o),
(428,90,cs)
);
},
{
closed = 1;
nodes = (
(393,156,l),
(387,168,l),
(386,168,l),
(392,156,l)
);
},
{
closed = 1;
nodes = (
(428,164,l),
(428,177,l),
(427,177,l),
(427,164,l)
);
},
{
closed = 1;
nodes = (
(428,77,l),
(428,90,l),
(427,90,l),
(427,77,l)
);
},
{
closed = 1;
nodes = (
(460,158,l),
(467,169,l),
(466,170,l),
(460,158,l)
);
},
{
closed = 1;
nodes = (
(467,84,l),
(460,96,l),
(459,95,l),
(466,84,l)
);
},
{
closed = 1;
nodes = (
(384,86,l),
(390,98,l),
(389,98,l),
(383,87,l)
);
},
{
closed = 1;
nodes = (
(426,129,o),
(426,129,o),
(426,129,cs),
(426,129,o),
(426,129,o),
(426,129,cs),
(426,129,o),
(426,129,o),
(426,129,cs),
(426,129,o),
(426,129,o),
(426,129,cs)
);
}
);
width = 600;
}
);
unicode = (90,122);
},
{
glyphname = zero;
lastChange = "2024-04-12 18:27:46 +0000";
layers = (
{
backgroundImage = {
imagePath = "New Folder With Items/Images/zero-Regular.tif";
locked = 1;
pos = (29,-51);
scale = (5.7193,5.7193);
};
layerId = m01;
shapes = (
{
closed = 1;
nodes = (
(220,742,o),
(347,740,o),
(438,612,cs),
(471,566,o),
(500,514,o),
(511,371,cs),
(524,211,o),
(457,101,o),
(428,69,cs),
(343,-26,o),
(206,-24,o),
(133,68,cs),
(94,117,o),
(69,162,o),
(69,319,cs),
(69,524,o),
(109,572,o),
(146,629,cs)
);
},
{
closed = 1;
nodes = (
(134,564,o),
(109,503,o),
(109,319,cs),
(109,150,o),
(126,113,o),
(173,68,cs),
(227,16,o),
(304,15,o),
(380,69,cs),
(438,110,o),
(471,255,o),
(471,371,cs),
(471,489,o),
(439,571,o),
(398,612,cs),
(308,700,o),
(234,686,o),
(178,618,cs)
);
},
{
closed = 1;
nodes = (
(269,343,o),
(269,343,o),
(269,343,cs),
(269,343,o),
(269,343,o),
(269,343,cs),
(269,343,o),
(269,343,o),
(269,343,cs),
(269,343,o),
(269,343,o),
(269,343,cs)
);
},
{
closed = 1;
nodes = (
(269,343,o),
(269,343,o),
(269,343,cs),
(269,343,o),
(269,343,o),
(269,343,cs),
(269,343,o),
(269,343,o),
(269,343,cs),
(269,343,o),
(269,343,o),
(269,343,cs)
);
},
{
closed = 1;
nodes = (
(264,280,o),
(262,236,o),
(268,236,cs),
(274,236,o),
(274,280,o),
(274,335,cs),
(274,391,o),
(274,436,o),
(268,436,cs),
(262,436,o),
(264,391,o),
(264,335,cs)
);
},
{
closed = 1;
nodes = (
(268,388,l),
(268,397,l),
(268,398,l),
(268,389,l)
);
},
{
closed = 1;
nodes = (
(268,335,l),
(268,335,l),
(268,337,l),
(268,337,l)
);
},
{
closed = 1;
nodes = (
(271,335,l),
(271,335,l),
(271,337,l),
(271,337,l)
);
},
{
closed = 1;
nodes = (
(269,282,l),
(269,271,l),
(269,273,l),
(269,284,l)
);
},
{
closed = 1;
nodes = (
(267,273,l),
(267,284,l),
(267,285,l),
(267,274,l)
);
},
{
closed = 1;
nodes = (
(266,396,l),
(266,385,l),
(266,387,l),
(266,398,l)
);
},
{
closed = 1;
nodes = (
(269,343,o),
(269,343,o),
(269,343,cs),
(269,343,o),
(269,343,o),
(269,343,cs),
(269,343,o),
(269,343,o),
(269,343,cs),
(269,343,o),
(269,343,o),
(269,343,cs)
);
}
);
width = 600;
},
{
layerId = "45082C4A-550E-4DA0-B494-F7E76CD90BF9";
shapes = (
{
closed = 1;
nodes = (
(220,742,o),
(347,740,o),
(438,612,cs),
(471,566,o),
(500,514,o),
(511,371,cs),
(524,211,o),
(457,101,o),
(428,69,cs),
(343,-26,o),
(206,-24,o),
(133,68,cs),
(94,117,o),
(69,162,o),
(69,319,cs),
(69,524,o),
(109,572,o),
(146,629,cs)
);
},
{
closed = 1;
nodes = (
(134,564,o),
(109,503,o),
(109,319,cs),
(109,150,o),
(126,113,o),
(173,68,cs),
(227,16,o),
(304,15,o),
(380,69,cs),
(438,110,o),
(471,255,o),
(471,371,cs),
(471,489,o),
(439,571,o),
(398,612,cs),
(308,700,o),
(234,686,o),
(178,618,cs)
);
},
{
closed = 1;
nodes = (
(203,400,o),
(235,458,o),
(278,458,cs),
(320,458,o),
(358,400,o),
(358,329,cs),
(358,259,o),
(320,203,o),
(278,203,cs),
(235,203,o),
(203,259,o),
(203,329,cs)
);
},
{
closed = 1;
nodes = (
(248,350,o),
(257,367,o),
(278,367,cs),
(299,367,o),
(313,350,o),
(313,329,cs),
(313,308,o),
(299,291,o),
(278,291,cs),
(257,291,o),
(248,308,o),
(248,329,cs)
);
},
{
closed = 1;
nodes = (
(201,257,o),
(235,200,o),
(278,200,cs),
(321,200,o),
(360,257,o),
(360,329,cs),
(360,401,o),
(321,460,o),
(278,460,cs),
(235,460,o),
(201,401,o),
(201,329,cs)
);
},
{
closed = 1;
nodes = (
(343,404,l),
(368,416,l),
(367,418,l),
(342,406,l)
);
},
{
closed = 1;
nodes = (
(360,328,l),
(388,328,l),
(388,330,l),
(360,330,l)
);
},
{
closed = 1;
nodes = (
(173,328,l),
(201,328,l),
(201,330,l),
(173,330,l)
);
},
{
closed = 1;
nodes = (
(346,259,l),
(371,245,l),
(372,247,l),
(347,261,l)
);
},
{
closed = 1;
nodes = (
(189,246,l),
(213,260,l),
(212,262,l),
(188,248,l)
);
},
{
closed = 1;
nodes = (
(193,423,l),
(217,409,l),
(218,411,l),
(194,425,l)
);
},
{
closed = 1;
nodes = (
(284,333,o),
(284,333,o),
(284,333,cs),
(284,333,o),
(284,333,o),
(284,333,cs),
(284,333,o),
(284,333,o),
(284,333,cs),
(284,333,o),
(284,333,o),
(284,333,cs)
);
}
);
width = 600;
}
);
unicode = 48;
},
{
glyphname = one;
lastChange = "2024-04-12 18:27:57 +0000";
layers = (
{
backgroundImage = {
imagePath = "New Folder With Items/Images/one-Regular.tif";
locked = 1;
pos = (1,-7);
scale = (5.8412,5.9427);
};
layerId = m01;
shapes = (
{
closed = 1;
nodes = (
(79,649,o),
(159,706,o),
(276,706,c),
(434,706,o),
(476,633,o),
(476,522,c),
(473,284,ls),
(473,267,o),
(588,230,o),
(588,137,cs),
(588,71,o),
(525,9,o),
(463,9,c),
(150,9,l),
(71,9,o),
(21,69,o),
(21,138,c),
(21,213,o),
(156,209,o),
(159,284,c),
(164,382,ls),
(166,416,o),
(49,380,o),
(59,472,cs),
(68,553,ls)
);
},
{
closed = 1;
nodes = (
(99,472,ls),
(92,411,o),
(207,443,o),
(204,382,cs),
(199,284,l),
(209,178,o),
(71,188,o),
(61,138,c),
(61,83,o),
(84,49,o),
(150,49,c),
(464,49,l),
(520,49,o),
(548,79,o),
(548,137,cs),
(548,209,o),
(432,218,o),
(433,284,cs),
(436,522,l),
(436,626,o),
(403,666,o),
(276,666,c),
(188,666,o),
(117,638,o),
(108,553,cs)
);
},
{
closed = 1;
nodes = (
(203,490,o),
(203,490,o),
(203,490,cs),
(203,490,o),
(203,490,o),
(204,490,cs),
(204,490,o),
(204,490,o),
(204,490,cs),
(204,490,o),
(204,490,o),
(204,490,cs)
);
},
{
closed = 1;
nodes = (
(203,490,o),
(203,490,o),
(203,490,cs),
(203,490,o),
(203,490,o),
(204,490,cs),
(204,490,o),
(204,490,o),
(204,490,cs),
(204,490,o),
(204,490,o),
(204,490,cs)
);
},
{
closed = 1;
nodes = (
(231,485,o),
(233,483,o),
(233,489,cs),
(233,495,o),
(231,495,o),
(215,495,cs),
(201,495,o),
(194,495,o),
(194,489,cs),
(194,483,o),
(198,485,o),
(215,485,cs)
);
},
{
closed = 1;
nodes = (
(224,491,l),
(212,491,l),
(210,491,l),
(222,491,l)
);
},
{
closed = 1;
nodes = (
(200,489,l),
(200,489,l),
(198,489,l),
(198,489,l)
);
},
{
closed = 1;
nodes = (
(200,492,l),
(200,492,l),
(198,492,l),
(198,492,l)
);
},
{
closed = 1;
nodes = (
(209,490,l),
(223,490,l),
(221,490,l),
(207,490,l)
);
},
{
closed = 1;
nodes = (
(221,488,l),
(207,488,l),
(205,488,l),
(219,488,l)
);
},
{
closed = 1;
nodes = (
(213,489,l),
(227,489,l),
(225,489,l),
(211,489,l)
);
},
{
closed = 1;
nodes = (
(203,490,o),
(203,490,o),
(203,490,cs),
(203,490,o),
(203,490,o),
(203,490,cs),
(203,490,o),
(203,490,o),
(203,490,cs),
(203,490,o),
(203,490,o),
(203,490,cs)
);
}
);
width = 600;
},
{
layerId = "45082C4A-550E-4DA0-B494-F7E76CD90BF9";
shapes = (
{
closed = 1;
nodes = (
(79,649,o),
(159,706,o),
(276,706,c),
(434,706,o),
(476,633,o),
(476,522,c),
(473,284,ls),
(473,267,o),
(588,230,o),
(588,137,cs),
(588,71,o),
(525,9,o),
(463,9,c),
(150,9,l),
(71,9,o),
(21,69,o),
(21,138,c),
(21,213,o),
(156,209,o),
(159,284,c),
(164,382,ls),
(166,416,o),
(49,380,o),
(59,472,cs),
(68,553,ls)
);
},
{
closed = 1;
nodes = (
(99,472,ls),
(92,411,o),
(207,443,o),
(204,382,cs),
(199,284,l),
(209,178,o),
(71,188,o),
(61,138,c),
(61,83,o),
(84,49,o),
(150,49,c),
(464,49,l),
(520,49,o),
(548,79,o),
(548,137,cs),
(548,209,o),
(432,218,o),
(433,284,cs),
(436,522,l),
(436,626,o),
(403,666,o),
(276,666,c),
(188,666,o),
(117,638,o),
(108,553,cs)
);
},
{
closed = 1;
nodes = (
(174,471,o),
(145,487,o),
(145,509,cs),
(145,530,o),
(174,549,o),
(210,549,cs),
(245,549,o),
(274,530,o),
(274,509,cs),
(274,487,o),
(245,471,o),
(210,471,cs)
);
},
{
closed = 1;
nodes = (
(200,488,o),
(191,498,o),
(191,509,cs),
(191,520,o),
(199,527,o),
(210,527,cs),
(221,527,o),
(229,520,o),
(229,509,cs),
(229,498,o),
(222,488,o),
(211,488,cs)
);
},
{
closed = 1;
nodes = (
(246,470,o),
(275,487,o),
(275,509,cs),
(275,531,o),
(246,550,o),
(210,550,cs),
(174,550,o),
(144,531,o),
(144,509,cs),
(144,487,o),
(174,470,o),
(210,470,cs)
);
},
{
closed = 1;
nodes = (
(172,542,l),
(166,554,l),
(165,554,l),
(171,541,l)
);
},
{
closed = 1;
nodes = (
(211,550,l),
(211,564,l),
(210,564,l),
(210,550,l)
);
},
{
closed = 1;
nodes = (
(211,456,l),
(211,470,l),
(210,470,l),
(210,456,l)
);
},
{
closed = 1;
nodes = (
(245,543,l),
(252,556,l),
(251,556,l),
(244,544,l)
);
},
{
closed = 1;
nodes = (
(252,464,l),
(245,476,l),
(244,476,l),
(251,464,l)
);
},
{
closed = 1;
nodes = (
(163,466,l),
(170,478,l),
(169,479,l),
(162,467,l)
);
},
{
closed = 1;
nodes = (
(208,512,o),
(208,512,o),
(208,512,cs),
(208,512,o),
(208,512,o),
(208,512,cs),
(208,512,o),
(208,512,o),
(208,512,cs),
(208,512,o),
(208,512,o),
(208,512,cs)
);
}
);
width = 600;
}
);
unicode = 49;
},
{
glyphname = two;
lastChange = "2024-04-12 18:28:10 +0000";
layers = (
{
backgroundImage = {
imagePath = "New Folder With Items/Images/two-Regular.tif";
locked = 1;
pos = (3,-27);
scale = (5.4291,5.8891);
};
layerId = m01;
shapes = (
{
closed = 1;
nodes = (
(448,704,o),
(596,618,o),
(593,484,cs),
(589,300,o),
(489,297,o),
(489,273,cs),
(489,256,o),
(597,284,o),
(597,131,cs),
(597,40,o),
(506,-5,o),
(323,-5,cs),
(138,-5,o),
(17,46,o),
(17,164,cs),
(17,300,o),
(108,326,o),
(108,332,cs),
(108,341,o),
(5,323,o),
(5,500,cs),
(5,631,o),
(133,704,o),
(305,704,cs)
);
},
{
closed = 1;
nodes = (
(143,684,o),
(56,594,o),
(56,500,cs),
(56,344,o),
(176,358,o),
(176,343,cs),
(176,304,o),
(56,283,o),
(56,164,cs),
(56,68,o),
(156,28,o),
(321,28,cs),
(488,28,o),
(562,59,o),
(562,132,cs),
(562,255,o),
(453,210,o),
(453,266,cs),
(453,321,o),
(564,284,o),
(564,482,cs),
(564,599,o),
(440,684,o),
(306,684,cs)
);
},
{
closed = 1;
nodes = (
(295,497,o),
(295,497,o),
(295,497,cs),
(295,497,o),
(295,497,o),
(296,497,cs),
(296,497,o),
(296,497,o),
(296,497,cs),
(296,497,o),
(296,497,o),
(296,497,cs)
);
},
{
closed = 1;
nodes = (
(295,497,o),
(295,497,o),
(295,497,cs),
(295,497,o),
(295,497,o),
(296,497,cs),
(296,497,o),
(296,497,o),
(296,497,cs),
(296,497,o),
(296,497,o),
(296,497,cs)
);
},
{
closed = 1;
nodes = (
(315,496,o),
(328,494,o),
(328,500,cs),
(328,506,o),
(315,506,o),
(299,506,cs),
(285,506,o),
(278,506,o),
(278,500,cs),
(278,494,o),
(282,496,o),
(299,496,cs)
);
},
{
closed = 1;
nodes = (
(308,502,l),
(296,502,l),
(294,502,l),
(306,502,l)
);
},
{
closed = 1;
nodes = (
(284,500,l),
(284,500,l),
(282,500,l),
(282,500,l)
);
},
{
closed = 1;
nodes = (
(284,503,l),
(284,503,l),
(282,503,l),
(282,503,l)
);
},
{
closed = 1;
nodes = (
(293,501,l),
(307,501,l),
(305,501,l),
(291,501,l)
);
},
{
closed = 1;
nodes = (
(305,499,l),
(291,499,l),
(289,499,l),
(303,499,l)
);
},
{
closed = 1;
nodes = (
(297,500,l),
(311,500,l),
(309,500,l),
(295,500,l)
);
},
{
closed = 1;
nodes = (
(295,497,o),
(295,497,o),
(295,497,cs),
(295,497,o),
(295,497,o),
(295,497,cs),
(295,497,o),
(295,497,o),
(295,497,cs),
(295,497,o),
(295,497,o),
(295,497,cs)
);
}
);
width = 600;
},
{
layerId = "45082C4A-550E-4DA0-B494-F7E76CD90BF9";
shapes = (
{
closed = 1;
nodes = (
(448,704,o),
(596,618,o),
(593,484,cs),
(589,300,o),
(489,297,o),
(489,273,cs),
(489,256,o),
(597,284,o),
(597,131,cs),
(597,40,o),
(506,-5,o),
(323,-5,cs),
(138,-5,o),
(17,46,o),
(17,164,cs),
(17,300,o),
(108,326,o),
(108,332,cs),
(108,341,o),
(5,323,o),
(5,500,cs),
(5,631,o),
(133,704,o),
(305,704,cs)
);
},
{
closed = 1;
nodes = (
(143,684,o),
(56,594,o),
(56,500,cs),
(56,344,o),
(176,358,o),
(176,343,cs),
(176,304,o),
(56,283,o),
(56,164,cs),
(56,68,o),
(156,28,o),
(321,28,cs),
(488,28,o),
(562,59,o),
(562,132,cs),
(562,255,o),
(453,210,o),
(453,266,cs),
(453,321,o),
(564,284,o),
(564,482,cs),
(564,599,o),
(440,684,o),
(306,684,cs)
);
},
{
closed = 1;
nodes = (
(224,432,o),
(166,464,o),
(166,507,cs),
(166,549,o),
(224,587,o),
(295,587,cs),
(365,587,o),
(421,549,o),
(421,507,cs),
(421,464,o),
(365,432,o),
(295,432,cs)
);
},
{
closed = 1;
nodes = (
(276,465,o),
(257,486,o),
(257,507,cs),
(257,528,o),
(274,542,o),
(295,542,cs),
(316,542,o),
(333,528,o),
(333,507,cs),
(333,486,o),
(318,465,o),
(297,465,cs)
);
},
{
closed = 1;
nodes = (
(367,430,o),
(424,464,o),
(424,507,cs),
(424,550,o),
(367,589,o),
(295,589,cs),
(223,589,o),
(164,550,o),
(164,507,cs),
(164,464,o),
(223,430,o),
(295,430,cs)
);
},
{
closed = 1;
nodes = (
(220,572,l),
(208,597,l),
(206,596,l),
(218,571,l)
);
},
{
closed = 1;
nodes = (
(296,589,l),
(296,617,l),
(294,617,l),
(294,589,l)
);
},
{
closed = 1;
nodes = (
(296,402,l),
(296,430,l),
(294,430,l),
(294,402,l)
);
},
{
closed = 1;
nodes = (
(365,575,l),
(379,600,l),
(377,601,l),
(363,576,l)
);
},
{
closed = 1;
nodes = (
(378,418,l),
(364,442,l),
(362,441,l),
(376,417,l)
);
},
{
closed = 1;
nodes = (
(201,422,l),
(215,446,l),
(213,447,l),
(199,423,l)
);
},
{
closed = 1;
nodes = (
(291,513,o),
(291,513,o),
(291,513,cs),
(291,513,o),
(291,513,o),
(291,513,cs),
(291,513,o),
(291,513,o),
(291,513,cs),
(291,513,o),
(291,513,o),
(291,513,cs)
);
}
);
width = 600;
}
);
unicode = 50;
},
{
glyphname = three;
lastChange = "2024-04-12 18:28:23 +0000";
layers = (
{
backgroundImage = {
imagePath = "New Folder With Items/Images/three-Regular.tif";
locked = 1;
pos = (-18,-21);
scale = (5.8268,5.8268);
};
layerId = m01;
shapes = (
{
closed = 1;
nodes = (
(41,641,o),
(110,710,o),
(227,710,cs),
(384,710,o),
(453,660,o),
(453,660,c),
(453,660,o),
(537,618,o),
(537,524,cs),
(537,479,o),
(538,427,o),
(510,397,cs),
(500,386,o),
(482,383,o),
(482,370,cs),
(482,355,o),
(501,357,o),
(522,336,cs),
(552,306,o),
(562,261,o),
(562,204,cs),
(562,159,o),
(537,105,o),
(510,78,cs),
(477,45,o),
(419,9,o),
(323,0,cs),
(223,-10,o),
(123,22,o),
(80,57,cs),
(47,84,o),
(26,111,o),
(26,147,cs),
(26,204,o),
(52,224,o),
(70,240,cs),
(82,251,o),
(104,250,o),
(119,250,cs),
(150,250,o),
(78,289,o),
(78,320,cs),
(78,353,o),
(140,406,o),
(112,406,cs),
(93,406,o),
(64,420,o),
(47,447,cs),
(36,464,o),
(21,479,o),
(29,546,cs)
);
},
{
closed = 1;
nodes = (
(64,486,o),
(60,479,o),
(79,459,cs),
(104,432,o),
(165,442,o),
(165,413,cs),
(165,376,o),
(128,358,o),
(128,319,cs),
(128,296,o),
(177,286,o),
(177,253,cs),
(177,223,o),
(132,226,o),
(109,214,cs),
(90,204,o),
(67,194,o),
(67,148,cs),
(67,114,o),
(78,100,o),
(108,75,cs),
(149,42,o),
(228,15,o),
(313,24,cs),
(400,34,o),
(453,66,o),
(481,99,cs),
(501,124,o),
(522,166,o),
(522,205,cs),
(522,261,o),
(507,299,o),
(482,323,cs),
(462,342,o),
(432,357,o),
(432,365,cs),
(432,372,o),
(451,379,o),
(470,406,cs),
(490,436,o),
(500,472,o),
(495,521,cs),
(487,599,o),
(419,638,o),
(419,638,c),
(399,653,o),
(313,685,o),
(223,685,cs),
(165,685,o),
(64,628,o),
(64,540,cs)
);
},
{
closed = 1;
nodes = (
(282,511,o),
(282,511,o),
(282,511,cs),
(282,511,o),
(282,511,o),
(283,511,cs),
(283,511,o),
(283,511,o),
(283,511,cs),
(283,511,o),
(283,511,o),
(283,511,cs)
);
},
{
closed = 1;
nodes = (
(282,511,o),
(282,511,o),
(282,511,cs),
(282,511,o),
(282,511,o),
(283,511,cs),
(283,511,o),
(283,511,o),
(283,511,cs),
(283,511,o),
(283,511,o),
(283,511,cs)
);
},
{
closed = 1;
nodes = (
(303,508,o),
(314,506,o),
(314,512,cs),
(314,518,o),
(303,518,o),
(289,518,cs),
(274,518,o),
(264,518,o),
(264,512,cs),
(264,506,o),
(274,508,o),
(289,508,cs)
);
},
{
closed = 1;
nodes = (
(276,515,l),
(275,515,l),
(275,515,l),
(276,515,l)
);
},
{
closed = 1;
nodes = (
(290,512,l),
(290,512,l),
(288,512,l),
(288,512,l)
);
},
{
closed = 1;
nodes = (
(290,515,l),
(290,515,l),
(288,515,l),
(288,515,l)
);
},
{
closed = 1;
nodes = (
(301,513,l),
(302,513,l),
(301,513,l),
(301,513,l)
);
},
{
closed = 1;
nodes = (
(301,511,l),
(301,511,l),
(301,511,l),
(301,511,l)
);
},
{
closed = 1;
nodes = (
(275,513,l),
(276,513,l),
(276,513,l),
(275,513,l)
);
},
{
closed = 1;
nodes = (
(282,511,o),
(282,511,o),
(282,511,cs),
(282,511,o),
(282,511,o),
(282,511,cs),
(282,511,o),
(282,511,o),
(282,511,cs),
(282,511,o),
(282,511,o),
(282,511,cs)
);
},
{
closed = 1;
nodes = (
(292,207,o),
(292,207,o),
(292,207,cs),
(292,207,o),
(292,207,o),
(293,207,cs),
(293,207,o),
(293,207,o),
(293,207,cs),
(293,207,o),
(293,207,o),
(293,207,cs)
);
},
{
closed = 1;
nodes = (
(292,207,o),
(292,207,o),
(292,207,cs),
(292,207,o),
(292,207,o),
(293,207,cs),
(293,207,o),
(293,207,o),
(293,207,cs),
(293,207,o),
(293,207,o),
(293,207,cs)
);
},
{
closed = 1;
nodes = (
(311,202,o),
(322,200,o),
(322,206,cs),
(322,212,o),
(311,212,o),
(297,212,cs),
(282,212,o),
(272,212,o),
(272,206,cs),
(272,200,o),
(282,202,o),
(297,202,cs)
);
},
{
closed = 1;
nodes = (
(284,209,l),
(283,209,l),
(283,209,l),
(284,209,l)
);
},
{
closed = 1;
nodes = (
(298,206,l),
(298,206,l),
(296,206,l),
(296,206,l)
);
},
{
closed = 1;
nodes = (
(298,209,l),
(298,209,l),
(296,209,l),
(296,209,l)
);
},
{
closed = 1;
nodes = (
(309,207,l),
(310,207,l),
(309,207,l),
(309,207,l)
);
},
{
closed = 1;
nodes = (
(309,205,l),
(309,205,l),
(309,205,l),
(309,205,l)
);
},
{
closed = 1;
nodes = (
(283,207,l),
(284,207,l),
(284,207,l),
(283,207,l)
);
},
{
closed = 1;
nodes = (
(292,207,o),
(292,207,o),
(292,207,cs),
(292,207,o),
(292,207,o),
(292,207,cs),
(292,207,o),
(292,207,o),
(292,207,cs),
(292,207,o),
(292,207,o),
(292,207,cs)
);
}
);
width = 600;
},
{
layerId = "45082C4A-550E-4DA0-B494-F7E76CD90BF9";
shapes = (
{
closed = 1;
nodes = (
(41,641,o),
(110,710,o),
(227,710,cs),
(384,710,o),
(453,660,o),
(453,660,c),
(453,660,o),
(537,618,o),
(537,524,cs),
(537,479,o),
(538,427,o),
(510,397,cs),
(500,386,o),
(482,383,o),
(482,370,cs),
(482,355,o),
(501,357,o),
(522,336,cs),
(552,306,o),
(562,261,o),
(562,204,cs),
(562,159,o),
(537,105,o),
(510,78,cs),
(477,45,o),
(419,9,o),
(323,0,cs),
(223,-10,o),
(123,22,o),
(80,57,cs),
(47,84,o),
(26,111,o),
(26,147,cs),
(26,204,o),
(52,224,o),
(70,240,cs),
(82,251,o),
(104,250,o),
(119,250,cs),
(150,250,o),
(78,289,o),
(78,320,cs),
(78,353,o),
(140,406,o),
(112,406,cs),
(93,406,o),
(64,420,o),
(47,447,cs),
(36,464,o),
(21,479,o),
(29,546,cs)
);
},
{
closed = 1;
nodes = (
(64,486,o),
(60,479,o),
(79,459,cs),
(104,432,o),
(165,442,o),
(165,413,cs),
(165,376,o),
(128,358,o),
(128,319,cs),
(128,296,o),
(177,286,o),
(177,253,cs),
(177,223,o),
(132,226,o),
(109,214,cs),
(90,204,o),
(67,194,o),
(67,148,cs),
(67,114,o),
(78,100,o),
(108,75,cs),
(149,42,o),
(228,15,o),
(313,24,cs),
(400,34,o),
(453,66,o),
(481,99,cs),
(501,124,o),
(522,166,o),
(522,205,cs),
(522,261,o),
(507,299,o),
(482,323,cs),
(462,342,o),
(432,357,o),
(432,365,cs),
(432,372,o),
(451,379,o),
(470,406,cs),
(490,436,o),
(500,472,o),
(495,521,cs),
(487,599,o),
(419,638,o),
(419,638,c),
(399,653,o),
(313,685,o),
(223,685,cs),
(165,685,o),
(64,628,o),
(64,540,cs)
);
},
{
closed = 1;
nodes = (
(235,435,o),
(201,467,o),
(201,510,cs),
(201,552,o),
(235,590,o),
(290,590,cs),
(344,590,o),
(387,552,o),
(387,510,cs),
(387,467,o),
(344,435,o),
(290,435,cs)
);
},
{
closed = 1;
nodes = (
(275,483,o),
(261,489,o),
(261,510,cs),
(261,531,o),
(274,545,o),
(290,545,cs),
(306,545,o),
(319,531,o),
(319,510,cs),
(319,489,o),
(307,483,o),
(291,483,cs)
);
},
{
closed = 1;
nodes = (
(345,433,o),
(389,467,o),
(389,510,cs),
(389,553,o),
(345,592,o),
(290,592,cs),
(234,592,o),
(189,553,o),
(189,510,cs),
(189,467,o),
(234,433,o),
(290,433,cs)
);
},
{
closed = 1;
nodes = (
(232,575,l),
(223,600,l),
(221,599,l),
(231,574,l)
);
},
{
closed = 1;
nodes = (
(291,592,l),
(291,620,l),
(289,620,l),
(289,592,l)
);
},
{
closed = 1;
nodes = (
(291,405,l),
(291,433,l),
(289,433,l),
(289,405,l)
);
},
{
closed = 1;
nodes = (
(344,578,l),
(354,603,l),
(353,604,l),
(342,579,l)
);
},
{
closed = 1;
nodes = (
(354,421,l),
(343,445,l),
(341,444,l),
(352,420,l)
);
},
{
closed = 1;
nodes = (
(217,425,l),
(228,449,l),
(227,450,l),
(216,426,l)
);
},
{
closed = 1;
nodes = (
(287,516,o),
(287,516,o),
(287,516,cs),
(287,516,o),
(287,516,o),
(287,516,cs),
(287,516,o),
(287,516,o),
(287,516,cs),
(287,516,o),
(287,516,o),
(287,516,cs)
);
},
{
closed = 1;
nodes = (
(240,105,o),
(206,137,o),
(206,180,cs),
(206,222,o),
(240,260,o),
(295,260,cs),
(349,260,o),
(392,222,o),
(392,180,cs),
(392,137,o),
(349,105,o),
(295,105,cs)
);
},
{
closed = 1;
nodes = (
(278,153,o),
(266,159,o),
(266,180,cs),
(266,201,o),
(279,215,o),
(295,215,cs),
(311,215,o),
(324,201,o),
(324,180,cs),
(324,159,o),
(310,153,o),
(294,153,cs)
);
},
{
closed = 1;
nodes = (
(350,103,o),
(394,137,o),
(394,180,cs),
(394,223,o),
(350,262,o),
(295,262,cs),
(239,262,o),
(194,223,o),
(194,180,cs),
(194,137,o),
(239,103,o),
(295,103,cs)
);
},
{
closed = 1;
nodes = (
(237,245,l),
(228,270,l),
(226,269,l),
(236,244,l)
);
},
{
closed = 1;
nodes = (
(296,262,l),
(296,290,l),
(294,290,l),
(294,262,l)
);
},
{
closed = 1;
nodes = (
(296,75,l),
(296,103,l),
(294,103,l),
(294,75,l)
);
},
{
closed = 1;
nodes = (
(349,248,l),
(359,273,l),
(358,274,l),
(347,249,l)
);
},
{
closed = 1;
nodes = (
(359,91,l),
(348,115,l),
(346,114,l),
(357,90,l)
);
},
{
closed = 1;
nodes = (
(222,95,l),
(233,119,l),
(232,120,l),
(221,96,l)
);
},
{
closed = 1;
nodes = (
(292,186,o),
(292,186,o),
(292,186,cs),
(292,186,o),
(292,186,o),
(292,186,cs),
(292,186,o),
(292,186,o),
(292,186,cs),
(292,186,o),
(292,186,o),
(292,186,cs)
);
}
);
width = 600;
}
);
unicode = 51;
},
{
glyphname = four;
lastChange = "2024-04-12 18:28:29 +0000";
layers = (
{
backgroundImage = {
imagePath = "New Folder With Items/Images/four-Regular.tif";
locked = 1;
pos = (15,-21);
scale = (5.8448,6.0216);
};
layerId = m01;
shapes = (
{
closed = 1;
nodes = (
(256,661,o),
(254,705,o),
(315,705,cs),
(401,705,o),
(448,653,o),
(448,615,cs),
(448,584,o),
(448,550,o),
(456,515,cs),
(464,482,o),
(579,475,o),
(579,396,cs),
(579,304,o),
(470,274,o),
(452,258,cs),
(436,243,o),
(447,146,o),
(432,102,cs),
(421,69,o),
(385,1,o),
(291,1,cs),
(193,1,o),
(164,41,o),
(144,109,cs),
(127,166,o),
(154,193,o),
(154,235,cs),
(154,302,o),
(32,280,o),
(32,370,cs),
(32,426,o),
(31,483,o),
(39,538,cs),
(46,587,o),
(91,653,o),
(138,674,cs),
(170,688,o),
(194,661,o),
(221,661,cs)
);
},
{
closed = 1;
nodes = (
(130,621,o),
(94,576,o),
(89,537,cs),
(82,481,o),
(78,425,o),
(78,369,cs),
(78,282,o),
(193,311,o),
(193,251,cs),
(193,206,o),
(170,167,o),
(179,118,cs),
(188,65,o),
(251,32,o),
(290,32,cs),
(336,32,o),
(374,71,o),
(390,105,cs),
(405,138,o),
(410,159,o),
(410,266,cs),
(410,303,o),
(535,307,o),
(535,388,cs),
(535,467,o),
(414,443,o),
(414,492,cs),
(414,526,o),
(410,574,o),
(410,608,cs),
(410,647,o),
(365,673,o),
(315,673,cs),
(283,673,o),
(269,630,o),
(227,630,cs),
(203,630,o),
(170,661,o),
(154,645,cs)
);
},
{
closed = 1;
nodes = (
(215,504,o),
(215,504,o),
(215,504,cs),
(215,504,o),
(215,504,o),
(215,503,cs),
(215,503,o),
(215,503,o),
(215,503,cs),
(215,503,o),
(215,503,o),
(215,503,cs)
);
},
{
closed = 1;
nodes = (
(215,504,o),
(215,504,o),
(215,504,cs),
(215,504,o),
(215,504,o),
(215,503,cs),
(215,503,o),
(215,503,o),
(215,503,cs),
(215,503,o),
(215,503,o),
(215,503,cs)
);
},
{
closed = 1;
nodes = (
(209,483,o),
(207,472,o),
(213,472,cs),
(219,472,o),
(219,483,o),
(219,497,cs),
(219,512,o),
(219,522,o),
(213,522,cs),
(207,522,o),
(209,512,o),
(209,497,cs)
);
},
{
closed = 1;
nodes = (
(216,510,l),
(216,511,l),
(216,511,l),
(216,510,l)
);
},
{
closed = 1;
nodes = (
(213,496,l),
(213,496,l),
(213,498,l),
(213,498,l)
);
},
{
closed = 1;
nodes = (
(216,496,l),
(216,496,l),
(216,498,l),
(216,498,l)
);
},
{
closed = 1;
nodes = (
(214,485,l),
(214,484,l),
(214,485,l),
(214,485,l)
);
},
{
closed = 1;
nodes = (
(212,485,l),
(212,485,l),
(212,485,l),
(212,485,l)
);
},
{
closed = 1;
nodes = (
(214,511,l),
(214,510,l),
(214,510,l),
(214,511,l)
);
},
{
closed = 1;
nodes = (
(215,504,o),
(215,504,o),
(215,504,cs),
(215,504,o),
(215,504,o),
(215,504,cs),
(215,504,o),
(215,504,o),
(215,504,cs),
(215,504,o),
(215,504,o),
(215,504,cs)
);
}
);
width = 600;
},
{
layerId = "45082C4A-550E-4DA0-B494-F7E76CD90BF9";
shapes = (
{
closed = 1;
nodes = (
(256,661,o),
(254,705,o),
(315,705,cs),
(401,705,o),
(448,653,o),
(448,615,cs),
(448,584,o),
(448,550,o),
(456,515,cs),
(464,482,o),
(579,475,o),
(579,396,cs),
(579,304,o),
(470,274,o),
(452,258,cs),
(436,243,o),
(447,146,o),
(432,102,cs),
(421,69,o),
(385,1,o),
(291,1,cs),
(193,1,o),
(164,41,o),
(144,109,cs),
(127,166,o),
(154,193,o),
(154,235,cs),
(154,302,o),
(32,280,o),
(32,370,cs),
(32,426,o),
(31,483,o),
(39,538,cs),
(46,587,o),
(91,653,o),
(138,674,cs),
(170,688,o),
(194,661,o),
(221,661,cs)
);
},
{
closed = 1;
nodes = (
(130,621,o),
(94,576,o),
(89,537,cs),
(82,481,o),
(78,425,o),
(78,369,cs),
(78,282,o),
(193,311,o),
(193,251,cs),
(193,206,o),
(170,167,o),
(179,118,cs),
(188,65,o),
(251,32,o),
(290,32,cs),
(336,32,o),
(374,71,o),
(390,105,cs),
(405,138,o),
(410,159,o),
(410,266,cs),
(410,303,o),
(535,307,o),
(535,388,cs),
(535,467,o),
(414,443,o),
(414,492,cs),
(414,526,o),
(410,574,o),
(410,608,cs),
(410,647,o),
(365,673,o),
(315,673,cs),
(283,673,o),
(269,630,o),
(227,630,cs),
(203,630,o),
(170,661,o),
(154,645,cs)
);
},
{
closed = 1;
nodes = (
(167,536,o),
(184,580,o),
(227,580,cs),
(269,580,o),
(295,536,o),
(295,481,cs),
(295,427,o),
(269,384,o),
(227,384,cs),
(184,384,o),
(167,427,o),
(167,481,cs)
);
},
{
closed = 1;
nodes = (
(193,496,o),
(206,510,o),
(227,510,cs),
(248,510,o),
(262,497,o),
(262,481,cs),
(262,465,o),
(248,452,o),
(227,452,cs),
(206,452,o),
(193,464,o),
(193,480,cs)
);
},
{
closed = 1;
nodes = (
(150,426,o),
(184,382,o),
(227,382,cs),
(270,382,o),
(309,426,o),
(309,481,cs),
(309,537,o),
(270,582,o),
(227,582,cs),
(184,582,o),
(150,537,o),
(150,481,cs)
);
},
{
closed = 1;
nodes = (
(292,539,l),
(317,548,l),
(316,550,l),
(291,540,l)
);
},
{
closed = 1;
nodes = (
(309,480,l),
(337,480,l),
(337,482,l),
(309,482,l)
);
},
{
closed = 1;
nodes = (
(122,480,l),
(150,480,l),
(150,482,l),
(122,482,l)
);
},
{
closed = 1;
nodes = (
(295,427,l),
(320,417,l),
(321,418,l),
(296,429,l)
);
},
{
closed = 1;
nodes = (
(138,417,l),
(162,428,l),
(161,430,l),
(137,419,l)
);
},
{
closed = 1;
nodes = (
(142,554,l),
(166,543,l),
(167,544,l),
(143,555,l)
);
},
{
closed = 1;
nodes = (
(233,484,o),
(233,484,o),
(233,484,cs),
(233,484,o),
(233,484,o),
(233,484,cs),
(233,484,o),
(233,484,o),
(233,484,cs),
(233,484,o),
(233,484,o),
(233,484,cs)
);
}
);
width = 600;
}
);
unicode = 52;
},
{
glyphname = five;
lastChange = "2024-04-12 17:57:26 +0000";
layers = (
{
backgroundImage = {
imagePath = "New Folder With Items/Images/five-Regular.tif";
locked = 1;
pos = (33,-25);
scale = (5.6066,5.8068);
};
layerId = m01;
shapes = (
{
closed = 1;
nodes = (
(159,665,o),
(202,712,o),
(287,712,cs),
(366,712,o),
(340,625,o),
(368,625,cs),
(451,625,o),
(488,588,o),
(488,514,cs),
(488,427,o),
(405,422,o),
(422,423,cs),
(456,425,o),
(532,322,o),
(532,202,cs),
(532,103,o),
(446,0,o),
(303,0,cs),
(139,0,o),
(99,61,o),
(57,170,cs),
(30,242,o),
(46,311,o),
(70,373,cs),
(82,405,o),
(167,415,o),
(167,448,cs),
(167,489,o),
(159,529,o),
(159,570,cs)
);
},
{
closed = 1;
nodes = (
(184,516,o),
(191,485,o),
(191,435,cs),
(191,391,o),
(121,400,o),
(100,361,cs),
(71,306,o),
(66,243,o),
(85,181,cs),
(105,114,o),
(155,23,o),
(296,23,cs),
(427,23,o),
(499,120,o),
(499,205,cs),
(499,347,o),
(409,423,o),
(379,424,cs),
(356,425,o),
(470,458,o),
(470,514,cs),
(470,582,o),
(423,599,o),
(348,599,cs),
(323,599,o),
(348,691,o),
(287,691,cs),
(220,691,o),
(184,646,o),
(184,568,cs)
);
},
{
closed = 1;
nodes = (
(270,217,o),
(270,217,o),
(270,217,cs),
(270,217,o),
(270,217,o),
(270,217,cs),
(270,217,o),
(270,217,o),
(270,217,cs),
(270,217,o),
(270,217,o),
(270,217,cs)
);
},
{
closed = 1;
nodes = (
(270,217,o),
(270,217,o),
(270,217,cs),
(270,217,o),
(270,217,o),
(270,217,cs),
(270,217,o),
(270,217,o),
(270,217,cs),
(270,217,o),
(270,217,o),
(270,217,cs)
);
},
{
closed = 1;
nodes = (
(258,202,o),
(263,188,o),
(272,185,cs),
(280,182,o),
(286,193,o),
(287,209,cs),
(287,225,o),
(282,239,o),
(274,241,cs),
(267,244,o),
(261,234,o),
(259,216,cs)
);
},
{
closed = 1;
nodes = (
(279,229,l),
(279,229,l),
(279,229,l),
(279,229,l)
);
},
{
closed = 1;
nodes = (
(276,211,l),
(276,211,l),
(276,211,l),
(276,211,l)
);
},
{
closed = 1;
nodes = (
(268,206,l),
(268,206,l),
(268,206,l),
(268,206,l)
);
},
{
closed = 1;
nodes = (
(276,197,l),
(276,197,l),
(276,197,l),
(276,197,l)
);
},
{
closed = 1;
nodes = (
(267,198,l),
(267,198,l),
(267,198,l),
(267,198,l)
);
},
{
closed = 1;
nodes = (
(268,224,l),
(268,224,l),
(268,224,l),
(268,224,l)
);
},
{
closed = 1;
nodes = (
(270,217,o),
(270,217,o),
(270,217,cs),
(270,217,o),
(270,217,o),
(270,217,cs),
(270,217,o),
(270,217,o),
(270,217,cs),
(270,217,o),
(270,217,o),
(270,217,cs)
);
}
);
width = 600;
},
{
layerId = "45082C4A-550E-4DA0-B494-F7E76CD90BF9";
shapes = (
{
closed = 1;
nodes = (
(159,665,o),
(202,712,o),
(287,712,cs),
(366,712,o),
(340,625,o),
(368,625,cs),
(451,625,o),
(488,588,o),
(488,514,cs),
(488,427,o),
(405,422,o),
(422,423,cs),
(456,425,o),
(532,322,o),
(532,202,cs),
(532,103,o),
(446,0,o),
(303,0,cs),
(139,0,o),
(99,61,o),
(57,170,cs),
(30,242,o),
(46,311,o),
(70,373,cs),
(82,405,o),
(167,415,o),
(167,448,cs),
(167,489,o),
(159,529,o),
(159,570,cs)
);
},
{
closed = 1;
nodes = (
(184,516,o),
(191,485,o),
(191,435,cs),
(191,391,o),
(121,400,o),
(100,361,cs),
(71,306,o),
(66,243,o),
(85,181,cs),
(105,114,o),
(155,23,o),
(296,23,cs),
(427,23,o),
(499,120,o),
(499,205,cs),
(499,347,o),
(409,423,o),
(379,424,cs),
(356,425,o),
(470,458,o),
(470,514,cs),
(470,582,o),
(423,599,o),
(348,599,cs),
(323,599,o),
(348,691,o),
(287,691,cs),
(220,691,o),
(184,646,o),
(184,568,cs)
);
},
{
closed = 1;
nodes = (
(229,246,o),
(249,284,o),
(278,285,cs),
(305,284,o),
(329,247,o),
(329,201,cs),
(330,156,o),
(305,120,o),
(277,120,cs),
(249,120,o),
(229,156,o),
(229,202,cs)
);
},
{
closed = 1;
nodes = (
(252,213,o),
(264,226,o),
(278,226,cs),
(292,226,o),
(300,219,o),
(302,202,cs),
(303,189,o),
(292,176,o),
(277,176,cs),
(264,176,o),
(252,186,o),
(252,199,cs)
);
},
{
closed = 1;
nodes = (
(228,154,o),
(250,117,o),
(278,118,cs),
(306,117,o),
(330,155,o),
(331,201,cs),
(331,248,o),
(305,286,o),
(278,286,cs),
(249,286,o),
(228,248,o),
(228,201,cs)
);
},
{
closed = 1;
nodes = (
(320,250,l),
(336,257,l),
(335,258,l),
(319,250,l)
);
},
{
closed = 1;
nodes = (
(330,200,l),
(348,200,l),
(349,202,l),
(330,202,l)
);
},
{
closed = 1;
nodes = (
(210,200,l),
(228,200,l),
(228,202,l),
(210,202,l)
);
},
{
closed = 1;
nodes = (
(322,156,l),
(337,147,l),
(338,149,l),
(322,157,l)
);
},
{
closed = 1;
nodes = (
(220,148,l),
(235,156,l),
(235,158,l),
(220,148,l)
);
},
{
closed = 1;
nodes = (
(222,262,l),
(239,253,l),
(238,254,l),
(223,264,l)
);
},
{
closed = 1;
nodes = (
(282,203,o),
(282,203,o),
(282,203,cs),
(282,203,o),
(282,203,o),
(282,203,cs),
(282,203,o),
(282,203,o),
(282,203,cs),
(282,203,o),
(282,203,o),
(282,203,cs)
);
}
);
width = 600;
}
);
unicode = 53;
},
{
glyphname = six;
lastChange = "2024-04-12 17:58:28 +0000";
layers = (
{
backgroundImage = {
imagePath = "New Folder With Items/Images/six-Regular.tif";
locked = 1;
pos = (-5,-12);
scale = (5.7318,6.2862);
};
layerId = m01;
shapes = (
{
closed = 1;
nodes = (
(375,700,o),
(422,651,o),
(396,576,c),
(389,558,o),
(372,530,o),
(356,509,c),
(422,536,o),
(514,479,o),
(538,420,c),
(611,301,o),
(589,214,o),
(532,140,c),
(480,63,o),
(395,15,o),
(267,-2,c),
(105,-2,o),
(49,37,o),
(24,117,c),
(-4,210,o),
(13,327,o),
(49,432,c),
(108,601,o),
(139,610,o),
(181,655,c),
(207,683,o),
(250,712,o),
(318,704,c)
);
},
{
closed = 1;
nodes = (
(250,682,o),
(227,667,o),
(195,638,c),
(171,612,o),
(110,572,o),
(71,432,c),
(37,326,o),
(30,213,o),
(53,130,c),
(69,69,o),
(122,27,o),
(267,27,c),
(377,40,o),
(449,85,o),
(498,156,c),
(549,222,o),
(554,299,o),
(514,387,c),
(483,450,o),
(417,515,o),
(304,482,c),
(325,524,o),
(337,543,o),
(351,573,c),
(372,636,o),
(355,671,o),
(319,679,c)
);
},
{
closed = 1;
nodes = (
(310,261,o),
(310,261,o),
(310,261,cs),
(310,261,o),
(310,261,o),
(310,261,cs),
(310,261,o),
(310,261,o),
(310,261,cs),
(310,261,o),
(310,261,o),
(310,261,cs)
);
},
{
closed = 1;
nodes = (
(310,261,o),
(310,261,o),
(310,261,cs),
(310,261,o),
(310,261,o),
(310,261,cs),
(310,261,o),
(310,261,o),
(310,261,cs),
(310,261,o),
(310,261,o),
(310,261,cs)
);
},
{
closed = 1;
nodes = (
(292,254,o),
(290,240,o),
(296,232,cs),
(302,226,o),
(312,232,o),
(321,246,cs),
(329,260,o),
(332,274,o),
(326,280,cs),
(321,286,o),
(311,280,o),
(301,266,cs)
);
},
{
closed = 1;
nodes = (
(324,267,l),
(324,267,l),
(324,267,l),
(324,267,l)
);
},
{
closed = 1;
nodes = (
(313,253,l),
(313,253,l),
(313,253,l),
(313,253,l)
);
},
{
closed = 1;
nodes = (
(303,253,l),
(303,253,l),
(303,253,l),
(303,253,l)
);
},
{
closed = 1;
nodes = (
(306,241,l),
(306,241,l),
(306,241,l),
(306,241,l)
);
},
{
closed = 1;
nodes = (
(298,246,l),
(298,246,l),
(298,246,l),
(298,246,l)
);
},
{
closed = 1;
nodes = (
(312,268,l),
(312,268,l),
(312,268,l),
(312,268,l)
);
},
{
closed = 1;
nodes = (
(310,261,o),
(310,261,o),
(310,261,cs),
(310,261,o),
(310,261,o),
(310,261,cs),
(310,261,o),
(310,261,o),
(310,261,cs),
(310,261,o),
(310,261,o),
(310,261,cs)
);
}
);
width = 600;
},
{
layerId = "45082C4A-550E-4DA0-B494-F7E76CD90BF9";
shapes = (
{
closed = 1;
nodes = (
(375,700,o),
(422,651,o),
(396,576,c),
(389,558,o),
(372,530,o),
(356,509,c),
(422,536,o),
(514,479,o),
(538,420,c),
(611,301,o),
(589,214,o),
(532,140,c),
(480,63,o),
(395,15,o),
(267,-2,c),
(105,-2,o),
(49,37,o),
(24,117,c),
(-4,210,o),
(13,327,o),
(49,432,c),
(108,601,o),
(139,610,o),
(181,655,c),
(207,683,o),
(250,712,o),
(318,704,c)
);
},
{
closed = 1;
nodes = (
(250,682,o),
(227,667,o),
(195,638,c),
(171,612,o),
(110,572,o),
(71,432,c),
(37,326,o),
(30,213,o),
(53,130,c),
(69,69,o),
(122,27,o),
(267,27,c),
(377,40,o),
(449,85,o),
(498,156,c),
(549,222,o),
(554,299,o),
(514,387,c),
(483,450,o),
(417,515,o),
(304,482,c),
(325,524,o),
(337,543,o),
(351,573,c),
(372,636,o),
(355,671,o),
(319,679,c)
);
},
{
closed = 1;
nodes = (
(292,326,o),
(332,342,o),
(354,324,cs),
(375,306,o),
(369,262,o),
(340,227,cs),
(311,192,o),
(269,180,o),
(248,198,cs),
(226,216,o),
(234,257,o),
(263,292,cs)
);
},
{
closed = 1;
nodes = (
(304,271,o),
(306,288,o),
(316,279,cs),
(327,270,o),
(323,262,o),
(313,248,cs),
(306,238,o),
(295,232,o),
(284,241,cs),
(274,250,o),
(287,250,o),
(295,260,cs)
);
},
{
closed = 1;
nodes = (
(232,256,o),
(225,214,o),
(247,196,cs),
(268,178,o),
(311,191,o),
(341,226,cs),
(371,262,o),
(376,307,o),
(355,325,cs),
(333,343,o),
(292,328,o),
(262,292,cs)
);
},
{
closed = 1;
nodes = (
(364,270,l),
(381,266,l),
(395,272,l),
(364,271,l)
);
},
{
closed = 1;
nodes = (
(340,226,l),
(354,200,l),
(355,215,l),
(341,227,l)
);
},
{
closed = 1;
nodes = (
(248,303,l),
(262,291,l),
(263,293,l),
(231,326,l)
);
},
{
closed = 1;
nodes = (
(305,197,l),
(311,165,l),
(313,181,l),
(306,198,l)
);
},
{
closed = 1;
nodes = (
(222,256,l),
(239,253,l),
(240,254,l),
(208,266,l)
);
},
{
closed = 1;
nodes = (
(297,342,l),
(304,325,l),
(304,326,l),
(299,365,l)
);
},
{
closed = 1;
nodes = (
(305,259,o),
(305,259,o),
(305,259,cs),
(305,259,o),
(305,259,o),
(305,259,cs),
(305,259,o),
(305,259,o),
(305,259,cs),
(305,259,o),
(305,259,o),
(305,259,cs)
);
}
);
width = 600;
}
);
unicode = 54;
},
{
glyphname = seven;
lastChange = "2024-04-12 18:28:43 +0000";
layers = (
{
backgroundImage = {
imagePath = "New Folder With Items/Images/seven-Regular.tif";
locked = 1;
pos = (0,-15);
scale = (5.5958,5.7138);
};
layerId = m01;
shapes = (
{
closed = 1;
nodes = (
(28,649,o),
(103,708,o),
(281,708,c),
(449,708,o),
(533,659,o),
(533,562,c),
(518,282,l),
(518,93,o),
(431,-1,o),
(258,-1,c),
(151,-1,o),
(90,59,o),
(90,180,c),
(88,278,o),
(110,303,o),
(128,371,c),
(110,389,o),
(28,424,o),
(28,530,c)
);
},
{
closed = 1;
nodes = (
(67,433,o),
(125,420,o),
(161,380,c),
(143,316,o),
(132,283,o),
(125,187,c),
(125,87,o),
(170,37,o),
(260,37,c),
(408,37,o),
(482,118,o),
(482,281,c),
(493,556,l),
(493,639,o),
(415,681,o),
(277,681,c),
(137,681,o),
(67,634,o),
(67,539,c)
);
},
{
closed = 1;
nodes = (
(278,411,o),
(278,411,o),
(278,411,cs),
(278,411,o),
(278,411,o),
(279,411,cs),
(279,411,o),
(279,411,o),
(279,411,cs),
(279,411,o),
(279,411,o),
(279,411,cs)
);
},
{
closed = 1;
nodes = (
(278,411,o),
(278,411,o),
(278,411,cs),
(278,411,o),
(278,411,o),
(279,411,cs),
(279,411,o),
(279,411,o),
(279,411,cs),
(279,411,o),
(279,411,o),
(279,411,cs)
);
},
{
closed = 1;
nodes = (
(276,406,o),
(290,407,o),
(289,412,cs),
(288,418,o),
(275,416,o),
(259,413,cs),
(245,411,o),
(238,410,o),
(239,404,cs),
(240,398,o),
(244,401,o),
(261,403,cs)
);
},
{
closed = 1;
nodes = (
(269,411,l),
(257,409,l),
(255,409,l),
(267,411,l)
);
},
{
closed = 1;
nodes = (
(245,405,l),
(245,405,l),
(243,404,l),
(243,404,l)
);
},
{
closed = 1;
nodes = (
(245,408,l),
(245,408,l),
(243,407,l),
(243,407,l)
);
},
{
closed = 1;
nodes = (
(254,407,l),
(268,410,l),
(266,409,l),
(252,407,l)
);
},
{
closed = 1;
nodes = (
(266,407,l),
(252,405,l),
(250,405,l),
(264,407,l)
);
},
{
closed = 1;
nodes = (
(258,407,l),
(272,410,l),
(270,409,l),
(256,407,l)
);
},
{
closed = 1;
nodes = (
(278,411,o),
(278,411,o),
(278,411,cs),
(278,411,o),
(278,411,o),
(278,411,cs),
(278,411,o),
(278,411,o),
(278,411,cs),
(278,411,o),
(278,411,o),
(278,411,cs)
);
}
);
width = 600;
},
{
layerId = "45082C4A-550E-4DA0-B494-F7E76CD90BF9";
shapes = (
{
closed = 1;
nodes = (
(28,649,o),
(103,708,o),
(281,708,c),
(449,708,o),
(533,659,o),
(533,562,c),
(518,282,l),
(518,93,o),
(431,-1,o),
(258,-1,c),
(151,-1,o),
(90,59,o),
(90,180,c),
(88,278,o),
(110,303,o),
(128,371,c),
(110,389,o),
(28,424,o),
(28,530,c)
);
},
{
closed = 1;
nodes = (
(67,433,o),
(125,420,o),
(161,380,c),
(143,316,o),
(132,283,o),
(125,187,c),
(125,87,o),
(170,37,o),
(260,37,c),
(408,37,o),
(482,118,o),
(482,281,c),
(493,556,l),
(493,639,o),
(415,681,o),
(277,681,c),
(137,681,o),
(67,634,o),
(67,539,c)
);
},
{
closed = 1;
nodes = (
(240,345,o),
(189,362,o),
(184,396,cs),
(178,429,o),
(218,467,o),
(274,477,cs),
(329,487,o),
(378,464,o),
(384,432,cs),
(390,398,o),
(351,365,o),
(295,355,cs)
);
},
{
closed = 1;
nodes = (
(276,361,o),
(258,392,o),
(256,408,cs),
(252,425,o),
(259,466,o),
(275,469,cs),
(292,471,o),
(312,436,o),
(315,420,cs),
(318,403,o),
(309,367,o),
(292,364,cs)
);
},
{
closed = 1;
nodes = (
(352,364,o),
(392,398,o),
(386,432,cs),
(381,466,o),
(331,488,o),
(274,479,cs),
(217,468,o),
(176,430,o),
(182,396,cs),
(188,362,o),
(239,344,o),
(295,353,cs)
);
},
{
closed = 1;
nodes = (
(217,455,l),
(205,473,l),
(203,471,l),
(216,454,l)
);
},
{
closed = 1;
nodes = (
(275,479,l),
(271,501,l),
(269,500,l),
(273,479,l)
);
},
{
closed = 1;
nodes = (
(300,332,l),
(296,353,l),
(295,353,l),
(299,331,l)
);
},
{
closed = 1;
nodes = (
(331,477,l),
(339,499,l),
(336,499,l),
(329,478,l)
);
},
{
closed = 1;
nodes = (
(362,356,l),
(348,372,l),
(347,372,l),
(361,354,l)
);
},
{
closed = 1;
nodes = (
(223,334,l),
(231,355,l),
(229,356,l),
(221,335,l)
);
},
{
closed = 1;
nodes = (
(281,418,o),
(281,418,o),
(281,418,cs),
(281,418,o),
(281,418,o),
(281,418,cs),
(281,418,o),
(281,418,o),
(281,418,cs),
(281,418,o),
(281,418,o),
(281,418,cs)
);
}
);
width = 600;
}
);
unicode = 55;
},
{
glyphname = eight;
lastChange = "2024-04-12 18:00:58 +0000";
layers = (
{
backgroundImage = {
imagePath = "New Folder With Items/Images/eight-Regular.tif";
locked = 1;
pos = (21,-34);
scale = (5.8784,5.8784);
};
layerId = m01;
shapes = (
{
closed = 1;
nodes = (
(266,713,o),
(320,707,o),
(373,696,cs),
(457,680,o),
(495,618,o),
(512,534,cs),
(523,477,o),
(512,447,o),
(470,396,c),
(557,358,o),
(563,262,o),
(548,201,cs),
(521,90,o),
(449,7,o),
(292,-1,c),
(115,4,o),
(65,92,o),
(44,182,cs),
(17,298,o),
(48,342,o),
(115,384,c),
(65,433,o),
(33,482,o),
(58,567,cs),
(80,639,o),
(139,680,o),
(213,699,cs)
);
},
{
closed = 1;
nodes = (
(159,662,o),
(105,628,o),
(91,564,cs),
(70,472,o),
(105,448,o),
(148,384,c),
(105,348,o),
(70,261,o),
(82,206,cs),
(99,128,o),
(159,42,o),
(287,35,c),
(425,42,o),
(479,127,o),
(503,201,cs),
(539,311,o),
(466,338,o),
(425,393,c),
(470,442,o),
(489,479,o),
(478,532,cs),
(465,597,o),
(425,660,o),
(358,677,cs),
(313,688,o),
(267,693,o),
(222,680,cs)
);
},
{
closed = 1;
nodes = (
(292,503,o),
(292,503,o),
(292,503,cs),
(292,503,o),
(292,503,o),
(292,503,cs),
(292,503,o),
(292,503,o),
(292,503,cs),
(292,503,o),
(292,503,o),
(292,503,cs)
);
},
{
closed = 1;
nodes = (
(292,503,o),
(292,503,o),
(292,503,cs),
(292,503,o),
(292,503,o),
(292,503,cs),
(292,503,o),
(292,503,o),
(292,503,cs),
(292,503,o),
(292,503,o),
(292,503,cs)
);
},
{
closed = 1;
nodes = (
(294,473,o),
(309,480,o),
(317,486,cs),
(323,492,o),
(327,519,o),
(313,528,cs),
(299,536,o),
(283,528,o),
(277,522,cs),
(271,517,o),
(268,492,o),
(282,482,cs)
);
},
{
closed = 1;
nodes = (
(286,517,l),
(286,517,l),
(286,517,l),
(286,517,l)
);
},
{
closed = 1;
nodes = (
(300,506,l),
(300,506,l),
(300,506,l),
(300,506,l)
);
},
{
closed = 1;
nodes = (
(300,496,l),
(300,496,l),
(300,496,l),
(300,496,l)
);
},
{
closed = 1;
nodes = (
(312,499,l),
(312,499,l),
(312,499,l),
(312,499,l)
);
},
{
closed = 1;
nodes = (
(307,491,l),
(307,491,l),
(307,491,l),
(307,491,l)
);
},
{
closed = 1;
nodes = (
(285,505,l),
(285,505,l),
(285,505,l),
(285,505,l)
);
},
{
closed = 1;
nodes = (
(292,503,o),
(292,503,o),
(292,503,cs),
(292,503,o),
(292,503,o),
(292,503,cs),
(292,503,o),
(292,503,o),
(292,503,cs),
(292,503,o),
(292,503,o),
(292,503,cs)
);
},
{
closed = 1;
nodes = (
(298,214,o),
(298,214,o),
(298,214,cs),
(298,214,o),
(298,214,o),
(298,214,cs),
(298,214,o),
(298,214,o),
(298,214,cs),
(298,214,o),
(298,214,o),
(298,214,cs)
);
},
{
closed = 1;
nodes = (
(298,214,o),
(298,214,o),
(298,214,cs),
(298,214,o),
(298,214,o),
(298,214,cs),
(298,214,o),
(298,214,o),
(298,214,cs),
(298,214,o),
(298,214,o),
(298,214,cs)
);
},
{
closed = 1;
nodes = (
(300,184,o),
(315,191,o),
(323,197,cs),
(329,203,o),
(333,230,o),
(319,239,cs),
(305,247,o),
(289,239,o),
(283,233,cs),
(277,228,o),
(274,203,o),
(288,193,cs)
);
},
{
closed = 1;
nodes = (
(292,228,l),
(292,228,l),
(292,228,l),
(292,228,l)
);
},
{
closed = 1;
nodes = (
(306,217,l),
(306,217,l),
(306,217,l),
(306,217,l)
);
},
{
closed = 1;
nodes = (
(306,207,l),
(306,207,l),
(306,207,l),
(306,207,l)
);
},
{
closed = 1;
nodes = (
(318,210,l),
(318,210,l),
(318,210,l),
(318,210,l)
);
},
{
closed = 1;
nodes = (
(313,202,l),
(313,202,l),
(313,202,l),
(313,202,l)
);
},
{
closed = 1;
nodes = (
(291,216,l),
(291,216,l),
(291,216,l),
(291,216,l)
);
},
{
closed = 1;
nodes = (
(298,214,o),
(298,214,o),
(298,214,cs),
(298,214,o),
(298,214,o),
(298,214,cs),
(298,214,o),
(298,214,o),
(298,214,cs),
(298,214,o),
(298,214,o),
(298,214,cs)
);
}
);
width = 600;
},
{
layerId = "45082C4A-550E-4DA0-B494-F7E76CD90BF9";
shapes = (
{
closed = 1;
nodes = (
(266,713,o),
(320,707,o),
(373,696,cs),
(457,680,o),
(495,618,o),
(512,534,cs),
(523,477,o),
(512,447,o),
(470,396,c),
(557,358,o),
(563,262,o),
(548,201,cs),
(521,90,o),
(449,7,o),
(292,-1,c),
(115,4,o),
(65,92,o),
(44,182,cs),
(17,298,o),
(48,342,o),
(115,384,c),
(65,433,o),
(33,482,o),
(58,567,cs),
(80,639,o),
(139,680,o),
(213,699,cs)
);
},
{
closed = 1;
nodes = (
(159,662,o),
(105,628,o),
(91,564,cs),
(70,472,o),
(105,448,o),
(148,384,c),
(105,348,o),
(70,261,o),
(82,206,cs),
(99,128,o),
(159,42,o),
(287,35,c),
(425,42,o),
(479,127,o),
(503,201,cs),
(539,311,o),
(466,338,o),
(425,393,c),
(470,442,o),
(489,479,o),
(478,532,cs),
(465,597,o),
(425,660,o),
(358,677,cs),
(313,688,o),
(267,693,o),
(222,680,cs)
);
},
{
closed = 1;
nodes = (
(244,474,o),
(206,495,o),
(206,522,cs),
(206,550,o),
(244,574,o),
(289,575,cs),
(334,575,o),
(371,551,o),
(370,522,cs),
(371,494,o),
(334,474,o),
(288,474,cs)
);
},
{
closed = 1;
nodes = (
(279,500,o),
(264,510,o),
(265,523,cs),
(265,537,o),
(273,541,o),
(290,543,cs),
(303,544,o),
(315,537,o),
(314,522,cs),
(313,509,o),
(306,500,o),
(294,499,cs)
);
},
{
closed = 1;
nodes = (
(336,473,o),
(374,495,o),
(373,523,cs),
(373,551,o),
(336,576,o),
(289,576,cs),
(242,575,o),
(205,551,o),
(204,523,cs),
(205,494,o),
(243,472,o),
(289,473,cs)
);
},
{
closed = 1;
nodes = (
(241,565,l),
(233,581,l),
(232,580,l),
(240,565,l)
);
},
{
closed = 1;
nodes = (
(290,576,l),
(290,594,l),
(289,594,l),
(288,575,l)
);
},
{
closed = 1;
nodes = (
(291,455,l),
(291,473,l),
(288,473,l),
(288,455,l)
);
},
{
closed = 1;
nodes = (
(334,567,l),
(343,583,l),
(342,584,l),
(333,567,l)
);
},
{
closed = 1;
nodes = (
(343,465,l),
(334,481,l),
(333,480,l),
(342,465,l)
);
},
{
closed = 1;
nodes = (
(229,468,l),
(237,484,l),
(235,485,l),
(227,469,l)
);
},
{
closed = 1;
nodes = (
(287,527,o),
(287,527,o),
(287,527,cs),
(287,527,o),
(287,527,o),
(287,527,cs),
(287,527,o),
(287,527,o),
(287,527,cs),
(287,527,o),
(287,527,o),
(287,527,cs)
);
},
{
closed = 1;
nodes = (
(243,160,o),
(194,181,o),
(194,208,cs),
(194,236,o),
(243,260,o),
(288,261,cs),
(333,261,o),
(380,238,o),
(379,209,cs),
(380,181,o),
(333,160,o),
(287,160,cs)
);
},
{
closed = 1;
nodes = (
(273,167,o),
(263,196,o),
(264,209,cs),
(264,223,o),
(271,245,o),
(288,247,cs),
(301,248,o),
(314,223,o),
(313,208,cs),
(312,195,o),
(300,167,o),
(288,166,cs)
);
},
{
closed = 1;
nodes = (
(335,159,o),
(396,181,o),
(395,209,cs),
(395,237,o),
(335,262,o),
(288,262,cs),
(241,261,o),
(180,237,o),
(179,209,cs),
(180,180,o),
(242,158,o),
(288,159,cs)
);
},
{
closed = 1;
nodes = (
(240,251,l),
(232,267,l),
(231,266,l),
(239,251,l)
);
},
{
closed = 1;
nodes = (
(289,262,l),
(289,280,l),
(288,280,l),
(287,261,l)
);
},
{
closed = 1;
nodes = (
(290,141,l),
(290,159,l),
(287,159,l),
(287,141,l)
);
},
{
closed = 1;
nodes = (
(333,253,l),
(342,269,l),
(341,270,l),
(332,253,l)
);
},
{
closed = 1;
nodes = (
(342,151,l),
(333,167,l),
(332,166,l),
(341,151,l)
);
},
{
closed = 1;
nodes = (
(228,154,l),
(236,170,l),
(234,171,l),
(226,155,l)
);
},
{
closed = 1;
nodes = (
(286,213,o),
(286,213,o),
(286,213,cs),
(286,213,o),
(286,213,o),
(286,213,cs),
(286,213,o),
(286,213,o),
(286,213,cs),
(286,213,o),
(286,213,o),
(286,213,cs)
);
}
);
width = 600;
}
);
unicode = 56;
},
{
glyphname = nine;
lastChange = "2024-04-12 18:28:55 +0000";
layers = (
{
backgroundImage = {
imagePath = "New Folder With Items/Images/nine-Regular.tif";
};
layerId = m01;
shapes = (
{
closed = 1;
nodes = (
(232,11,o),
(185,60,o),
(211,135,c),
(218,153,o),
(235,181,o),
(251,202,c),
(185,175,o),
(93,232,o),
(69,291,c),
(-4,410,o),
(18,497,o),
(75,571,c),
(127,648,o),
(212,696,o),
(340,713,c),
(502,713,o),
(558,674,o),
(583,594,c),
(611,501,o),
(594,384,o),
(558,279,c),
(499,110,o),
(468,101,o),
(426,56,c),
(400,28,o),
(357,-1,o),
(289,7,c)
);
},
{
closed = 1;
nodes = (
(357,29,o),
(380,44,o),
(412,73,c),
(436,99,o),
(497,139,o),
(536,279,c),
(570,385,o),
(577,498,o),
(554,581,c),
(538,642,o),
(485,684,o),
(340,684,c),
(230,671,o),
(158,626,o),
(109,555,c),
(58,489,o),
(53,412,o),
(93,324,c),
(124,261,o),
(190,196,o),
(303,229,c),
(282,187,o),
(270,168,o),
(256,138,c),
(235,75,o),
(252,40,o),
(288,32,c)
);
},
{
closed = 1;
nodes = (
(318,446,o),
(318,446,o),
(318,446,cs),
(318,446,o),
(318,446,o),
(319,446,cs),
(319,446,o),
(319,446,o),
(319,446,cs),
(319,446,o),
(319,446,o),
(319,446,cs)
);
},
{
closed = 1;
nodes = (
(318,446,o),
(318,446,o),
(318,446,cs),
(318,446,o),
(318,446,o),
(319,446,cs),
(319,446,o),
(319,446,o),
(319,446,cs),
(319,446,o),
(319,446,o),
(319,446,cs)
);
},
{
closed = 1;
nodes = (
(332,436,o),
(345,444,o),
(345,450,cs),
(345,456,o),
(332,463,o),
(316,463,cs),
(302,463,o),
(295,456,o),
(295,450,cs),
(295,444,o),
(299,436,o),
(316,436,cs)
);
},
{
closed = 1;
nodes = (
(325,452,l),
(313,452,l),
(311,452,l),
(323,452,l)
);
},
{
closed = 1;
nodes = (
(301,450,l),
(301,450,l),
(299,450,l),
(299,450,l)
);
},
{
closed = 1;
nodes = (
(301,453,l),
(301,453,l),
(299,453,l),
(299,453,l)
);
},
{
closed = 1;
nodes = (
(310,451,l),
(324,451,l),
(322,451,l),
(308,451,l)
);
},
{
closed = 1;
nodes = (
(322,449,l),
(308,449,l),
(306,449,l),
(320,449,l)
);
},
{
closed = 1;
nodes = (
(314,450,l),
(328,450,l),
(326,450,l),
(312,450,l)
);
},
{
closed = 1;
nodes = (
(318,446,o),
(318,446,o),
(318,446,cs),
(318,446,o),
(318,446,o),
(318,446,cs),
(318,446,o),
(318,446,o),
(318,446,cs),
(318,446,o),
(318,446,o),
(318,446,cs)
);
}
);
width = 600;
},
{
layerId = "45082C4A-550E-4DA0-B494-F7E76CD90BF9";
shapes = (
{
closed = 1;
nodes = (
(232,11,o),
(185,60,o),
(211,135,c),
(218,153,o),
(235,181,o),
(251,202,c),
(185,175,o),
(93,232,o),
(69,291,c),
(-4,410,o),
(18,497,o),
(75,571,c),
(127,648,o),
(212,696,o),
(340,713,c),
(502,713,o),
(558,674,o),
(583,594,c),
(611,501,o),
(594,384,o),
(558,279,c),
(499,110,o),
(468,101,o),
(426,56,c),
(400,28,o),
(357,-1,o),
(289,7,c)
);
},
{
closed = 1;
nodes = (
(357,29,o),
(380,44,o),
(412,73,c),
(436,99,o),
(497,139,o),
(536,279,c),
(570,385,o),
(577,498,o),
(554,581,c),
(538,642,o),
(485,684,o),
(340,684,c),
(230,671,o),
(158,626,o),
(109,555,c),
(58,489,o),
(53,412,o),
(93,324,c),
(124,261,o),
(190,196,o),
(303,229,c),
(282,187,o),
(270,168,o),
(256,138,c),
(235,75,o),
(252,40,o),
(288,32,c)
);
},
{
closed = 1;
nodes = (
(253,365,o),
(218,397,o),
(218,440,cs),
(218,482,o),
(253,520,o),
(324,520,cs),
(394,520,o),
(434,482,o),
(434,440,cs),
(434,397,o),
(394,365,o),
(324,365,cs)
);
},
{
closed = 1;
nodes = (
(305,380,o),
(286,419,o),
(286,440,cs),
(286,461,o),
(303,489,o),
(324,489,cs),
(345,489,o),
(362,461,o),
(362,440,cs),
(362,419,o),
(347,380,o),
(326,380,cs)
);
},
{
closed = 1;
nodes = (
(396,363,o),
(453,397,o),
(453,440,cs),
(453,483,o),
(396,522,o),
(324,522,cs),
(252,522,o),
(193,483,o),
(193,440,cs),
(193,397,o),
(252,363,o),
(324,363,cs)
);
},
{
closed = 1;
nodes = (
(249,505,l),
(237,530,l),
(235,529,l),
(247,504,l)
);
},
{
closed = 1;
nodes = (
(325,522,l),
(325,550,l),
(323,550,l),
(323,522,l)
);
},
{
closed = 1;
nodes = (
(325,335,l),
(325,363,l),
(323,363,l),
(323,335,l)
);
},
{
closed = 1;
nodes = (
(394,508,l),
(408,533,l),
(406,534,l),
(392,509,l)
);
},
{
closed = 1;
nodes = (
(407,351,l),
(393,375,l),
(391,374,l),
(405,350,l)
);
},
{
closed = 1;
nodes = (
(230,355,l),
(244,379,l),
(242,380,l),
(228,356,l)
);
},
{
closed = 1;
nodes = (
(320,446,o),
(320,446,o),
(320,446,cs),
(320,446,o),
(320,446,o),
(320,446,cs),
(320,446,o),
(320,446,o),
(320,446,cs),
(320,446,o),
(320,446,o),
(320,446,cs)
);
}
);
width = 600;
}
);
unicode = 57;
},
